<svg data-name="Layer 1" xmlns="http://www.w3.org/2000/svg" width="627.45" height="759" viewBox="0 0 627.45 759"><defs><linearGradient id="a" x1="313.72" y1="759" x2="313.72" gradientUnits="userSpaceOnUse"><stop offset="0" stop-color="gray" stop-opacity=".25"/><stop offset=".54" stop-color="gray" stop-opacity=".12"/><stop offset="1" stop-color="gray" stop-opacity=".1"/></linearGradient><linearGradient id="b" x1="313.72" y1="455.23" x2="313.72" y2="213.09" gradientUnits="userSpaceOnUse"><stop offset="0" stop-color="#b3b3b3" stop-opacity=".25"/><stop offset=".54" stop-color="#b3b3b3" stop-opacity=".1"/><stop offset="1" stop-color="#b3b3b3" stop-opacity=".05"/></linearGradient></defs><title>blog</title><path fill="url(#a)" d="M0 0h627.45v759H0z"/><path fill="#fff" d="M7.58 5.49h612.28v736.45H7.58z"/><path fill="#64ffda" d="M50.71 52.74h240.74v19.72H50.71zm0 460.63h240.74v19.72H50.71z"/><path fill="#e0e0e0" d="M50.71 92.18h526.03v19.72H50.71zm0 39.45h526.03v19.72H50.71z"/><path fill="url(#b)" d="M46.44 213.09H581v242.14H46.44z"/><path fill="#6c63ff" d="M51.18 216.78h526.03v231.2H51.18z"/><path fill="#e0e0e0" d="M50.71 637.59h526.03v19.72H50.71zm0 40.75h526.03v19.72H50.71zm0-81.29h526.03v19.72H50.71zm0-40.54h526.03v19.72H50.71z"/></svg>