<?xml version="1.0" encoding="UTF-8" standalone="no"?>
<svg width="19px" height="16px" viewBox="0 0 19 16" version="1.1" xmlns="http://www.w3.org/2000/svg" xmlns:xlink="http://www.w3.org/1999/xlink">
    <!-- Generator: Sketch 41 (35326) - http://www.bohemiancoding.com/sketch -->
    <title>Page 1</title>
    <desc>Created with Sketch.</desc>
    <defs></defs>
    <g id="Page-1" stroke="none" stroke-width="1" fill="none" fill-rule="evenodd">
        <g id="Button-Copy-6" transform="translate(-361.000000, -14.000000)" stroke="#FFFFFF" stroke-width="0.5" fill="#FFFFFF">
            <path d="M364.170485,21.3657455 L369.451058,16.087435 C369.698904,15.8373263 369.698904,15.4355681 369.451058,15.1854595 C369.201516,14.9381802 368.799192,14.9381802 368.549083,15.1854595 C368.549083,15.1854595 363.706482,20.0308897 362.18546,21.549083 C361.93818,21.7991916 361.93818,22.2015157 362.18546,22.4510585 C363.638013,23.9007831 368.323872,28.589471 368.549083,28.8124185 C368.799192,29.0625272 369.201516,29.0625272 369.451058,28.8124185 C369.698904,28.5651392 369.698904,28.1628151 369.451058,27.9127065 L364.175011,22.6389229 L378.336705,22.6389229 C378.504764,22.6389229 378.666033,22.5727176 378.787693,22.4533219 C378.907088,22.3339261 378.973294,22.1703936 378.973294,22.0023342 C378.973294,21.8342747 378.907088,21.6707422 378.787693,21.5513464 C378.666033,21.4319507 378.504764,21.3657455 378.336705,21.3657455 L364.170485,21.3657455 Z" id="Page-1" transform="translate(370.486647, 22.000000) rotate(180.000000) translate(-370.486647, -22.000000) "></path>
        </g>
    </g>
</svg>