<?xml version="1.0" encoding="UTF-8" standalone="no"?>
<svg width="279px" height="49px" viewBox="0 0 279 49" version="1.1" xmlns="http://www.w3.org/2000/svg" xmlns:xlink="http://www.w3.org/1999/xlink" xmlns:sketch="http://www.bohemiancoding.com/sketch/ns">
    <!-- Generator: Sketch 3.4.1 (15681) - http://www.bohemiancoding.com/sketch -->
    <title>ncs-logo-dual</title>
    <desc>Created with Sketch.</desc>
    <defs></defs>
    <g id="Counselling-Screens" stroke="none" stroke-width="1" fill="none" fill-rule="evenodd" sketch:type="MSPage">
        <g id="Desktop-Home-Alt-3" sketch:type="MSArtboardGroup" transform="translate(-238.000000, -17.000000)">
            <g id="Header" sketch:type="MSLayerGroup">
                <g id="ncs-logo-dual" transform="translate(238.000000, 17.000000)" sketch:type="MSShapeGroup">
                    <g id="accredited-logo" transform="translate(175.990624, 0.408331)">
                        <path d="M102.73172,41.0266885 L102.73172,37.3476886 C102.73172,35.294593 101.083032,33.6309412 99.0493914,33.6309412 L3.87067082,33.6309412 C1.83657037,33.6309412 0.188342634,35.294593 0.188342634,37.3476886 L0.188342634,40.7477253 L0.187883262,44.7061487 C0.187883262,46.7587839 1.83702974,48.4224358 3.87021145,48.4224358 L99.0493914,48.4224358 C101.083032,48.4224358 102.73172,46.7587839 102.73172,44.7061487 L102.73172,41.0266885 Z" id="Fill-32" fill="#553982"></path>
                        <path d="M42.0389947,9.77498369 L42.0389947,2.52884536 L42.8874553,2.52884536 L42.8874553,3.25847685 C43.1033603,2.94913151 43.3459089,2.72218619 43.6137229,2.57718057 C43.8829151,2.43171461 44.2017194,2.35944196 44.5715141,2.35944196 C45.2596538,2.35944196 45.809063,2.6075627 46.2188231,3.10380418 C46.6290425,3.60050599 46.8339226,4.26569053 46.8339226,5.10027848 C46.8339226,5.94499379 46.6262863,6.61662303 46.2119325,7.11654719 C45.7971193,7.61601102 45.2467914,7.8659731 44.5618673,7.8659731 C44.1985038,7.8659731 43.8796995,7.80014515 43.6040761,7.66987025 C43.3293715,7.53913502 43.0904979,7.34073049 42.8874553,7.07281534 L42.8874553,9.77498369 L42.0389947,9.77498369 L42.0389947,9.77498369 Z M42.8589742,5.15367737 C42.8589742,5.79860716 42.9871391,6.28287992 43.2425501,6.60649565 C43.4979611,6.93011139 43.8815369,7.09214942 44.3932777,7.09214942 C44.8820498,7.09214942 45.2591944,6.91445999 45.5242522,6.55816044 C45.7902288,6.2018609 45.922528,5.69687305 45.922528,5.04273656 C45.922528,4.45304701 45.7851757,3.98856867 45.5100117,3.65068254 C45.235307,3.31187574 44.8595405,3.14247234 44.3836308,3.14247234 C43.8943994,3.14247234 43.5181735,3.31693943 43.2549532,3.6644926 C42.9908141,4.01296644 42.8589742,4.50920792 42.8589742,5.15367737 Z M47.8909382,7.70623674 L47.8909382,2.52884536 L48.7302113,2.52884536 L48.7302113,3.45688137 C48.8684824,3.10886787 49.0559063,2.84877841 49.292483,2.67615266 C49.5286004,2.50352692 49.8189236,2.41744421 50.1629935,2.41744421 C50.2273056,2.41744421 50.2741616,2.41836488 50.3026427,2.42020622 C50.3315831,2.42158723 50.3609829,2.42573025 50.3899234,2.43217494 L50.3899234,3.35054391 C50.3674141,3.34732156 50.3412299,3.34501989 50.3122895,3.34317855 C50.2838084,3.34179754 50.2406274,3.34087687 50.1818277,3.34087687 C49.7192399,3.34087687 49.3659826,3.46746908 49.1229746,3.72019318 C48.8804261,3.9733776 48.7591518,4.34164586 48.7591518,4.82453762 L48.7591518,7.70623674 L47.8909382,7.70623674 Z M50.9057985,5.10994552 C50.9057985,4.24359444 51.1221628,3.56828252 51.5548915,3.08493043 C51.9867014,2.601118 52.5939916,2.35944196 53.3753838,2.35944196 C54.1599917,2.35944196 54.7700381,2.60019733 55.2036855,3.08262875 C55.6377923,3.5641395 55.8550754,4.24037209 55.8550754,5.10994552 C55.8550754,5.98043961 55.6391704,6.65713254 55.2064417,7.14048463 C54.773713,7.62429705 54.1664229,7.8659731 53.3850306,7.8659731 C52.6004228,7.8659731 51.9912952,7.62521772 51.556729,7.14278631 C51.1230815,6.66127556 50.9057985,5.98366196 50.9057985,5.10994552 Z M51.7928463,5.10994552 C51.7928463,5.75165296 51.930658,6.24237041 52.205822,6.58209788 C52.4805266,6.92182535 52.8737493,7.09214942 53.3850306,7.09214942 C53.8935558,7.09214942 54.2821847,6.92182535 54.552755,6.58209788 C54.8228659,6.24237041 54.957462,5.75165296 54.957462,5.10994552 C54.957462,4.47192076 54.8228659,3.98304465 54.552755,3.64285684 C54.2821847,3.30312937 53.8935558,3.1328053 53.3850306,3.1328053 C52.8709931,3.1328053 52.4763923,3.30174837 52.2030658,3.64055516 C51.9297393,3.97890163 51.7928463,4.46869841 51.7928463,5.10994552 Z M57.0990555,7.70623674 L57.0990555,3.22026901 L56.2501355,3.22026901 L56.2501355,2.52884536 L57.0990555,2.52884536 L57.0990555,1.76468872 C57.0990555,1.33611654 57.1969018,1.01480248 57.3916757,0.800746554 C57.5859901,0.586230293 57.8772322,0.479432498 58.2667799,0.479432498 C58.3278764,0.479432498 58.4050509,0.483575516 58.4983035,0.493242558 C58.5920154,0.5029096 58.728449,0.520862677 58.9080636,0.546641455 L58.9080636,1.32967184 C58.8152704,1.3135601 58.7371771,1.30159139 58.6747024,1.29330535 C58.6117684,1.28547965 58.5607781,1.28133663 58.5226502,1.28133663 C58.3196077,1.28133663 58.1785804,1.33795788 58.0977309,1.45074003 C58.0178001,1.56352218 57.9773753,1.77803845 57.9773753,2.09336814 L57.9773753,2.52884536 L58.9080636,2.52884536 L58.9080636,3.22026901 L57.9773753,3.22026901 L57.9773753,7.70623674 L57.0990555,7.70623674 Z M62.9996924,6.03383851 L63.8577999,6.03383851 C63.7645473,6.60419398 63.5169456,7.05348125 63.1154543,7.38216067 C62.7130441,7.71084009 62.2063565,7.87564014 61.5953914,7.87564014 C60.8787706,7.87564014 60.3123646,7.6339641 59.8975514,7.15015167 C59.4822789,6.66679958 59.275102,6.0075994 59.275102,5.17301146 C59.275102,4.29008831 59.4804414,3.60050599 59.8924983,3.10426451 C60.3040959,2.6075627 60.87188,2.35944196 61.5953914,2.35944196 C62.3386557,2.35944196 62.9133305,2.58868895 63.3198749,3.04580193 C63.7264194,3.50383557 63.9303807,4.14968603 63.9303807,4.98427397 C63.9303807,5.09107177 63.9294619,5.17024944 63.9276244,5.22134667 C63.9262463,5.27290422 63.9225714,5.32308077 63.9161401,5.37141598 L60.186956,5.37141598 C60.1966028,5.91599267 60.3311989,6.33719949 60.591663,6.63549678 C60.8525864,6.93333373 61.2145718,7.08248238 61.6771597,7.08248238 C62.0313357,7.08248238 62.3230371,6.99179632 62.5531826,6.80950353 C62.7828687,6.62721074 62.9317053,6.36850229 62.9996924,6.03383851 Z M60.1823623,4.64592751 L63.0189861,4.64592751 C63.0157705,4.16257542 62.8935774,3.78924347 62.6514883,3.52685234 C62.4103178,3.26446121 62.0680855,3.13326564 61.6243318,3.13326564 C61.1966562,3.13326564 60.859477,3.26215953 60.6137128,3.51948697 C60.3674893,3.77773509 60.2237058,4.15290838 60.1823623,4.64592751 Z M64.5721238,6.02371113 L65.4063438,6.02371113 C65.4389592,6.37540732 65.5648272,6.6410208 65.7853259,6.82147225 C66.0058246,7.0019237 66.3181978,7.09214942 66.7238235,7.09214942 C67.0968338,7.09214942 67.3912914,7.0189561 67.6062777,6.87210914 C67.8217233,6.7257225 67.9296757,6.5250163 67.9296757,6.27045087 C67.9296757,6.08033238 67.8754698,5.93440608 67.7679767,5.83313231 C67.6600242,5.7313982 67.4505505,5.64347416 67.1381773,5.56936017 L66.1689018,5.31847742 C65.6222488,5.18590085 65.2414292,5.01097342 65.0278211,4.79369515 C64.8137536,4.57595654 64.7071792,4.26615087 64.7071792,3.86289713 C64.7071792,3.40532381 64.8799032,3.04211924 65.2258105,2.77282308 C65.5712585,2.50398725 66.0453307,2.369109 66.6461896,2.369109 C67.2603703,2.369109 67.7496018,2.51273362 68.1129653,2.79952253 C68.4763288,3.08677177 68.6582402,3.47115177 68.6582402,3.95496419 L68.6582402,3.97383794 L67.8139139,3.97383794 C67.7946203,3.70039876 67.6829928,3.48818417 67.4785722,3.33811486 C67.2741515,3.18850588 66.9966906,3.11347122 66.6461896,3.11347122 C66.2961479,3.11347122 66.029712,3.17515615 65.8478006,3.29760535 C65.6663485,3.42005454 65.5758522,3.59912499 65.5758522,3.833896 C65.5758522,4.00191839 65.6328143,4.13265363 65.7467387,4.22794304 C65.860663,4.32323245 66.0738117,4.40563247 66.3857255,4.47698445 L67.2249987,4.67538897 C67.8235607,4.81671192 68.2351583,4.99808403 68.4602507,5.21904499 C68.6858025,5.44000594 68.7978893,5.75487531 68.7978893,6.16411341 C68.7978893,6.70270574 68.6090873,7.12022987 68.2305646,7.41852716 C67.8534199,7.71636412 67.3251418,7.8659731 66.6461896,7.8659731 C65.9837748,7.8659731 65.4747903,7.70807808 65.1192361,7.39182772 C64.7641414,7.07603768 64.5817706,6.62030571 64.5721238,6.02371113 Z M69.4731666,6.02371113 L70.307846,6.02371113 C70.3400021,6.37540732 70.4663295,6.6410208 70.6868282,6.82147225 C70.9068675,7.0019237 71.2192406,7.09214942 71.6248664,7.09214942 C71.9978766,7.09214942 72.2923343,7.0189561 72.5073205,6.87210914 C72.7232255,6.7257225 72.8307186,6.5250163 72.8307186,6.27045087 C72.8307186,6.08033238 72.7765127,5.93440608 72.6690195,5.83313231 C72.5615264,5.7313982 72.3515933,5.64347416 72.0396795,5.56936017 L71.0699446,5.31847742 C70.5232916,5.18590085 70.1429314,5.01097342 69.9288639,4.79369515 C69.7147964,4.57595654 69.608222,4.26615087 69.608222,3.86289713 C69.608222,3.40532381 69.780946,3.04211924 70.1268534,2.77282308 C70.4727607,2.50398725 70.9463735,2.369109 71.5476918,2.369109 C72.1618725,2.369109 72.6506447,2.51273362 73.0140081,2.79952253 C73.3773716,3.08677177 73.559283,3.47115177 73.559283,3.95496419 L73.559283,3.97383794 L72.7149568,3.97383794 C72.6956631,3.70039876 72.584495,3.48818417 72.3800744,3.33811486 C72.1751943,3.18850588 71.8981929,3.11347122 71.5476918,3.11347122 C71.1971908,3.11347122 70.9312142,3.17515615 70.7488434,3.29760535 C70.5678507,3.42005454 70.476895,3.59912499 70.476895,3.833896 C70.476895,4.00191839 70.5338572,4.13265363 70.6477815,4.22794304 C70.7617058,4.32323245 70.9748546,4.40563247 71.2872277,4.47698445 L72.1260415,4.67538897 C72.7246036,4.81671192 73.1362011,4.99808403 73.3612936,5.21904499 C73.5868454,5.44000594 73.6993916,5.75487531 73.6993916,6.16411341 C73.6993916,6.70270574 73.5101302,7.12022987 73.1320668,7.41852716 C72.7544628,7.71636412 72.2261847,7.8659731 71.5476918,7.8659731 C70.885277,7.8659731 70.3762925,7.70807808 70.0207384,7.39182772 C69.6651842,7.07603768 69.4832728,6.62030571 69.4731666,6.02371113 Z M74.726548,0.585309623 L75.5947616,0.585309623 L75.5947616,1.57595124 L74.726548,1.57595124 L74.726548,0.585309623 Z M74.726548,2.52884536 L75.5947616,2.52884536 L75.5947616,7.70623674 L74.726548,7.70623674 L74.726548,2.52884536 Z M76.6559116,5.10994552 C76.6559116,4.24359444 76.8731946,3.56828252 77.3059233,3.08493043 C77.7377333,2.601118 78.3450234,2.35944196 79.1264157,2.35944196 C79.9110235,2.35944196 80.5210699,2.60019733 80.9547173,3.08262875 C81.3888241,3.5641395 81.6061072,4.24037209 81.6061072,5.10994552 C81.6061072,5.98043961 81.3902023,6.65713254 80.9574736,7.14048463 C80.5247449,7.62429705 79.9174547,7.8659731 79.1360625,7.8659731 C78.3514546,7.8659731 77.7418676,7.62521772 77.3077608,7.14278631 C76.8731946,6.66127556 76.6559116,5.98366196 76.6559116,5.10994552 Z M77.5438782,5.10994552 C77.5438782,5.75165296 77.6816898,6.24237041 77.9563945,6.58209788 C78.2315585,6.92182535 78.6247811,7.09214942 79.1360625,7.09214942 C79.6445876,7.09214942 80.0332165,6.92182535 80.3037868,6.58209788 C80.5738977,6.24237041 80.7084938,5.75165296 80.7084938,5.10994552 C80.7084938,4.47192076 80.5738977,3.98304465 80.3037868,3.64285684 C80.0332165,3.30312937 79.6445876,3.1328053 79.1360625,3.1328053 C78.6220249,3.1328053 78.2274241,3.30174837 77.9540976,3.64055516 C77.6807711,3.97890163 77.5438782,4.46869841 77.5438782,5.10994552 Z M86.1015243,7.70623674 L86.1015243,4.52025597 C86.1015243,4.0111251 86.0238904,3.65942891 85.8677039,3.46424674 C85.7119767,3.26906456 85.4441626,3.17147347 85.0647211,3.17147347 C84.5791646,3.17147347 84.20202,3.30957407 83.9337466,3.58485459 C83.6645544,3.86059545 83.5304177,4.25142014 83.5304177,4.75732866 L83.5304177,7.70623674 L82.6622041,7.70623674 L82.6622041,2.52884536 L83.4918304,2.52884536 L83.4918304,3.28287462 C83.691198,2.98319632 83.9277747,2.76085436 84.2011012,2.61584873 C84.4744277,2.47038277 84.7913946,2.39811013 85.1515425,2.39811013 C85.5401714,2.39811013 85.8686226,2.45703305 86.1350585,2.57487889 C86.4024132,2.6922644 86.6086713,2.86857283 86.7529142,3.10426451 C86.8337638,3.22993606 86.8911853,3.37724336 86.9260976,3.54618642 C86.962388,3.71558982 86.9798441,3.98396532 86.9798441,4.3513129 L86.9798441,7.70623674 L86.1015243,7.70623674 Z M91.47618,7.01481309 C91.2060691,7.29837965 90.9194208,7.5115149 90.614857,7.65283784 C90.3107525,7.79462112 89.9887326,7.8659731 89.6478783,7.8659731 C89.1200596,7.8659731 88.7089214,7.7278725 88.4126263,7.45259198 C88.1167905,7.17685112 87.9688727,6.79569347 87.9688727,6.30911903 C87.9688727,5.83865633 88.1144937,5.4694674 88.4052763,5.20201258 C88.6965184,4.93455776 89.1393532,4.76193201 89.7346997,4.68505601 C89.8858332,4.66894428 90.0897945,4.64592751 90.347043,4.61692639 C90.787581,4.57227386 91.0581512,4.528542 91.1573756,4.48665149 C91.2570594,4.44798332 91.323209,4.39734644 91.3553651,4.33474083 C91.3875212,4.27167489 91.4035992,4.13541564 91.4035992,3.92550273 C91.4035992,3.66127025 91.3075904,3.46332607 91.1141947,3.33120983 C90.9212583,3.19909359 90.6295569,3.13326564 90.240928,3.13326564 C89.8385178,3.13326564 89.5357915,3.21382432 89.3318302,3.37494168 C89.1278689,3.53605905 89.0254289,3.77451274 89.0254289,4.09030278 L88.20499,4.09030278 L88.20499,4.05163461 C88.20499,3.52915402 88.3887389,3.11669357 88.755318,2.81425326 C89.1214377,2.51089228 89.6267472,2.35944196 90.269409,2.35944196 C90.9612237,2.35944196 91.4702082,2.48925652 91.7968219,2.74842531 C92.1234356,3.00805443 92.2860533,3.41314951 92.2860533,3.96463123 L92.2860533,6.55585877 C92.2860533,6.77820073 92.3104001,6.92136502 92.3586342,6.98581196 C92.4068682,7.05025891 92.4936896,7.08294271 92.6190982,7.08294271 C92.6448231,7.08294271 92.6765198,7.0801807 92.7132696,7.07557735 C92.7504787,7.07051366 92.7945785,7.06314829 92.8460281,7.05348125 L92.8460281,7.72557083 C92.7399132,7.75457195 92.6475793,7.77436637 92.5685673,7.78587475 C92.4900146,7.79738314 92.4146776,7.80290716 92.344853,7.80290716 C92.0545297,7.80290716 91.837706,7.74030156 91.6930037,7.61416968 C91.5487608,7.48849813 91.47618,7.29837965 91.47618,7.04381421 L91.47618,7.01481309 Z M91.3939524,5.07173769 C91.1624287,5.19740923 90.7650717,5.29546065 90.2028001,5.36681263 C90.0029731,5.39213107 89.8536771,5.4133065 89.7539933,5.42941823 C89.4384046,5.48097579 89.211934,5.57442386 89.073663,5.70976244 C88.9353919,5.84510103 88.8660267,6.04166421 88.8660267,6.29945199 C88.8660267,6.55723977 88.9468762,6.7556443 89.1071972,6.89420523 C89.2679775,7.03276616 89.498123,7.10181646 89.7971743,7.10181646 C90.2634372,7.10181646 90.6460943,6.98397062 90.9451457,6.74873927 C91.2446564,6.51396825 91.3939524,6.21244862 91.3939524,5.84510103 L91.3939524,5.07173769 Z M93.6563608,0.585309623 L94.5392744,0.585309623 L94.5392744,7.70577641 L93.6563608,7.70577641 L93.6563608,0.585309623 Z" id="Fill-34" fill="#553982"></path>
                        <path d="M41.6678219,16.0677676 L42.502042,16.0677676 C42.534198,16.4190034 42.6605254,16.6846169 42.8810241,16.8655287 C43.1010634,17.0459801 43.413896,17.1362058 43.8195217,17.1362058 C44.192532,17.1362058 44.4865302,17.0630125 44.7015165,16.9161656 C44.9174214,16.7693186 45.0249145,16.5686124 45.0249145,16.3145073 C45.0249145,16.1243888 44.971168,15.9784625 44.8632155,15.8767284 C44.7557224,15.7749943 44.5457893,15.6875306 44.2338755,15.6129563 L43.2646,15.3620735 C42.717947,15.2299573 42.3371273,15.0550298 42.1235192,14.8377516 C41.9094517,14.620013 41.8028774,14.309747 41.8028774,13.9064932 C41.8028774,13.4493802 41.9756014,13.0861757 42.3215087,12.8168795 C42.6669566,12.5475833 43.1405695,12.4131654 43.7418878,12.4131654 C44.3560685,12.4131654 44.8453,12.55679 45.2086635,12.843579 C45.5715676,13.1303679 45.753479,13.5152082 45.753479,13.9990206 L45.753479,14.0178944 L44.9091527,14.0178944 C44.8898591,13.7444552 44.778691,13.5322406 44.5742703,13.3821713 C44.3698497,13.232102 44.0923888,13.1575276 43.7418878,13.1575276 C43.3913867,13.1575276 43.1254102,13.2187522 42.9430394,13.3412014 C42.7620467,13.4636506 42.6715504,13.6427211 42.6715504,13.8779524 C42.6715504,14.0455145 42.7280531,14.17671 42.8424368,14.2719995 C42.9559018,14.3668285 43.1695099,14.4496889 43.4814237,14.5210409 L44.3206968,14.7194454 C44.9187995,14.8607683 45.3308565,15.0421405 45.5554895,15.2626411 C45.7810413,15.483602 45.8935875,15.7989317 45.8935875,16.2077095 C45.8935875,16.7463018 45.7043261,17.1642863 45.3262628,17.4625836 C44.9486587,17.7604205 44.4203806,17.9100295 43.7418878,17.9100295 C43.0794729,17.9100295 42.5704885,17.7516742 42.2149343,17.4358841 C41.8598395,17.1200941 41.6774687,16.6639018 41.6678219,16.0677676 Z M47.9387129,16.4447822 C47.9387129,16.6767912 47.9717877,16.8314639 48.0374779,16.9088002 C48.1036276,16.9861365 48.2249018,17.0248047 48.4017602,17.0248047 C48.4532099,17.0248047 48.5152251,17.0234237 48.5878059,17.0202013 C48.6603868,17.016979 48.7540987,17.0105343 48.8698605,17.0008673 L48.8698605,17.7401658 C48.7251582,17.7659446 48.5956153,17.785739 48.4816909,17.7986284 C48.3673072,17.8115178 48.2653266,17.8179625 48.1752896,17.8179625 C47.7664483,17.8179625 47.4807187,17.7387848 47.3162635,17.5808898 C47.1527269,17.4229948 47.0704993,17.1426505 47.0704993,16.7398571 L47.0704993,13.2638651 L46.2982945,13.2638651 L46.2982945,12.5724414 L47.0704993,12.5724414 L47.0704993,11.1274489 L47.9387129,11.1274489 L47.9387129,12.5724414 L48.8698605,12.5724414 L48.8698605,13.2638651 L47.9387129,13.2638651 L47.9387129,16.4447822 Z M52.8884492,17.0588695 C52.6183383,17.3424361 52.3312306,17.5555713 52.0271262,17.6968943 C51.7230217,17.8386775 51.4010018,17.9095692 51.0601475,17.9095692 C50.5327882,17.9095692 50.12165,17.7719289 49.8253549,17.4961881 C49.5290597,17.2209075 49.3816012,16.8397499 49.3816012,16.3527151 C49.3816012,15.8822524 49.5272222,15.5135238 49.8180049,15.246069 C50.1087876,14.9786142 50.5516224,14.8059884 51.1474283,14.7286521 C51.2981024,14.7125404 51.5020637,14.6899839 51.7593122,14.6609828 C52.2003095,14.6163303 52.4699611,14.5725984 52.5696449,14.5302476 C52.6693286,14.4920397 52.7354782,14.4409425 52.7676343,14.3783369 C52.7997904,14.315271 52.8158684,14.1794721 52.8158684,13.9695592 C52.8158684,13.7053267 52.7198596,13.5073825 52.5269232,13.3752663 C52.3335275,13.24315 52.0418261,13.1773221 51.6531972,13.1773221 C51.2512464,13.1773221 50.9485201,13.2574204 50.7445588,13.4189981 C50.5401381,13.5801155 50.4376981,13.8185692 50.4376981,14.1338989 L49.6177186,14.1338989 L49.6177186,14.095691 C49.6177186,13.5732104 49.8014675,13.16075 50.1680466,12.8578493 C50.5341663,12.5549487 51.0394758,12.4034984 51.6821376,12.4034984 C52.3734929,12.4034984 52.8824774,12.5333129 53.2090911,12.7924817 C53.5357048,13.0521109 53.6983225,13.4572059 53.6983225,14.0082273 L53.6983225,16.5999152 C53.6983225,16.8217968 53.7226693,16.9654214 53.7709034,17.0298684 C53.8191374,17.0943153 53.9059588,17.1265388 54.0313674,17.1265388 C54.0575517,17.1265388 54.088789,17.1242371 54.1255388,17.1191734 C54.1627479,17.1145701 54.2068477,17.1072047 54.2582973,17.0975377 L54.2582973,17.7696272 C54.1521824,17.7986284 54.0598485,17.8184228 53.9808365,17.8299312 C53.9022838,17.8414396 53.8269468,17.8465032 53.7571222,17.8465032 C53.4672583,17.8465032 53.2499752,17.7838976 53.1052729,17.6577658 C52.96103,17.5320942 52.8884492,17.3424361 52.8884492,17.0878706 L52.8884492,17.0588695 Z M52.8062216,15.1153338 C52.5746979,15.2410053 52.1773409,15.3395171 51.6150693,15.4104087 C51.4152423,15.4361875 51.2664057,15.4569026 51.1667219,15.4730143 C50.8511332,15.5250322 50.6242033,15.6180199 50.4863916,15.7533585 C50.3481205,15.8891575 50.2787553,16.0857206 50.2787553,16.3430481 C50.2787553,16.6012962 50.3591454,16.7992404 50.5199257,16.9378013 C50.6802467,17.0763623 50.9108516,17.1454125 51.2099029,17.1454125 C51.6757064,17.1454125 52.0583635,17.028027 52.3574149,16.7927957 C52.6569256,16.5575643 52.8062216,16.2560447 52.8062216,15.8891575 L52.8062216,15.1153338 Z M58.4983035,17.7502932 L58.4983035,14.5643124 C58.4983035,14.0551815 58.4206696,13.7034853 58.2649424,13.5083032 C58.1087558,13.313121 57.8409418,13.2155299 57.4615002,13.2155299 C56.9759438,13.2155299 56.5987991,13.3531702 56.3305257,13.628911 C56.0613335,13.9046519 55.9271968,14.2950162 55.9271968,14.8009247 L55.9271968,17.7502932 L55.0589832,17.7502932 L55.0589832,12.5724414 L55.8886096,12.5724414 L55.8886096,13.3264707 C56.0884365,13.0272527 56.3245539,12.8044504 56.597421,12.6594448 C56.8712069,12.5144392 57.1881737,12.4421665 57.5483216,12.4421665 C57.9374099,12.4421665 58.2654017,12.5010895 58.5318377,12.6189353 C58.7991923,12.7363208 59.0054505,12.9126293 59.1496934,13.1478606 C59.2300835,13.2735321 59.2879644,13.4212998 59.3228767,13.5902428 C59.3591671,13.7596462 59.3766233,14.0275614 59.3766233,14.394909 L59.3766233,17.7502932 L58.4983035,17.7502932 Z M65.1950326,10.629366 L65.1950326,17.7498328 L64.3548407,17.7498328 L64.3548407,17.0975377 C64.1334232,17.3682148 63.882606,17.5712227 63.6028482,17.7065613 C63.3226312,17.8423602 63.013933,17.9095692 62.6762944,17.9095692 C61.9881547,17.9095692 61.4387454,17.6623691 61.028526,17.167969 C60.6192253,16.6726482 60.4138859,16.0097653 60.4138859,15.1783997 C60.4138859,14.3309224 60.6196847,13.6565311 61.0317416,13.155226 C61.4433392,12.6539208 61.9913703,12.4034984 62.6762944,12.4034984 C63.0369016,12.4034984 63.355706,12.470247 63.6336262,12.6042046 C63.9124652,12.7377018 64.1522575,12.938408 64.3548407,13.2058629 L64.3548407,10.629366 L65.1950326,10.629366 Z M64.3842405,15.1250008 C64.3842405,14.4837537 64.2546975,14.0004016 63.9960709,13.6749445 C63.736985,13.3494875 63.3534091,13.1869891 62.8453434,13.1869891 C62.3565713,13.1869891 61.9785079,13.3646785 61.7116126,13.7205177 C61.4447173,14.0768173 61.3110399,14.5822655 61.3110399,15.236402 C61.3110399,15.8256312 61.4483923,16.2901095 61.7240156,16.628456 C61.9987202,16.9668024 62.3758649,17.1362058 62.8549902,17.1362058 C63.3405467,17.1362058 63.7172319,16.9621991 63.9836679,16.6141856 C64.2505632,16.2657117 64.3842405,15.7694703 64.3842405,15.1250008 Z M69.7432775,17.0588695 C69.4731666,17.3424361 69.1860589,17.5555713 68.8819545,17.6968943 C68.57785,17.8386775 68.2558301,17.9095692 67.9149758,17.9095692 C67.3871571,17.9095692 66.9760189,17.7719289 66.6801831,17.4961881 C66.383888,17.2209075 66.2359701,16.8397499 66.2359701,16.3527151 C66.2359701,15.8822524 66.3815912,15.5135238 66.6723738,15.246069 C66.9640752,14.9786142 67.4069101,14.8059884 68.0017972,14.7286521 C68.1529307,14.7125404 68.356892,14.6899839 68.6145998,14.6609828 C69.0551378,14.6163303 69.3247894,14.5725984 69.4249325,14.5302476 C69.5246163,14.4920397 69.5907659,14.4409425 69.622922,14.3783369 C69.6546186,14.315271 69.6706967,14.1794721 69.6706967,13.9695592 C69.6706967,13.7053267 69.5746879,13.5073825 69.3817515,13.3752663 C69.1883558,13.24315 68.8971138,13.1773221 68.5084848,13.1773221 C68.1060747,13.1773221 67.802889,13.2574204 67.5989277,13.4189981 C67.3949664,13.5801155 67.2925264,13.8185692 67.2925264,14.1338989 L66.4725469,14.1338989 L66.4725469,14.095691 C66.4725469,13.5732104 66.6558364,13.16075 67.0224155,12.8578493 C67.3889946,12.5549487 67.8943041,12.4034984 68.5369659,12.4034984 C69.2283212,12.4034984 69.7373057,12.5333129 70.0639193,12.7924817 C70.390533,13.0521109 70.5536102,13.4572059 70.5536102,14.0082273 L70.5536102,16.5999152 C70.5536102,16.8217968 70.5774976,16.9654214 70.626191,17.0298684 C70.6739657,17.0943153 70.7612465,17.1265388 70.8866551,17.1265388 C70.9123799,17.1265388 70.9440766,17.1242371 70.980367,17.1191734 C71.0175762,17.1145701 71.0621353,17.1072047 71.1131256,17.0975377 L71.1131256,17.7696272 C71.0070106,17.7986284 70.9146768,17.8184228 70.8356648,17.8299312 C70.7571121,17.8414396 70.6822344,17.8465032 70.6119505,17.8465032 C70.3220866,17.8465032 70.1052629,17.7838976 69.9605606,17.6577658 C69.8158583,17.5320942 69.7432775,17.3424361 69.7432775,17.0878706 L69.7432775,17.0588695 Z M69.6610499,15.1153338 C69.4295262,15.2410053 69.0326286,15.3395171 68.4698975,15.4104087 C68.27053,15.4361875 68.1207746,15.4569026 68.0210908,15.4730143 C67.7059614,15.5250322 67.4794909,15.6180199 67.3412199,15.7533585 C67.2024894,15.8891575 67.1331242,16.0857206 67.1331242,16.3430481 C67.1331242,16.6012962 67.2139737,16.7992404 67.3742947,16.9378013 C67.5355343,17.0763623 67.7656798,17.1454125 68.0642718,17.1454125 C68.5305347,17.1454125 68.9136512,17.028027 69.2122431,16.7927957 C69.5117539,16.5575643 69.6610499,16.2560447 69.6610499,15.8891575 L69.6610499,15.1153338 Z M71.9147303,17.7502932 L71.9147303,12.5724414 L72.753544,12.5724414 L72.753544,13.5009378 C72.8918151,13.1529243 73.0801577,12.8928348 73.3162751,12.7202091 C73.5523924,12.5480437 73.8422563,12.4615006 74.1867856,12.4615006 C74.2510977,12.4615006 74.2974943,12.4624213 74.3264347,12.4638023 C74.3553752,12.4656437 74.384775,12.4697867 74.4132561,12.4762314 L74.4132561,13.3946003 C74.3912062,13.391378 74.365022,13.3890763 74.3360815,13.387235 C74.3071411,13.385854 74.2644195,13.3849333 74.2056198,13.3849333 C73.7430319,13.3849333 73.3897746,13.5115255 73.1467667,13.7642496 C72.9042181,14.017434 72.7829439,14.385242 72.7829439,14.868594 L72.7829439,17.7502932 L71.9147303,17.7502932 Z M79.7107372,10.629366 L79.7107372,17.7498328 L78.8705453,17.7498328 L78.8705453,17.0975377 C78.6486685,17.3682148 78.3983106,17.5712227 78.1185529,17.7065613 C77.8383358,17.8423602 77.5296376,17.9095692 77.191999,17.9095692 C76.5038593,17.9095692 75.9544501,17.6623691 75.5442306,17.167969 C75.1349299,16.6726482 74.9295905,16.0097653 74.9295905,15.1783997 C74.9295905,14.3309224 75.1349299,13.6565311 75.5474462,13.155226 C75.9590438,12.6539208 76.5070749,12.4034984 77.191999,12.4034984 C77.5526062,12.4034984 77.8714106,12.470247 78.1493308,12.6042046 C78.4281698,12.7377018 78.6679621,12.938408 78.8705453,13.2058629 L78.8705453,10.629366 L79.7107372,10.629366 Z M78.8999451,15.1250008 C78.8999451,14.4837537 78.7704021,14.0004016 78.5117756,13.6749445 C78.2526896,13.3494875 77.8691137,13.1869891 77.361048,13.1869891 C76.8722759,13.1869891 76.4942125,13.3646785 76.2273172,13.7205177 C75.9599625,14.0768173 75.8267446,14.5822655 75.8267446,15.236402 C75.8267446,15.8256312 75.9640969,16.2901095 76.2397203,16.628456 C76.5144249,16.9668024 76.8915695,17.1362058 77.3706948,17.1362058 C77.8562513,17.1362058 78.2329366,16.9621991 78.4993725,16.6141856 C78.7662678,16.2657117 78.8999451,15.7694703 78.8999451,15.1250008 Z M80.7135469,16.0677676 L81.5477669,16.0677676 C81.579923,16.4190034 81.7062504,16.6846169 81.9267491,16.8655287 C82.1467884,17.0459801 82.4596209,17.1362058 82.8652466,17.1362058 C83.2382569,17.1362058 83.5322552,17.0630125 83.7472414,16.9161656 C83.9631464,16.7693186 84.0706395,16.5686124 84.0706395,16.3145073 C84.0706395,16.1243888 84.0164336,15.9784625 83.9089405,15.8767284 C83.8014473,15.7749943 83.5915142,15.6875306 83.2796004,15.6129563 L82.3103249,15.3620735 C81.7636719,15.2299573 81.3828523,15.0550298 81.1692442,14.8377516 C80.9551767,14.620013 80.8486023,14.309747 80.8486023,13.9064932 C80.8486023,13.4493802 81.0208669,13.0861757 81.3672336,12.8168795 C81.7126816,12.5475833 82.1862944,12.4131654 82.7876127,12.4131654 C83.4017935,12.4131654 83.8910249,12.55679 84.2543884,12.843579 C84.6172925,13.1303679 84.7992039,13.5152082 84.7992039,13.9990206 L84.7992039,14.0178944 L83.9548777,14.0178944 C83.9355841,13.7444552 83.824416,13.5322406 83.6199953,13.3821713 C83.4155746,13.232102 83.1381138,13.1575276 82.7876127,13.1575276 C82.4371117,13.1575276 82.1711351,13.2187522 81.9887643,13.3412014 C81.8077717,13.4636506 81.7168159,13.6427211 81.7168159,13.8779524 C81.7168159,14.0455145 81.7737781,14.17671 81.8881618,14.2719995 C82.0016268,14.3668285 82.2152349,14.4496889 82.5271486,14.5210409 L83.3664218,14.7194454 C83.9645245,14.8607683 84.3761221,15.0421405 84.6012145,15.2626411 C84.8267663,15.483602 84.9393125,15.7989317 84.9393125,16.2077095 C84.9393125,16.7463018 84.7500511,17.1642863 84.3719877,17.4625836 C83.9943837,17.7604205 83.4661056,17.9100295 82.7876127,17.9100295 C82.1251979,17.9100295 81.6162134,17.7516742 81.2606593,17.4358841 C80.9055645,17.1200941 80.7231937,16.6639018 80.7135469,16.0677676 Z" id="Fill-46" fill="#553982"></path>
                        <path d="M45.2132572,27.1024656 C44.9431463,27.3855718 44.6560386,27.5987071 44.3519342,27.7404904 C44.0482891,27.8818133 43.7258097,27.9531653 43.3849555,27.9531653 C42.8575961,27.9531653 42.4459986,27.8150647 42.1501628,27.5397842 C41.8543271,27.2645036 41.7059498,26.883346 41.7059498,26.3963112 C41.7059498,25.9258485 41.8515708,25.5566596 42.1423535,25.2896651 C42.4340549,25.0217499 42.8768898,24.8495845 43.4717769,24.7722482 C43.6229103,24.7556761 43.8268716,24.73358 44.0845795,24.7045789 C44.5251175,24.659466 44.794769,24.6161945 44.8949122,24.5738437 C44.994596,24.5351755 45.0607456,24.4845386 45.0929016,24.421933 C45.1245983,24.3588671 45.1406764,24.2226078 45.1406764,24.0126949 C45.1406764,23.7489228 45.0446676,23.5509786 44.8517312,23.4188623 C44.6583355,23.2867461 44.3670934,23.2209181 43.9784645,23.2209181 C43.5760544,23.2209181 43.2728687,23.3010165 43.0689074,23.4625942 C42.8649461,23.6232512 42.7625061,23.8617049 42.7625061,24.177495 L41.9425266,24.177495 L41.9425266,24.1392871 C41.9425266,23.6168065 42.1258161,23.2043461 42.4923952,22.9014454 C42.8589742,22.5985448 43.3642838,22.4470945 44.0069456,22.4470945 C44.6983009,22.4470945 45.2072853,22.576909 45.533899,22.8360778 C45.8605127,23.0957069 46.0235899,23.500802 46.0235899,24.0518234 L46.0235899,26.6435113 C46.0235899,26.8653929 46.0474772,27.0090175 46.0961707,27.0730041 C46.1439454,27.1379114 46.2312261,27.1696746 46.3566348,27.1696746 C46.3823596,27.1696746 46.4135969,27.1678332 46.4503467,27.1627695 C46.4875559,27.1581662 46.532115,27.1503405 46.5831053,27.1411338 L46.5831053,27.8132233 C46.4769903,27.8417641 46.3846565,27.8620189 46.3056445,27.8735273 C46.2266324,27.8845753 46.1522141,27.8900993 46.0819302,27.8900993 C45.7920662,27.8900993 45.5752425,27.8274937 45.4305403,27.7018222 C45.285838,27.5761506 45.2132572,27.3855718 45.2132572,27.1314667 L45.2132572,27.1024656 L45.2132572,27.1024656 Z M45.1310295,25.1593902 C44.8995059,25.2850617 44.5026083,25.3831132 43.9398772,25.4535445 C43.7405097,25.4797836 43.5907543,25.5004987 43.4910705,25.5166104 C43.1759411,25.568168 42.9494706,25.661616 42.8107402,25.7969546 C42.6724691,25.9322932 42.6031039,26.1288564 42.6031039,26.3866442 C42.6031039,26.6448923 42.6839534,26.8423761 42.8442743,26.9813974 C43.005514,27.1199583 43.2356595,27.1890086 43.5342515,27.1890086 C44.0005144,27.1890086 44.3836308,27.0716231 44.6822228,26.8359314 C44.9817335,26.6007001 45.1310295,26.3001011 45.1310295,25.9322932 L45.1310295,25.1593902 Z M48.242358,22.6164979 L48.242358,25.7923513 C48.242358,26.3014821 48.3222888,26.6550197 48.4816909,26.8534242 C48.6406337,27.0518287 48.9098259,27.1503405 49.2897268,27.1503405 C49.7913613,27.1503405 50.1703434,27.0030332 50.4285107,26.7084186 C50.6852998,26.4133436 50.813924,25.9792474 50.813924,25.4056696 L50.813924,22.6164979 L51.6821376,22.6164979 L51.6821376,27.7938893 L50.8520519,27.7938893 L50.8520519,27.0205259 C50.6724373,27.3202042 50.4390762,27.5457685 50.1528873,27.6972188 C49.8671577,27.8482088 49.5308972,27.9241641 49.1445651,27.9241641 C48.7844173,27.9241641 48.470666,27.8629396 48.2042301,27.7404904 C47.9373348,27.6180412 47.7333735,27.4440344 47.5918868,27.2184701 C47.5110373,27.0927986 47.452697,26.9450309 47.4177847,26.7756275 C47.3824131,26.6071448 47.3649569,26.3387693 47.3649569,25.9714217 L47.3649569,22.6164979 L48.242358,22.6164979 Z M54.02218,26.4883783 C54.02218,26.7199269 54.0552548,26.8755203 54.120945,26.9519359 C54.1870946,27.0297326 54.3079096,27.0679404 54.4847679,27.0679404 C54.5362176,27.0679404 54.5982328,27.0670198 54.6708137,27.0637974 C54.7433945,27.0605751 54.8371064,27.0541304 54.9528682,27.044003 L54.9528682,27.7842222 C54.808166,27.810001 54.678623,27.8288747 54.5646987,27.8417641 C54.450315,27.8546535 54.3487937,27.8610982 54.2582973,27.8610982 C53.8499154,27.8610982 53.5637265,27.7823809 53.3992712,27.6240255 C53.2357347,27.4665908 53.153507,27.1862466 53.153507,26.7829929 L53.153507,23.3079215 L52.3817616,23.3079215 L52.3817616,22.6164979 L53.153507,22.6164979 L53.153507,21.1705846 L54.02218,21.1705846 L54.02218,22.6164979 L54.9528682,22.6164979 L54.9528682,23.3079215 L54.02218,23.3079215 L54.02218,26.4883783 Z M59.2172211,27.7938893 L59.2172211,24.6079085 C59.2172211,24.0950949 59.1391278,23.7424781 58.98386,23.5491372 C58.827214,23.3557964 58.5594,23.259126 58.1799585,23.259126 C57.71048,23.259126 57.3374697,23.3921629 57.0604682,23.6577764 C56.7843855,23.9238502 56.6456551,24.2824514 56.6456551,24.73358 L56.6456551,27.7938893 L55.7774415,27.7938893 L55.7774415,20.6729621 L56.6456551,20.6729621 L56.6456551,23.3465897 C56.8036791,23.0662455 57.0205029,22.8521896 57.297045,22.7058029 C57.5740465,22.558956 57.8965258,22.4857626 58.2672392,22.4857626 C58.6558682,22.4857626 58.98386,22.5446856 59.2507553,22.6625314 C59.5181099,22.7799169 59.7239087,22.9562253 59.8681516,23.191917 C59.9490011,23.3175886 60.0064227,23.4648959 60.0417943,23.6338389 C60.0776254,23.8032423 60.0955409,24.0711575 60.0955409,24.4385051 L60.0955409,27.7938893 L59.2172211,27.7938893 Z M61.1323441,25.197598 C61.1323441,24.3303263 61.3491678,23.6554747 61.7818965,23.1725829 C62.2137065,22.6887705 62.8209966,22.4470945 63.6023889,22.4470945 C64.3869967,22.4470945 64.9970431,22.6878498 65.4306905,23.1698209 C65.8647973,23.651792 66.0820804,24.3271039 66.0820804,25.197598 C66.0820804,26.0680921 65.8661755,26.7447851 65.4334468,27.2281371 C65.0007181,27.7114892 64.3934279,27.9531653 63.6120357,27.9531653 C62.8274278,27.9531653 62.2178408,27.7128702 61.783734,27.2299785 C61.3496272,26.7484677 61.1323441,26.0713145 61.1323441,25.197598 Z M62.0198514,25.197598 C62.0198514,25.8393055 62.1576631,26.3295626 62.4323677,26.6692901 C62.7075317,27.0094779 63.1007543,27.1798019 63.6120357,27.1798019 C64.1205608,27.1798019 64.5091898,27.0094779 64.77976,26.6692901 C65.0498709,26.3295626 65.184467,25.8393055 65.184467,25.197598 C65.184467,24.5591129 65.0498709,24.0706972 64.77976,23.730049 C64.5091898,23.3907819 64.1205608,23.2204578 63.6120357,23.2204578 C63.0979981,23.2204578 62.7033973,23.3894009 62.4300708,23.7282077 C62.1567443,24.0660938 62.0198514,24.5558906 62.0198514,25.197598 Z M67.1386367,27.7938893 L67.1386367,22.6164979 L67.9779098,22.6164979 L67.9779098,23.5445339 C68.1161809,23.19606 68.3040641,22.9364309 68.5406409,22.7638052 C68.7767582,22.5911794 69.0666221,22.5050967 69.4111513,22.5050967 C69.4750041,22.5050967 69.5218601,22.5060174 69.5503411,22.5073984 C69.579741,22.5092397 69.6091408,22.5133828 69.6376219,22.5198275 L69.6376219,23.4381964 C69.615572,23.4349741 69.5893878,23.4326724 69.559988,23.4308311 C69.5315069,23.4294501 69.4883259,23.4285294 69.4299856,23.4285294 C68.9669383,23.4285294 68.6136811,23.5551216 68.3711325,23.8073854 C68.1285839,24.0605698 68.0068503,24.428838 68.0068503,24.9121901 L68.0068503,27.7938893 L67.1386367,27.7938893 Z M70.4190141,20.6729621 L71.2872277,20.6729621 L71.2872277,21.6636038 L70.4190141,21.6636038 L70.4190141,20.6729621 Z M70.4190141,22.6160375 L71.2872277,22.6160375 L71.2872277,27.7934289 L70.4190141,27.7934289 L70.4190141,22.6160375 Z M73.6318638,26.4883783 C73.6318638,26.7199269 73.6649386,26.8755203 73.7306289,26.9519359 C73.7967785,27.0297326 73.9175934,27.0679404 74.0949111,27.0679404 C74.1459014,27.0679404 74.2079167,27.0670198 74.2804975,27.0637974 C74.3530783,27.0605751 74.4472496,27.0541304 74.5630114,27.044003 L74.5630114,27.7842222 C74.4183092,27.810001 74.2887662,27.8288747 74.1748419,27.8417641 C74.0599988,27.8546535 73.9584775,27.8610982 73.8679812,27.8610982 C73.4595992,27.8610982 73.1734103,27.7823809 73.0094144,27.6240255 C72.8454185,27.4665908 72.7631909,27.1862466 72.7631909,26.7829929 L72.7631909,23.3079215 L71.9914454,23.3079215 L71.9914454,22.6164979 L72.7631909,22.6164979 L72.7631909,21.1705846 L73.6318638,21.1705846 L73.6318638,22.6164979 L74.5630114,22.6164979 L74.5630114,23.3079215 L73.6318638,23.3079215 L73.6318638,26.4883783 Z M78.6583153,22.6164979 L79.6275908,22.6164979 L77.4524631,28.5962537 C77.2462049,29.1601645 77.0385687,29.5293534 76.8300136,29.7033602 C76.6209993,29.8769066 76.3187323,29.9643703 75.9232128,29.9643703 C75.8363914,29.9643703 75.7500294,29.9565446 75.6650455,29.9422742 C75.5796023,29.9280038 75.4936997,29.9072887 75.4068783,29.8819703 L75.4068783,29.0501444 C75.4936997,29.0763835 75.5786836,29.0957175 75.6622893,29.1081466 C75.7463544,29.121036 75.8299602,29.1274807 75.9131066,29.1274807 C76.0807775,29.1274807 76.2158329,29.0938762 76.3187323,29.0266672 C76.4216317,28.9585376 76.5001843,28.8508192 76.5548496,28.7025912 L76.7817796,28.0880435 L74.8234755,22.6164979 L75.792751,22.6164979 L77.2255332,26.802327 L78.6583153,22.6164979 Z" id="Fill-55" fill="#553982"></path>
                        <path d="M31.415092,8.2894816 C31.415092,12.5986806 27.9284564,15.008536 23.6282725,15.008536 C19.3271699,15.008536 15.8405343,12.5986806 15.8405343,8.2894816 C15.8405343,3.97890163 19.3271699,0.485416857 23.6282725,0.485416857 C27.9284564,0.485416857 31.415092,3.97890163 31.415092,8.2894816 Z M36.2734133,11.7576479 C35.1938884,12.5848705 25.2765003,20.1873084 25.2765003,20.1873084 C24.4960268,20.9694181 23.2299968,20.9694181 22.4495233,20.1873084 C22.4495233,20.1873084 12.1021627,12.1632033 10.9831318,11.2871852 C9.48052509,10.0272474 8.14007678,11.5431317 8.14007678,11.5431317 C7.35960328,12.326162 7.35960328,13.5934652 8.14007678,14.3769559 L21.9791261,28.2436369 C22.7595996,29.0266672 24.0256296,29.0266672 24.8061031,28.2436369 L38.644693,14.3769559 C39.4256258,13.5934652 39.4256258,12.326162 38.644693,11.5431317 C38.644693,11.5431317 37.35156,10.9304253 36.2734133,11.7576479 Z" id="Fill-64" fill="#553982"></path>
                        <path d="M14.6870505,43.534135 C14.4169396,43.8181619 14.1298319,44.0308368 13.8257275,44.1726201 C13.521623,44.3144033 13.1996031,44.385295 12.8587488,44.385295 C12.3309301,44.385295 11.9197919,44.2471944 11.6234968,43.9719139 C11.327661,43.696173 11.1797432,43.3150154 11.1797432,42.8284409 C11.1797432,42.3579782 11.3253642,41.9892496 11.6161468,41.7213345 C11.9073888,41.4538796 12.3502237,41.2812539 12.9455702,41.2039176 C13.0967037,41.1882662 13.300665,41.1652494 13.5579134,41.1362483 C13.9984515,41.0911354 14.2685624,41.0478639 14.3682461,41.0059734 C14.4679299,40.9673052 14.5340795,40.9166683 14.5662356,40.8536024 C14.5983917,40.7909968 14.6144697,40.6547375 14.6144697,40.4452849 C14.6144697,40.1810525 14.5184609,39.9826479 14.3250651,39.850992 C14.1321288,39.7188758 13.8404274,39.6525875 13.4517984,39.6525875 C13.0493883,39.6525875 12.746662,39.7326859 12.5427007,39.8942636 C12.3387394,40.0553809 12.2362994,40.2938346 12.2362994,40.6091643 L11.4158605,40.6091643 L11.4158605,40.5709565 C11.4158605,40.0484759 11.5996094,39.6364758 11.9661885,39.3331148 C12.3323082,39.0306745 12.8376177,38.8787638 13.4807389,38.8787638 C14.1720942,38.8787638 14.6810787,39.0085784 15.0076924,39.2677472 C15.334306,39.5273763 15.4969238,39.9324714 15.4969238,40.4834928 L15.4969238,43.0751807 C15.4969238,43.2970623 15.5212706,43.4406869 15.5695046,43.5051338 C15.6177387,43.5700411 15.7045601,43.6018043 15.8299687,43.6018043 C15.856153,43.6018043 15.8873903,43.5995026 15.92414,43.5944389 C15.9613492,43.5898355 16.0054489,43.5829305 16.0568986,43.5732635 L16.0568986,44.2448927 C15.9507836,44.2738938 15.8584498,44.2936883 15.7794378,44.3051966 C15.7008851,44.316705 15.6255481,44.3217687 15.5557235,44.3217687 C15.2654002,44.3217687 15.0485765,44.2596234 14.9038742,44.1330312 C14.7596313,44.0073597 14.6870505,43.8181619 14.6870505,43.5631361 L14.6870505,43.534135 L14.6870505,43.534135 Z M14.6048229,41.5905992 C14.3732992,41.7162708 13.9759422,41.8147825 13.4136705,41.8856742 C13.2138436,41.911453 13.0645476,41.932168 12.9648638,41.9482798 C12.6492751,42.0002977 12.4228045,42.0932854 12.2845335,42.2290843 C12.1462624,42.3644229 12.0768972,42.5609861 12.0768972,42.8187739 C12.0768972,43.0765617 12.1577467,43.2749662 12.3180677,43.4130668 C12.478848,43.5516277 12.7089935,43.6211383 13.0080448,43.6211383 C13.4738483,43.6211383 13.8569648,43.5037528 14.1560161,43.2685215 C14.4555269,43.0332901 14.6048229,42.7313102 14.6048229,42.3644229 L14.6048229,41.5905992 Z M20.287258,40.7689007 C20.2615331,40.4149028 20.1338276,40.1414636 19.9041415,39.9495038 C19.6735366,39.7580043 19.3597853,39.6617942 18.9605908,39.6617942 C18.4911123,39.6617942 18.129127,39.8311976 17.8727973,40.1700044 C17.6173863,40.5078906 17.4892214,40.9912426 17.4892214,41.6196004 C17.4892214,42.2516408 17.6123332,42.7382152 17.8585567,43.079784 C18.1043209,43.4213528 18.4525251,43.5925976 18.9031693,43.5925976 C19.3078763,43.5925976 19.6321931,43.4876411 19.8747416,43.2781885 C20.1177496,43.0682756 20.2679643,42.7635336 20.3258452,42.3644229 L21.1559309,42.3644229 C21.1104531,42.9996857 20.8871981,43.4945461 20.4852474,43.8503853 C20.0828373,44.2071452 19.5426155,44.385295 18.864582,44.385295 C18.1566893,44.385295 17.6013082,44.1417776 17.19752,43.6552032 C16.7941911,43.1686287 16.591608,42.5016028 16.591608,41.6541255 C16.591608,40.7868538 16.8029192,40.1078592 17.2241636,39.6157607 C17.645408,39.1245829 18.2246764,38.8787638 18.9605908,38.8787638 C19.6106026,38.8787638 20.130612,39.0486276 20.5215378,39.3888154 C20.9120043,39.7285429 21.1200999,40.1888782 21.1462841,40.7689007 L20.287258,40.7689007 Z M25.473571,40.7689007 C25.4478461,40.4149028 25.3196813,40.1414636 25.0899951,39.9495038 C24.8598496,39.7580043 24.545639,39.6617942 24.1469038,39.6617942 C23.676966,39.6617942 23.3149806,39.8311976 23.0591103,40.1700044 C22.8032399,40.5078906 22.6755344,40.9912426 22.6755344,41.6196004 C22.6755344,42.2516408 22.7986462,42.7382152 23.0444104,43.079784 C23.2901745,43.4213528 23.6388381,43.5925976 24.0890229,43.5925976 C24.4941893,43.5925976 24.8180467,43.4876411 25.0610547,43.2781885 C25.3036032,43.0682756 25.4542773,42.7635336 25.5116989,42.3644229 L26.342244,42.3644229 C26.2963067,42.9996857 26.0730518,43.4945461 25.6715604,43.8503853 C25.2691503,44.2071452 24.7284691,44.385295 24.0504357,44.385295 C23.3430024,44.385295 22.7876213,44.1417776 22.3833737,43.6552032 C21.9805042,43.1686287 21.777921,42.5016028 21.777921,41.6541255 C21.777921,40.7868538 21.9887729,40.1078592 22.4100173,39.6157607 C22.831721,39.1245829 23.4105301,38.8787638 24.1469038,38.8787638 C24.7964562,38.8787638 25.3164657,39.0486276 25.7078508,39.3888154 C26.0978579,39.7285429 26.3059536,40.1888782 26.3321378,40.7689007 L25.473571,40.7689007 Z M27.2297512,44.2255586 L27.2297512,39.0481672 L28.0690244,39.0481672 L28.0690244,39.9762033 C28.2072954,39.6281897 28.3951787,39.3681003 28.631296,39.1954745 C28.8674134,39.0233091 29.1577367,38.9367661 29.5018065,38.9367661 C29.5661186,38.9367661 29.6129746,38.9376868 29.6414557,38.9390678 C29.6703961,38.9409091 29.6997959,38.9450521 29.728277,38.9514968 L29.728277,39.8698658 C29.7062272,39.8666434 29.6800429,39.8643418 29.6511025,39.8625004 C29.6226214,39.8611194 29.5794404,39.8601988 29.5206408,39.8601988 C29.0580529,39.8601988 28.7047956,39.986791 28.4617877,40.2399754 C28.2192391,40.4931598 28.0979648,40.8609677 28.0979648,41.3443198 L28.0979648,44.2255586 L27.2297512,44.2255586 Z M33.9884955,42.5531604 L34.8470623,42.5531604 C34.7533504,43.1235159 34.5057487,43.5732635 34.1042574,43.9014826 C33.7018472,44.230162 33.1951596,44.3945017 32.5846539,44.3945017 C31.8675737,44.3945017 31.3016271,44.1528256 30.8858952,43.6694736 C30.471082,43.1861215 30.2643645,42.5269213 30.2643645,41.6927937 C30.2643645,40.8094102 30.4697039,40.1193675 30.8817608,39.6231261 C31.2933584,39.1268846 31.8611425,38.8787638 32.5846539,38.8787638 C33.3274588,38.8787638 33.9021336,39.1075505 34.3091374,39.5651238 C34.7156819,40.0231575 34.9196432,40.6690079 34.9196432,41.5035959 C34.9196432,41.6103937 34.918265,41.6895713 34.9168869,41.7406685 C34.9150494,41.7922261 34.9113745,41.8419423 34.9049432,41.8907379 L31.1757591,41.8907379 C31.1858653,42.4357749 31.3204613,42.8565214 31.5809254,43.1543583 C31.8418489,43.4526556 32.2033749,43.6018043 32.6664221,43.6018043 C33.0201388,43.6018043 33.3118402,43.5111182 33.5419857,43.3288254 C33.7721312,43.1465326 33.9205084,42.8882845 33.9884955,42.5531604 Z M31.1711654,41.1652494 L34.0077892,41.1652494 C34.0045736,40.6818973 33.8823805,40.3085654 33.6402914,40.0461742 C33.3995803,39.7837831 33.0568886,39.6525875 32.6131349,39.6525875 C32.1854593,39.6525875 31.8487395,39.7814814 31.6025159,40.0388089 C31.3567518,40.297057 31.2125089,40.6722303 31.1711654,41.1652494 Z M40.4284355,37.1050918 L40.4284355,44.2250983 L39.5882436,44.2250983 L39.5882436,43.5732635 C39.3663668,43.8434803 39.1160089,44.0464882 38.8362512,44.1818268 C38.5560341,44.3176257 38.2473359,44.385295 37.9096973,44.385295 C37.2215576,44.385295 36.6721484,44.1376346 36.261929,43.6432344 C35.8526283,43.1479136 35.6472888,42.4854911 35.6472888,41.6536652 C35.6472888,40.8061878 35.8526283,40.1317966 36.2651446,39.6304914 C36.6767421,39.1296466 37.2247732,38.8787638 37.9096973,38.8787638 C38.2703046,38.8787638 38.5891089,38.9455125 38.8670291,39.07947 C39.1454087,39.2134276 39.3856604,39.4141338 39.5882436,39.6811283 L39.5882436,37.1050918 L40.4284355,37.1050918 Z M39.6176434,41.6002663 C39.6176434,40.9594795 39.4881005,40.4756671 39.2294739,40.15021 C38.9703879,39.8247529 38.5868121,39.6622546 38.0787463,39.6622546 C37.5899742,39.6622546 37.2119108,39.839944 36.9450155,40.1957832 C36.6776609,40.5520827 36.5444429,41.0575309 36.5444429,41.7116674 C36.5444429,42.301357 36.6817952,42.765375 36.9574186,43.1037214 C37.2316638,43.4420679 37.6092678,43.6114713 38.0883931,43.6114713 C38.5739496,43.6114713 38.9506349,43.4374646 39.2170708,43.089451 C39.4839661,42.7409772 39.6176434,42.2451961 39.6176434,41.6002663 Z M41.7840431,37.1050918 L42.6522567,37.1050918 L42.6522567,38.0957335 L41.7840431,38.0957335 L41.7840431,37.1050918 Z M41.7840431,39.0481672 L42.6522567,39.0481672 L42.6522567,44.2250983 L41.7840431,44.2250983 L41.7840431,39.0481672 Z M44.9964335,42.920508 C44.9964335,43.152517 45.0295083,43.3071897 45.0951985,43.3840657 C45.1613481,43.4618623 45.282163,43.5005305 45.4594807,43.5005305 C45.510471,43.5005305 45.5724863,43.4991495 45.6450671,43.4959271 C45.7176479,43.4927048 45.8118193,43.4862601 45.9275811,43.4765931 L45.9275811,44.2158916 C45.7828788,44.24121 45.6533358,44.2610044 45.5389521,44.2738938 C45.4245684,44.2867832 45.3230472,44.2932279 45.2325508,44.2932279 C44.8241689,44.2932279 44.5379799,44.2140502 44.373984,44.0561552 C44.2099881,43.8982602 44.1277605,43.6183763 44.1277605,43.2151226 L44.1277605,39.7395909 L43.3560151,39.7395909 L43.3560151,39.0481672 L44.1277605,39.0481672 L44.1277605,37.6027143 L44.9964335,37.6027143 L44.9964335,39.0481672 L45.9275811,39.0481672 L45.9275811,39.7395909 L44.9964335,39.7395909 L44.9964335,42.920508 Z M50.2309806,42.5531604 L51.0895474,42.5531604 C50.9958354,43.1235159 50.7482338,43.5732635 50.3467424,43.9014826 C49.9443323,44.230162 49.4376447,44.3945017 48.8271389,44.3945017 C48.1100588,44.3945017 47.5441121,44.1528256 47.1283802,43.6694736 C46.713567,43.1861215 46.5068495,42.5269213 46.5068495,41.6927937 C46.5068495,40.8094102 46.7121889,40.1193675 47.1242459,39.6231261 C47.5358434,39.1268846 48.1036276,38.8787638 48.8271389,38.8787638 C49.5699439,38.8787638 50.1446186,39.1075505 50.5516224,39.5651238 C50.9581669,40.0231575 51.1621282,40.6690079 51.1621282,41.5035959 C51.1621282,41.6103937 51.1607501,41.6895713 51.159372,41.7406685 C51.1575345,41.7922261 51.1538595,41.8419423 51.1474283,41.8907379 L47.4187035,41.8907379 C47.4283503,42.4357749 47.5629464,42.8565214 47.8234105,43.1543583 C48.0843339,43.4526556 48.4458599,43.6018043 48.9089072,43.6018043 C49.2630832,43.6018043 49.5543252,43.5111182 49.7844707,43.3288254 C50.0146162,43.1465326 50.1634529,42.8882845 50.2309806,42.5531604 Z M47.4136504,41.1652494 L50.2502742,41.1652494 C50.2470586,40.6818973 50.1248656,40.3085654 49.8832358,40.0461742 C49.6420653,39.7837831 49.2993736,39.6525875 48.85562,39.6525875 C48.4279444,39.6525875 48.0912245,39.7814814 47.845001,40.0388089 C47.5992368,40.297057 47.4549939,40.6722303 47.4136504,41.1652494 Z M56.6713799,37.1050918 L56.6713799,44.2250983 L55.8316474,44.2250983 L55.8316474,43.5732635 C55.6097706,43.8434803 55.3589533,44.0464882 55.079655,44.1818268 C54.7994379,44.3176257 54.4902803,44.385295 54.1526417,44.385295 C53.4645021,44.385295 52.9155522,44.1376346 52.5053327,43.6432344 C52.0955727,43.1479136 51.8902333,42.4854911 51.8902333,41.6536652 C51.8902333,40.8061878 52.096032,40.1317966 52.508089,39.6304914 C52.9196865,39.1296466 53.4677177,38.8787638 54.1526417,38.8787638 C54.513249,38.8787638 54.8320533,38.9455125 55.1099736,39.07947 C55.3888125,39.2134276 55.6286049,39.4141338 55.8316474,39.6811283 L55.8316474,37.1050918 L56.6713799,37.1050918 Z M55.8610472,41.6002663 C55.8610472,40.9594795 55.7310449,40.4756671 55.4724183,40.15021 C55.2133323,39.8247529 54.8297565,39.6622546 54.3216907,39.6622546 C53.8329186,39.6622546 53.4548552,39.839944 53.1884193,40.1957832 C52.9210646,40.5520827 52.7873873,41.0575309 52.7873873,41.7116674 C52.7873873,42.301357 52.925199,42.765375 53.200363,43.1037214 C53.4750676,43.4420679 53.8522123,43.6114713 54.3313375,43.6114713 C54.816894,43.6114713 55.1935793,43.4374646 55.4600152,43.089451 C55.7269105,42.7409772 55.8610472,42.2451961 55.8610472,41.6002663 Z M60.7326902,44.2255586 L60.7326902,39.0481672 L61.5719634,39.0481672 L61.5719634,39.9762033 C61.7102345,39.6281897 61.8981177,39.3681003 62.1342351,39.1954745 C62.3708118,39.0233091 62.6606757,38.9367661 63.0047455,38.9367661 C63.0690577,38.9367661 63.1159136,38.9376868 63.1443947,38.9390678 C63.1733352,38.9409091 63.202735,38.9450521 63.2316754,38.9514968 L63.2316754,39.8698658 C63.2091662,39.8666434 63.182982,39.8643418 63.1540415,39.8625004 C63.1255604,39.8611194 63.0823795,39.8601988 63.0240392,39.8601988 C62.5609919,39.8601988 62.2077346,39.986791 61.9651861,40.2399754 C61.7221781,40.4931598 61.6009039,40.8609677 61.6009039,41.3443198 L61.6009039,44.2255586 L60.7326902,44.2255586 Z M67.4914346,42.5531604 L68.3500014,42.5531604 C68.2562894,43.1235159 68.0086878,43.5732635 67.6071964,43.9014826 C67.2047863,44.230162 66.698558,44.3945017 66.0875929,44.3945017 C65.3705128,44.3945017 64.8045661,44.1528256 64.3888342,43.6694736 C63.974021,43.1861215 63.7673035,42.5269213 63.7673035,41.6927937 C63.7673035,40.8094102 63.9726429,40.1193675 64.3846999,39.6231261 C64.7962974,39.1268846 65.3640816,38.8787638 66.0875929,38.8787638 C66.8303979,38.8787638 67.4050726,39.1075505 67.8120764,39.5651238 C68.2186209,40.0231575 68.4225822,40.6690079 68.4225822,41.5035959 C68.4225822,41.6103937 68.4212041,41.6895713 68.419826,41.7406685 C68.4179885,41.7922261 68.4143135,41.8419423 68.4078823,41.8907379 L64.6791575,41.8907379 C64.6888043,42.4357749 64.8234004,42.8565214 65.0838645,43.1543583 C65.3447879,43.4526556 65.7063139,43.6018043 66.1693612,43.6018043 C66.5235372,43.6018043 66.8147792,43.5111182 67.0449247,43.3288254 C67.2750702,43.1465326 67.4239069,42.8882845 67.4914346,42.5531604 Z M64.6741044,41.1652494 L67.5107282,41.1652494 C67.5075126,40.6818973 67.3853196,40.3085654 67.1436898,40.0461742 C66.9025193,39.7837831 66.5598276,39.6525875 66.116074,39.6525875 C65.6888578,39.6525875 65.3516785,39.7814814 65.105455,40.0388089 C64.8596908,40.297057 64.7154479,40.6722303 64.6741044,41.1652494 Z M73.1306887,43.5925976 C72.9281055,43.8600524 72.6910694,44.0602982 72.419121,44.1937955 C72.1471726,44.3277531 71.8375557,44.394962 71.4907296,44.394962 C70.7924838,44.394962 70.2311309,44.1408569 69.8066709,43.6335674 C69.3826703,43.1258175 69.1704403,42.455109 69.1704403,41.6196004 C69.1704403,40.7951398 69.3831296,40.1317966 69.8094271,39.6304914 C70.2357246,39.1291863 70.798915,38.8787638 71.5003765,38.8787638 C71.8407713,38.8787638 72.1412008,38.9441315 72.4002868,39.0744064 C72.6589134,39.2051416 72.8996244,39.4136735 73.1210419,39.7004624 L73.1210419,39.0481672 L73.9699618,39.0481672 L73.9699618,44.1141575 C73.9699618,44.9132996 73.7802411,45.4910204 73.401259,45.84732 C73.0218175,46.2036195 72.4085555,46.3813089 71.5633105,46.3813089 C70.877927,46.3813089 70.3427583,46.2478117 69.9568856,45.9803569 C69.5705535,45.7124417 69.3771578,45.3418718 69.3771578,44.8686471 L69.3771578,44.8299789 L70.2269965,44.8299789 L70.2269965,44.8488527 C70.2269965,45.1167678 70.3395427,45.3170137 70.5664726,45.4509713 C70.7934025,45.5849288 71.1351755,45.6516775 71.5917915,45.6516775 C72.1384446,45.6516775 72.5316672,45.546721 72.7710002,45.3372684 C73.0107925,45.1278159 73.1306887,44.7825644 73.1306887,44.302895 L73.1306887,43.5925976 Z M71.6014384,39.6617942 C71.1126663,39.6617942 70.735981,39.833039 70.4723013,40.1746078 C70.209081,40.5161766 70.0772411,41.004132 70.0772411,41.6389344 C70.0772411,42.2613078 70.2122966,42.7455806 70.4819481,43.0922131 C70.7525184,43.4383852 71.1287443,43.6119316 71.6110852,43.6119316 C72.1384446,43.6119316 72.5284516,43.453116 72.7811064,43.1354846 C73.0333018,42.8178532 73.1600885,42.3308184 73.1600885,41.6729993 C73.1600885,41.0091957 73.0282487,40.5078906 72.7668658,40.1700044 C72.5041049,39.8311976 72.1163947,39.6617942 71.6014384,39.6617942 Z M75.2970883,37.1050918 L76.165302,37.1050918 L76.165302,38.0957335 L75.2970883,38.0957335 L75.2970883,37.1050918 Z M75.2970883,39.0481672 L76.165302,39.0481672 L76.165302,44.2250983 L75.2970883,44.2250983 L75.2970883,39.0481672 Z M77.1396306,42.543033 L77.9738506,42.543033 C78.0060067,42.8947292 78.1323341,43.1603427 78.3528327,43.3407941 C78.5728721,43.5212456 78.8857046,43.6119316 79.2913303,43.6119316 C79.6643406,43.6119316 79.9587982,43.5387383 80.1733251,43.391431 C80.3892301,43.2450444 80.4967232,43.0443382 80.4967232,42.7897728 C80.4967232,42.5996543 80.4429766,42.453728 80.3350241,42.3524542 C80.227531,42.2502598 80.0180573,42.162796 79.7056841,42.0882217 L78.7364086,41.837339 C78.1897556,41.7052227 77.808936,41.5302953 77.5953279,41.313017 C77.3812604,41.0952784 77.274686,40.7850124 77.274686,40.3817587 C77.274686,39.9246457 77.44741,39.5614411 77.7933173,39.292145 C78.1387653,39.0233091 78.6123781,38.8884309 79.2136964,38.8884309 C79.8278771,38.8884309 80.3171086,39.0325158 80.6804721,39.3188444 C81.0438356,39.6056333 81.2252876,39.990934 81.2252876,40.4742861 L81.2252876,40.4931598 L80.3809614,40.4931598 C80.3616677,40.2197206 80.2504996,40.0079664 80.046079,39.8574367 C79.8416583,39.7078278 79.5641974,39.6332534 79.2136964,39.6332534 C78.8631954,39.6332534 78.5972188,39.694478 78.414848,39.8164669 C78.2338553,39.9393764 78.143359,40.1179865 78.143359,40.3532179 C78.143359,40.5207799 78.1998618,40.6519755 78.3142455,40.7472649 C78.4281698,40.842094 78.6413185,40.9249544 78.9532323,40.9963063 L79.7925055,41.1947109 C80.3906082,41.3364941 80.8026651,41.5174059 81.0277575,41.7383669 C81.2528499,41.9588675 81.3653962,42.2741972 81.3653962,42.6834353 C81.3653962,43.2220276 81.1761348,43.6400121 80.7980714,43.937849 C80.4204674,44.2361463 79.8926486,44.385295 79.2136964,44.385295 C78.5512816,44.385295 78.0422971,44.2269396 77.6867429,43.9111496 C77.3316482,43.5953596 77.1492774,43.1396276 77.1396306,42.543033 Z M83.4105215,42.920508 C83.4105215,43.152517 83.4435963,43.3071897 83.509746,43.3840657 C83.5754362,43.4618623 83.6967105,43.5005305 83.8735688,43.5005305 C83.9250185,43.5005305 83.9870337,43.4991495 84.0596146,43.4959271 C84.1321954,43.4927048 84.2259073,43.4862601 84.3416691,43.4765931 L84.3416691,44.2158916 C84.1969669,44.24121 84.0674239,44.2610044 83.9534996,44.2738938 C83.8391159,44.2867832 83.7371352,44.2932279 83.6470983,44.2932279 C83.2387163,44.2932279 82.9525274,44.2140502 82.7880721,44.0561552 C82.6245356,43.8982602 82.5423079,43.6183763 82.5423079,43.2151226 L82.5423079,39.7395909 L81.7705625,39.7395909 L81.7705625,39.0481672 L82.5423079,39.0481672 L82.5423079,37.6027143 L83.4105215,37.6027143 L83.4105215,39.0481672 L84.3416691,39.0481672 L84.3416691,39.7395909 L83.4105215,39.7395909 L83.4105215,42.920508 Z M88.645528,42.5531604 L89.5036354,42.5531604 C89.4103829,43.1235159 89.1627812,43.5732635 88.7612898,43.9014826 C88.3584204,44.230162 87.8521921,44.3945017 87.241227,44.3945017 C86.5241468,44.3945017 85.9582002,44.1528256 85.5429277,43.6694736 C85.1281145,43.1861215 84.9209376,42.5269213 84.9209376,41.6927937 C84.9209376,40.8094102 85.126277,40.1193675 85.5383339,39.6231261 C85.9503909,39.1268846 86.5177156,38.8787638 87.241227,38.8787638 C87.9844913,38.8787638 88.559166,39.1075505 88.9657105,39.5651238 C89.372255,40.0231575 89.5762163,40.6690079 89.5762163,41.5035959 C89.5762163,41.6103937 89.5752975,41.6895713 89.57346,41.7406685 C89.5720819,41.7922261 89.5684069,41.8419423 89.5619757,41.8907379 L85.8327916,41.8907379 C85.8424384,42.4357749 85.9770345,42.8565214 86.2374985,43.1543583 C86.498422,43.4526556 86.8604074,43.6018043 87.3229952,43.6018043 C87.6771713,43.6018043 87.9688727,43.5111182 88.1990182,43.3288254 C88.4287043,43.1465326 88.5775409,42.8882845 88.645528,42.5531604 Z M85.8281978,41.1652494 L88.6648217,41.1652494 C88.6616061,40.6818973 88.539413,40.3085654 88.2973238,40.0461742 C88.0561534,39.7837831 87.713921,39.6525875 87.2697081,39.6525875 C86.8424918,39.6525875 86.5053126,39.7814814 86.2595484,40.0388089 C86.0133249,40.297057 85.8695413,40.6722303 85.8281978,41.1652494 Z M90.5698385,44.2255586 L90.5698385,39.0481672 L91.4086523,39.0481672 L91.4086523,39.9762033 C91.5469233,39.6281897 91.7348066,39.3681003 91.9713833,39.1954745 C92.2075007,39.0233091 92.4973646,38.9367661 92.8418938,38.9367661 C92.9057465,38.9367661 92.9526025,38.9376868 92.981543,38.9390678 C93.0104834,38.9409091 93.0398832,38.9450521 93.0683643,38.9514968 L93.0683643,39.8698658 C93.0463145,39.8666434 93.0201302,39.8643418 92.9907304,39.8625004 C92.9622493,39.8611194 92.9190683,39.8601988 92.8607281,39.8601988 C92.3976808,39.8601988 92.0444235,39.986791 91.801875,40.2399754 C91.5593264,40.4931598 91.4375927,40.8609677 91.4375927,41.3443198 L91.4375927,44.2255586 L90.5698385,44.2255586 Z" id="Fill-66" fill="#FFFFFF"></path>
                        <path d="M96.1809178,2.39740134 L96.4683827,2.39740134 L96.4683827,0.437412947 L97.1413121,0.437412947 L97.1413121,0.195681046 L95.5112551,0.195681046 L95.5112551,0.437412947 L96.1809178,0.437412947 L96.1809178,2.39740134 Z M99.2972993,2.39740134 L99.5749643,2.39740134 L99.4377651,0.195681046 L99.0751673,0.195681046 L98.6831696,1.26060807 C98.5851702,1.53827309 98.5067707,1.78000499 98.4512377,2.00213701 L98.4414377,2.00213701 C98.3859047,1.7734717 98.3107718,1.5317398 98.2193057,1.26060807 L97.8436413,0.195681046 L97.4810434,0.195681046 L97.327511,2.39740134 L97.5986427,2.39740134 L97.6574424,1.45334026 C97.6770422,1.12340888 97.6933755,0.754277737 97.6999088,0.479879362 L97.7064421,0.479879362 C97.7685084,0.741211148 97.8567078,1.02540946 97.9612406,1.33574096 L98.3173051,2.38433475 L98.5329038,2.38433475 L98.9216349,1.31614108 C99.0327009,1.01234287 99.124167,0.7379445 99.1992999,0.479879362 L99.2090998,0.479879362 C99.2058332,0.754277737 99.2254331,1.12340888 99.2417663,1.43047373 L99.2972993,2.39740134 Z" id="TM" fill="#553982"></path>
                    </g>
                    <g id="ncs-logo">
                        <path d="M30.2424704,12.8872735 L30.2424704,14.1649994 L30.7858657,14.1649994 L30.7858657,14.7083947 L29.6990751,14.7083947 L29.6990751,10.0162415 L30.7858657,10.0162415 L30.7858657,10.5596368 L30.2424704,10.5596368 L30.2424704,11.8373628 L34.2250353,11.8373628 L34.2250353,11.3341152 L34.7273491,11.3341152 L34.7273491,13.390521 L34.2250353,13.390521 L34.2250353,12.8872735 L30.2424704,12.8872735 Z M32.3586311,8.06067194 L34.2250353,8.06067194 L34.2250353,7.55789122 L34.7273491,7.55789122 L34.7273491,9.61336338 L34.2250353,9.61336338 L34.2250353,9.11104949 L30.201389,9.11104949 L30.201389,9.61336338 L29.6990751,9.61336338 L29.6990751,7.55789122 L30.201389,7.55789122 L30.201389,8.06067194 L31.856784,8.06067194 L31.856784,6.03227618 L30.201389,6.03227618 L30.201389,6.53552374 L29.6990751,6.53552374 L29.6990751,4.48005158 L30.201389,4.48005158 L30.201389,4.9828323 L34.2250353,4.9828323 L34.2250353,4.48005158 L34.7273491,4.48005158 L34.7273491,6.53552374 L34.2250353,6.53552374 L34.2250353,6.03227618 L32.3586311,6.03227618 L32.3586311,8.06067194 Z M34.7273491,0.193110674 L34.7273491,4.00201309 L34.2250353,4.00201309 L34.2250353,3.49923237 L30.201389,3.49923237 L30.201389,4.00201309 L29.6990751,4.00201309 L29.6990751,0.353234896 L30.7037029,0.353234896 L30.7037029,0.89709705 L30.201389,0.89709705 L30.201389,2.44932165 L31.8768579,2.44932165 L31.8768579,1.39941094 L31.5398034,1.39941094 L31.5398034,0.89709705 L32.7157594,0.89709705 L32.7157594,1.39941094 L32.3791718,1.39941094 L32.3791718,2.44932165 L34.1839538,2.44932165 L34.1839538,0.737439662 L33.6368238,0.737439662 L33.6368238,0.193110674 L34.7273491,0.193110674 Z" id="Fill-1" fill="#068A49"></path>
                        <path d="M47.4677286,14.3825443 L40.98013,5.11541329 L40.98013,12.9446941 L42.285866,12.9446941 L42.285866,14.2504301 L37.8831501,14.2504301 L37.8831501,12.9446941 L39.1888861,12.9446941 L39.1888861,2.49833927 L37.8831501,2.49833927 L37.8831501,1.19260327 L41.0510888,1.19260327 L47.5442894,10.5180886 L47.5442894,2.49833927 L46.2385534,2.49833927 L46.2385534,1.19260327 L50.6417361,1.19260327 L50.6417361,2.49833927 L49.3360001,2.49833927 L49.3360001,14.3825443 L47.4677286,14.3825443 Z M55.3689019,9.10638115 L59.5279302,9.10638115 L57.4439811,3.85636073 L55.3689019,9.10638115 Z M54.8325091,10.4648694 L53.8526236,12.9446941 L55.1630279,12.9446941 L55.1630279,14.2504301 L51.6248895,14.2504301 L51.6248895,12.9446941 L52.3970337,12.9446941 L57.1069266,1.02454286 L59.1474601,1.02454286 L63.8522178,12.9446941 L64.6210942,12.9446941 L64.6210942,14.2504301 L59.7417404,14.2504301 L59.7417404,12.9446941 L61.0521447,12.9446941 L60.0685245,10.4648694 L54.8325091,10.4648694 Z M69.2763675,2.60431069 L65.958575,2.60431069 L65.958575,4.01601812 L64.5468675,4.01601812 L64.5468675,1.19260327 L76.7321808,1.19260327 L76.7321808,4.01601812 L75.3204734,4.01601812 L75.3204734,2.60431069 L72.0031476,2.60431069 L72.0031476,12.9446941 L73.3088836,12.9446941 L73.3088836,14.2504301 L67.9701647,14.2504301 L67.9701647,12.9446941 L69.2763675,12.9446941 L69.2763675,2.60431069 Z M81.8099393,2.49833927 L81.8099393,12.9446941 L83.1161421,12.9446941 L83.1161421,14.2504301 L77.7774232,14.2504301 L77.7774232,12.9446941 L79.0831592,12.9446941 L79.0831592,2.49833927 L77.7774232,2.49833927 L77.7774232,1.19260327 L83.1161421,1.19260327 L83.1161421,2.49833927 L81.8099393,2.49833927 Z M91.0691341,13.2705446 C92.1783328,13.2705446 93.0681193,12.7626287 93.7366262,11.7486642 C94.4056,10.7342329 94.7398535,9.39115017 94.7398535,7.72128328 C94.7398535,6.04441388 94.4056,4.70133112 93.7366262,3.68876716 C93.0681193,2.67760371 92.1783328,2.17155514 91.0691341,2.17155514 C89.9664711,2.17155514 89.0799524,2.67760371 88.4114455,3.68876716 C87.7424717,4.70133112 87.408685,6.04441388 87.408685,7.72128328 C87.408685,9.39675218 87.7424717,10.7417023 88.4114455,11.7528657 C89.0799524,12.764496 89.9664711,13.2705446 91.0691341,13.2705446 Z M91.0691341,14.5762806 C89.0402715,14.5762806 87.4399629,13.9642606 86.2700758,12.7416211 C85.0997218,11.518048 84.5147782,9.84444644 84.5147782,7.72128328 C84.5147782,5.59858696 85.0997218,3.9249854 86.2700758,2.70094543 C87.4399629,1.47783913 89.0402715,0.86581914 91.0691341,0.86581914 C93.0989303,0.86581914 94.6997057,1.47783913 95.8733276,2.70094543 C97.0474163,3.9249854 97.6342272,5.59858696 97.6342272,7.72128328 C97.6342272,9.84444644 97.0474163,11.518048 95.8733276,12.7416211 C94.6997057,13.9642606 93.0989303,14.5762806 91.0691341,14.5762806 Z M108.607638,14.3825443 L102.119106,5.11541329 L102.119106,12.9446941 L103.425309,12.9446941 L103.425309,14.2504301 L99.0235266,14.2504301 L99.0235266,12.9446941 L100.329263,12.9446941 L100.329263,2.49833927 L99.0235266,2.49833927 L99.0235266,1.19260327 L102.190065,1.19260327 L108.684199,10.5180886 L108.684199,2.49833927 L107.378463,2.49833927 L107.378463,1.19260327 L111.781179,1.19260327 L111.781179,2.49833927 L110.475443,2.49833927 L110.475443,14.3825443 L108.607638,14.3825443 Z M116.509745,9.10638115 L120.668307,9.10638115 L118.583424,3.85636073 L116.509745,9.10638115 Z M115.972419,10.4648694 L114.992533,12.9446941 L116.302471,12.9446941 L116.302471,14.2504301 L112.764332,14.2504301 L112.764332,12.9446941 L113.53741,12.9446941 L118.247303,1.02454286 L120.287837,1.02454286 L124.992127,12.9446941 L125.761004,12.9446941 L125.761004,14.2504301 L120.88165,14.2504301 L120.88165,12.9446941 L122.192521,12.9446941 L121.208901,10.4648694 L115.972419,10.4648694 Z M136.529941,14.2504301 L126.595237,14.2504301 L126.595237,12.9446941 L127.900973,12.9446941 L127.900973,2.49833927 L126.595237,2.49833927 L126.595237,1.19260327 L131.934423,1.19260327 L131.934423,2.49833927 L130.627753,2.49833927 L130.627753,12.8387227 L135.118234,12.8387227 L135.118234,11.4181454 L136.529941,11.4181454 L136.529941,14.2504301 Z" id="Fill-4" fill="#0A0A0F"></path>
                        <path d="M40.9511862,30.8477959 C39.6281774,31.4126656 38.1931282,31.6951005 36.645572,31.6951005 C34.4631208,31.6951005 32.761976,31.0905498 31.5416707,29.8809817 C30.3213654,28.6737478 29.7112128,26.9870749 29.7112128,24.8214298 C29.7112128,22.646448 30.3064267,20.9616424 31.4968546,19.7707477 C32.6896167,18.5803198 34.3748891,17.9841722 36.5578071,17.9841722 C37.2281814,17.9841722 37.9190964,18.0313225 38.6314858,18.1251562 C39.3429415,18.2199236 40.0786726,18.3609076 40.8358781,18.5485751 L40.8358781,21.2837582 L39.4246375,21.2837582 L39.2836535,19.9780222 C38.8373598,19.7488065 38.3901324,19.5756109 37.9405708,19.462637 C37.4910092,19.3473288 37.0400471,19.2899082 36.5881513,19.2899082 C35.348239,19.2899082 34.3744223,19.7810181 33.6662344,20.7627709 C32.9589802,21.7454575 32.6046528,23.0983438 32.6046528,24.8214298 C32.6046528,26.493164 33.0126661,27.8152392 33.8300933,28.7927906 C34.6475204,29.7684746 35.751584,30.2563167 37.1436843,30.2563167 C38.4489535,30.2563167 39.7182764,29.9370019 40.9511862,29.2951045 L40.9511862,30.8477959 Z M48.6203429,30.3893645 C49.7286079,30.3893645 50.6179276,29.8809817 51.2864345,28.8670173 C51.9549415,27.852586 52.2901286,26.5099701 52.2901286,24.8396363 C52.2901286,23.1627669 51.9549415,21.8196842 51.2864345,20.8071202 C50.6179276,19.7959568 49.7286079,19.2899082 48.6203429,19.2899082 C47.5167462,19.2899082 46.6306944,19.7959568 45.9617206,20.8071202 C45.29228,21.8196842 44.9580265,23.1627669 44.9580265,24.8396363 C44.9580265,26.5155721 45.29228,27.8600553 45.9617206,28.8716856 C46.6306944,29.8828491 47.5167462,30.3893645 48.6203429,30.3893645 Z M48.6203429,31.6951005 C46.5896129,31.6951005 44.9902381,31.0826137 43.8203509,29.8595074 C42.64953,28.6364011 42.0641196,26.9627995 42.0641196,24.8396363 C42.0641196,22.71694 42.64953,21.0433385 43.8203509,19.8192985 C44.9902381,18.5961922 46.5896129,17.9841722 48.6203429,17.9841722 C50.6482718,17.9841722 52.249514,18.5961922 53.4236027,19.8192985 C54.5976914,21.0433385 55.1845023,22.71694 55.1845023,24.8396363 C55.1845023,26.9627995 54.5976914,28.6364011 53.4236027,29.8595074 C52.249514,31.0826137 50.6482718,31.6951005 48.6203429,31.6951005 Z M57.6582581,19.6166923 L56.3525221,19.6166923 L56.3525221,18.3109563 L61.6912411,18.3109563 L61.6912411,19.6166923 L60.3855051,19.6166923 L60.3855051,26.4539499 C60.3855051,27.8301779 60.6100525,28.8306042 61.0591472,29.4538282 C61.508242,30.0779859 62.2295012,30.3893645 63.2215245,30.3893645 C64.184604,30.3893645 64.8675828,30.0863889 65.2699941,29.4799709 C65.6714718,28.8740198 65.8731443,27.8507187 65.8731443,26.4096007 L65.8731443,19.6166923 L64.5674082,19.6166923 L64.5674082,18.3109563 L69.1465875,18.3109563 L69.1465875,19.6166923 L67.8413184,19.6166923 L67.8413184,26.1715151 C67.8413184,27.2956525 67.7516861,28.1555616 67.5719549,28.7517092 C67.3912899,29.3497241 67.0649726,29.9015225 66.587401,30.4066374 C65.7592366,31.2656128 64.5375308,31.6951005 62.9260183,31.6951005 C61.1380423,31.6951005 59.813166,31.2632786 58.9513896,30.3973007 C58.0891464,29.5336569 57.6582581,28.2036455 57.6582581,26.4096007 L57.6582581,19.6166923 Z M79.7409289,31.5008973 L73.254264,22.2337663 L73.254264,30.0630472 L74.5595332,30.0630472 L74.5595332,31.3687832 L70.157751,31.3687832 L70.157751,30.0630472 L71.4630202,30.0630472 L71.4630202,19.6166923 L70.157751,19.6166923 L70.157751,18.3109563 L73.3242892,18.3109563 L79.8179566,27.6364416 L79.8179566,19.6166923 L78.5122206,19.6166923 L78.5122206,18.3109563 L82.9144696,18.3109563 L82.9144696,19.6166923 L81.6087336,19.6166923 L81.6087336,31.5008973 L79.7409289,31.5008973 Z M84.4018042,31.1736464 L84.4018042,28.2797395 L85.9278861,28.2797395 L85.9278861,29.6396283 C86.3634427,29.9033898 86.774257,30.1041286 87.1584618,30.2395106 C87.5445339,30.3753594 87.9044632,30.4421168 88.2396504,30.4421168 C88.8927518,30.4421168 89.4198079,30.263786 89.8189514,29.9089918 C90.2190285,29.5523303 90.4183668,29.0859626 90.4183668,28.5103558 C90.4183668,27.9622921 90.2923215,27.5183325 90.0397641,27.1775433 C89.7811378,26.8423562 89.2895611,26.4744906 88.5664345,26.0748803 L87.6925204,25.5977755 C86.5104955,24.9456078 85.6692598,24.3130471 85.1692801,23.7010271 C84.6693004,23.0960096 84.4186103,22.4046278 84.4186103,21.628282 C84.4186103,20.5573638 84.8074834,19.6820492 85.5833623,19.0037387 C86.3601748,18.3240277 87.3601342,17.9841722 88.5832406,17.9841722 C89.2237374,17.9841722 89.8614333,18.0285215 90.4944609,18.1158195 C91.1260879,18.2049849 91.7539802,18.3408337 92.3781379,18.5224323 L92.3781379,21.1693838 L90.8515892,21.1693838 L90.8515892,19.9159332 C90.4804558,19.6871843 90.1209933,19.5144556 89.7750689,19.3996143 C89.4277441,19.2861735 89.0897559,19.2287529 88.759704,19.2287529 C88.2601911,19.2287529 87.8349049,19.4047495 87.4857127,19.7581432 C87.13512,20.1106032 86.9600571,20.5400909 86.9600571,21.0452058 C86.9600571,21.4574206 87.0865693,21.8103475 87.3400604,22.1039864 C87.5926178,22.4046278 88.068789,22.7538199 88.7695075,23.1543639 L89.6513578,23.6660145 C90.9216144,24.3956768 91.7983295,25.0543802 92.2810364,25.6425916 C92.7628095,26.2368719 93.0036961,26.9427256 93.0036961,27.7596859 C93.0036961,28.9543153 92.5597365,29.9089918 91.6722842,30.6223149 C90.7829646,31.3375053 89.6009397,31.6951005 88.1248091,31.6951005 C87.5786128,31.6951005 86.994136,31.651218 86.3732462,31.5620527 C85.7523563,31.4747546 85.0950534,31.3445078 84.4018042,31.1736464 Z M104.17878,31.3687832 L94.2874909,31.3687832 L94.2874909,30.0630472 L95.5932269,30.0630472 L95.5932269,19.6166923 L94.2874909,19.6166923 L94.2874909,18.3109563 L103.763297,18.3109563 L103.763297,20.9224283 L102.352056,20.9224283 L102.352056,19.6166923 L98.320007,19.6166923 L98.320007,23.9661891 L101.04632,23.9661891 L101.04632,23.0922749 L102.352056,23.0922749 L102.352056,26.1458392 L101.04632,26.1458392 L101.04632,25.2719251 L98.320007,25.2719251 L98.320007,29.9570758 L102.766605,29.9570758 L102.766605,28.5364985 L104.17878,28.5364985 L104.17878,31.3687832 Z M115.313248,31.3687832 L105.379478,31.3687832 L105.379478,30.0630472 L106.685214,30.0630472 L106.685214,19.6166923 L105.379478,19.6166923 L105.379478,18.3109563 L110.716796,18.3109563 L110.716796,19.6166923 L109.410593,19.6166923 L109.410593,29.9570758 L113.902008,29.9570758 L113.902008,28.5364985 L115.313248,28.5364985 L115.313248,31.3687832 Z M126.285726,31.3687832 L116.350088,31.3687832 L116.350088,30.0630472 L117.656291,30.0630472 L117.656291,19.6166923 L116.350088,19.6166923 L116.350088,18.3109563 L121.689274,18.3109563 L121.689274,19.6166923 L120.383538,19.6166923 L120.383538,29.9570758 L124.873551,29.9570758 L124.873551,28.5364985 L126.285726,28.5364985 L126.285726,31.3687832 Z M131.354614,19.6166923 L131.354614,30.0630472 L132.66035,30.0630472 L132.66035,31.3687832 L127.321165,31.3687832 L127.321165,30.0630472 L128.626901,30.0630472 L128.626901,19.6166923 L127.321165,19.6166923 L127.321165,18.3109563 L132.66035,18.3109563 L132.66035,19.6166923 L131.354614,19.6166923 Z M143.475038,31.5008973 L136.987906,22.2337663 L136.987906,30.0630472 L138.294109,30.0630472 L138.294109,31.3687832 L133.890926,31.3687832 L133.890926,30.0630472 L135.197129,30.0630472 L135.197129,19.6166923 L133.890926,19.6166923 L133.890926,18.3109563 L137.058865,18.3109563 L143.552532,27.6364416 L143.552532,19.6166923 L142.246796,19.6166923 L142.246796,18.3109563 L146.648578,18.3109563 L146.648578,19.6166923 L145.342842,19.6166923 L145.342842,31.5008973 L143.475038,31.5008973 Z M158.240545,31.0947514 C156.445566,31.4952953 154.97037,31.6951005 153.810753,31.6951005 C151.752013,31.6951005 150.119959,31.0774785 148.914593,29.8422345 C147.708759,28.6069905 147.105609,26.9333889 147.105609,24.8214298 C147.105609,22.65205 147.701757,20.9691118 148.892652,19.7744824 C150.08308,18.5812535 151.763684,17.9841722 153.934931,17.9841722 C154.704274,17.9841722 155.458212,18.0294551 156.193009,18.1214215 C156.92734,18.2124543 157.648132,18.3515709 158.354453,18.5397052 L158.354453,21.3108346 L156.871786,21.3108346 L156.766282,20.0050986 C156.284975,19.7632784 155.810205,19.5840139 155.34337,19.4663716 C154.877003,19.3491962 154.41437,19.2899082 153.955938,19.2899082 C152.722095,19.2899082 151.754814,19.7856864 151.052695,20.7758423 C150.350576,21.7678656 149.999516,23.1338232 149.999516,24.8751158 C149.999516,26.5804621 150.38979,27.923078 151.171737,28.9020299 C151.951818,29.8809817 153.02367,30.3716248 154.386826,30.3716248 C154.761695,30.3716248 155.137963,30.3044006 155.514232,30.1690186 L155.514232,26.7718642 L154.208496,26.7718642 L154.208496,25.4656614 L159.219964,25.4656614 L159.219964,26.7718642 L158.240545,26.7718642 L158.240545,31.0947514 Z" id="Fill-12" fill="#068A49"></path>
                        <path d="M30.1523714,48.2924663 L30.1523714,45.3985594 L31.6779864,45.3985594 L31.6779864,46.7579814 C32.113543,47.0217429 32.5243573,47.2220148 32.9085621,47.3578637 C33.2941673,47.4932457 33.6545635,47.5604698 33.9897507,47.5604698 C34.6423853,47.5604698 35.1689745,47.3821391 35.5685848,47.0273449 C35.968662,46.6702165 36.1684671,46.2047825 36.1684671,45.6287088 C36.1684671,45.0806451 36.041955,44.6366856 35.7893976,44.2958964 C35.5307713,43.9607093 35.0391946,43.5933105 34.3170016,43.1932334 L33.4426207,42.7161286 C32.2605958,42.0644277 31.4188933,41.431867 30.9198472,40.8193801 C30.4198675,40.2143627 30.1687106,39.5229808 30.1687106,38.7466351 C30.1687106,37.6757168 30.5571168,36.7999354 31.3334626,36.1220917 C32.1102751,35.4423807 33.1107014,35.1025253 34.3333408,35.1025253 C34.9738377,35.1025253 35.6110668,35.1468745 36.2445612,35.2346394 C36.8761882,35.3238048 37.5040805,35.4591868 38.1282382,35.6407854 L38.1282382,38.2882037 L36.6012227,38.2882037 L36.6012227,37.0342863 C36.231023,36.8055374 35.8715604,36.6332755 35.5247024,36.5175005 C35.1773776,36.4045266 34.8393894,36.3471059 34.5098043,36.3471059 C34.0098246,36.3471059 33.5845384,36.5231025 33.2353462,36.8764962 C32.8856872,37.2289563 32.7096906,37.6579771 32.7096906,38.1635589 C32.7096906,38.5757737 32.8362027,38.9287005 33.0896938,39.2223394 C33.3422513,39.5229808 33.8188893,39.872173 34.519141,40.272717 L35.4014581,40.7843675 C36.6721815,41.5144967 37.5488967,42.1727333 38.0306698,42.7604778 C38.512443,43.355225 38.7537964,44.0610787 38.7537964,44.8785058 C38.7537964,46.0726684 38.3103037,47.0273449 37.4223845,47.7406679 C36.5335317,48.4558583 35.35104,48.8134535 33.8744426,48.8134535 C33.3287131,48.8134535 32.7442363,48.7695711 32.1228797,48.6808726 C31.5024566,48.5931077 30.8446869,48.4633277 30.1523714,48.2924663 Z M46.7618749,47.5072507 C47.8706067,47.5072507 48.7594595,46.9998016 49.4279665,45.9849035 C50.0969403,44.970939 50.4321274,43.6278563 50.4321274,41.9584562 C50.4321274,40.28112 50.0969403,38.9380372 49.4279665,37.9259401 C48.7594595,36.9143098 47.8706067,36.4082613 46.7618749,36.4082613 C45.6582782,36.4082613 44.7722264,36.9143098 44.1037194,37.9259401 C43.4338119,38.9380372 43.0995585,40.28112 43.0995585,41.9584562 C43.0995585,43.6339251 43.4338119,44.9779416 44.1037194,45.9900387 C44.7722264,47.0012021 45.6582782,47.5072507 46.7618749,47.5072507 Z M46.7618749,48.8134535 C44.7311449,48.8134535 43.1322369,48.2014336 41.9618829,46.9783273 C40.791062,45.7547541 40.2056516,44.0811526 40.2056516,41.9584562 C40.2056516,39.8352931 40.791062,38.1616915 41.9618829,36.9376515 C43.1322369,35.7145452 44.7311449,35.1025253 46.7618749,35.1025253 C48.7902706,35.1025253 50.391046,35.7145452 51.5646678,36.9376515 C52.7392234,38.1616915 53.3260343,39.8352931 53.3260343,41.9584562 C53.3260343,44.0811526 52.7392234,45.7547541 51.5646678,46.9783273 C50.391046,48.2014336 48.7902706,48.8134535 46.7618749,48.8134535 Z M66.1238344,47.966149 C64.7989581,48.5305519 63.3648427,48.8134535 61.8182201,48.8134535 C59.6353021,48.8134535 57.9341573,48.2089029 56.713852,46.9998016 C55.4935467,45.7921009 54.8829272,44.1054279 54.8829272,41.9397829 C54.8829272,39.7648011 55.478608,38.0799955 56.6690359,36.8895676 C57.8608643,35.6986729 59.5466036,35.1025253 61.7290547,35.1025253 C62.399429,35.1025253 63.0908108,35.1501424 63.8027334,35.2435093 C64.5141891,35.3382767 65.2503871,35.4792607 66.0085262,35.6669281 L66.0085262,38.4021113 L64.5968188,38.4021113 L64.4558348,37.0963753 C64.0100079,36.8671595 63.56138,36.6944308 63.1122852,36.58099 C62.6631905,36.4656819 62.2117615,36.4082613 61.7598658,36.4082613 C60.5194866,36.4082613 59.5466036,36.8993711 58.8388825,37.881124 C58.1316283,38.8638106 57.7763673,40.2166968 57.7763673,41.9397829 C57.7763673,43.6115171 58.1848474,44.9335923 59.0022746,45.9111437 C59.8183012,46.8872945 60.9228316,47.3746697 62.3158656,47.3746697 C63.6206679,47.3746697 64.889524,47.0553549 66.1238344,46.4129907 L66.1238344,47.966149 Z M71.6866339,36.7350454 L71.6866339,47.1814002 L72.9928367,47.1814002 L72.9928367,48.4876031 L67.6550514,48.4876031 L67.6550514,47.1814002 L68.9607874,47.1814002 L68.9607874,36.7350454 L67.6550514,36.7350454 L67.6550514,35.4293094 L72.9928367,35.4293094 L72.9928367,36.7350454 L71.6866339,36.7350454 Z M84.1133005,48.4876031 L74.2229455,48.4876031 L74.2229455,47.1814002 L75.5291484,47.1814002 L75.5291484,36.7350454 L74.2229455,36.7350454 L74.2229455,35.4293094 L83.6992184,35.4293094 L83.6992184,38.0407814 L82.2870441,38.0407814 L82.2870441,36.7350454 L78.2554616,36.7350454 L78.2554616,41.0840753 L80.9813081,41.0840753 L80.9813081,40.210628 L82.2870441,40.210628 L82.2870441,43.2641922 L80.9813081,43.2641922 L80.9813081,42.3902781 L78.2554616,42.3902781 L78.2554616,47.0754288 L82.7011263,47.0754288 L82.7011263,45.6543847 L84.1133005,45.6543847 L84.1133005,48.4876031 Z M89.7732016,36.8410168 L86.4558759,36.8410168 L86.4558759,38.2527242 L85.0437016,38.2527242 L85.0437016,35.4293094 L97.228548,35.4293094 L97.228548,38.2527242 L95.8173074,38.2527242 L95.8173074,36.8410168 L92.4999817,36.8410168 L92.4999817,47.1814002 L93.8057177,47.1814002 L93.8057177,48.4876031 L88.4674656,48.4876031 L88.4674656,47.1814002 L89.7732016,47.1814002 L89.7732016,36.8410168 Z M102.421615,42.8221 L98.7382907,36.7350454 L97.9666133,36.7350454 L97.9666133,35.4293094 L102.85297,35.4293094 L102.85297,36.7350454 L101.768046,36.7350454 L104.543844,41.2689417 L107.281828,36.7350454 L106.206242,36.7350454 L106.206242,35.4293094 L109.594526,35.4293094 L109.594526,36.7350454 L108.831719,36.7350454 L105.146994,42.8221 L105.146994,47.1814002 L106.45273,47.1814002 L106.45273,48.4876031 L101.115879,48.4876031 L101.115879,47.1814002 L102.421615,47.1814002 L102.421615,42.8221 Z" id="Fill-23" fill="#0A0A0F"></path>
                        <path d="M24.2217063,7.6321179 L24.2217063,0.281342388 C10.8459652,0.281342388 0,11.1245065 0,24.4988472 C0,37.8764557 10.8459652,48.7182193 24.2217063,48.7182193 L24.2217063,41.3655765 C14.899022,40.8151786 7.48569067,33.4718725 7.48569067,24.4988472 C7.48569067,15.5267556 14.899022,8.18344941 24.2217063,7.6321179 Z" id="Fill-30" fill="#068A49"></path>
                        <path d="M15.093692,24.4988472 C15.093692,29.2904361 19.0963307,33.2459246 24.2217063,33.7529068 L24.2217063,15.2452544 C19.0963307,15.7522366 15.093692,19.707725 15.093692,24.4988472" id="Fill-31" fill="#0A0A0F"></path>
                    </g>
                </g>
            </g>
        </g>
    </g>
</svg>