<?xml version="1.0" encoding="UTF-8" standalone="no"?>
<svg width="304px" height="49px" viewBox="0 0 304 49" version="1.1" xmlns="http://www.w3.org/2000/svg" xmlns:xlink="http://www.w3.org/1999/xlink" xmlns:sketch="http://www.bohemiancoding.com/sketch/ns">
    <!-- Generator: Sketch 3.4.1 (15681) - http://www.bohemiancoding.com/sketch -->
    <title>nhs-logo-dual</title>
    <desc>Created with Sketch.</desc>
    <defs></defs>
    <g id="Hypnotherapy-Screens" stroke="none" stroke-width="1" fill="none" fill-rule="evenodd" sketch:type="MSPage">
        <g id="Desktop-Home-Alt" sketch:type="MSArtboardGroup" transform="translate(-238.000000, -17.000000)">
            <g id="NHS-Header" sketch:type="MSLayerGroup">
                <g id="Main-Header" sketch:type="MSShapeGroup">
                    <g id="nhs-logo-dual" transform="translate(238.000000, 17.000000)">
                        <g id="accredited-logo" transform="translate(200.287500, 0.408333)">
                            <path d="M102.732328,41.0269315 L102.732328,37.3479098 C102.732328,35.2948021 101.083631,33.6311404 99.0499781,33.6311404 L3.87069375,33.6311404 C1.83658125,33.6311404 0.18834375,35.2948021 0.18834375,37.3479098 L0.18834375,40.7479666 L0.187884375,44.7064135 C0.187884375,46.7590609 1.83704062,48.4227226 3.87023437,48.4227226 L99.0499781,48.4227226 C101.083631,48.4227226 102.732328,46.7590609 102.732328,44.7064135 L102.732328,41.0269315 Z" id="Fill-32" fill="#553982"></path>
                            <path d="M42.0392437,9.77504159 L42.0392437,2.52886034 L42.8877094,2.52886034 L42.8877094,3.25849615 C43.1036156,2.94914898 43.3461656,2.72220232 43.6139812,2.57719583 C43.883175,2.43172901 44.2019812,2.35945594 44.5717781,2.35945594 C45.2599219,2.35945594 45.8093344,2.60757814 46.2190969,3.10382256 C46.6293187,3.60052732 46.8342,4.2657158 46.8342,5.10030869 C46.8342,5.94502901 46.6265625,6.61666222 46.2122062,7.11658935 C45.7973906,7.61605613 45.2470594,7.86601969 44.5621312,7.86601969 C44.1987656,7.86601969 43.8799594,7.80019135 43.6043344,7.66991568 C43.3296281,7.53917968 43.0907531,7.34077398 42.8877094,7.07285723 L42.8877094,9.77504159 L42.0392437,9.77504159 L42.0392437,9.77504159 Z M42.8592281,5.1537079 C42.8592281,5.79864151 42.9873937,6.28291714 43.2428062,6.60653479 C43.4982187,6.93015244 43.8817969,7.09219143 44.3935406,7.09219143 C44.8823156,7.09219143 45.2594625,6.91450094 45.5245219,6.55819929 C45.7905,6.20189764 45.9228,5.6969068 45.9228,5.04276643 C45.9228,4.45307339 45.7854469,3.9885923 45.5102812,3.65070417 C45.235575,3.31189536 44.8598062,3.14249096 44.3838937,3.14249096 C43.8946594,3.14249096 43.5184312,3.31695908 43.2552094,3.66451431 C42.9910687,4.01299021 42.8592281,4.50923463 42.8592281,5.1537079 Z M47.8912219,7.70628239 L47.8912219,2.52886034 L48.7305,2.52886034 L48.7305,3.45690185 C48.8687719,3.10888628 49.0561969,2.84879528 49.292775,2.67616851 C49.5288938,2.50354175 49.8192188,2.41745853 50.1632906,2.41745853 C50.2276031,2.41745853 50.2744594,2.41837921 50.3029406,2.42022056 C50.3318813,2.42160157 50.3612813,2.42574461 50.3902219,2.43218935 L50.3902219,3.35056376 C50.3677125,3.34734139 50.3415281,3.3450397 50.3125875,3.34319835 C50.2841063,3.34181733 50.240925,3.34089666 50.182125,3.34089666 C49.7195344,3.34089666 49.366275,3.46748962 49.1232656,3.72021521 C48.8807156,3.97340114 48.7594406,4.34167158 48.7594406,4.82456619 L48.7594406,7.70628239 L47.8912219,7.70628239 Z M50.9061,5.10997579 C50.9061,4.24361958 51.1224656,3.56830366 51.5551969,3.0849487 C51.9870094,2.60113341 52.5943031,2.35945594 53.3757,2.35945594 C54.1603125,2.35945594 54.7703625,2.60021274 55.2040125,3.08264701 C55.6381219,3.56416061 55.8554062,4.24039721 55.8554062,5.10997579 C55.8554062,5.98047504 55.6395,6.65717197 55.2067687,7.14052693 C54.7740375,7.62434222 54.1667437,7.86601969 53.3853469,7.86601969 C52.6007344,7.86601969 51.9916031,7.62526289 51.5570344,7.14282862 C51.1233844,6.66131502 50.9061,5.98369741 50.9061,5.10997579 Z M51.7931531,5.10997579 C51.7931531,5.75168703 51.9309656,6.24240739 52.2061312,6.58213687 C52.4808375,6.92186635 52.8740625,7.09219143 53.3853469,7.09219143 C53.893875,7.09219143 54.2825062,6.92186635 54.5530781,6.58213687 C54.8231906,6.24240739 54.9577875,5.75168703 54.9577875,5.10997579 C54.9577875,4.47194725 54.8231906,3.98306824 54.5530781,3.64287842 C54.2825062,3.30314894 53.893875,3.13282386 53.3853469,3.13282386 C52.8713062,3.13282386 52.4767031,3.30176792 52.203375,3.64057673 C51.9300469,3.9789252 51.7931531,4.46872488 51.7931531,5.10997579 Z M57.0993937,7.70628239 L57.0993937,3.22028809 L56.2504687,3.22028809 L56.2504687,2.52886034 L57.0993937,2.52886034 L57.0993937,1.76469917 C57.0993937,1.33612445 57.1972406,1.01480849 57.3920156,0.800751297 C57.5863312,0.586233766 57.877575,0.479435338 58.267125,0.479435338 C58.3282219,0.479435338 58.4053969,0.483578381 58.49865,0.49324548 C58.5923625,0.502912579 58.7287969,0.520865763 58.9084125,0.546644693 L58.9084125,1.32967972 C58.8156187,1.31356789 58.737525,1.3015991 58.67505,1.29331301 C58.6121156,1.28548726 58.561125,1.28134422 58.5229969,1.28134422 C58.3199531,1.28134422 58.178925,1.3379658 58.098075,1.45074862 C58.0181437,1.56353145 57.9777187,1.77804898 57.9777187,2.09338054 L57.9777187,2.52886034 L58.9084125,2.52886034 L58.9084125,3.22028809 L57.9777187,3.22028809 L57.9777187,7.70628239 L57.0993937,7.70628239 Z M63.0000656,6.03387425 L63.8581781,6.03387425 C63.764925,6.6042331 63.5173219,7.05352303 63.1158281,7.3822044 C62.7134156,7.71088577 62.206725,7.87568679 61.5957562,7.87568679 C60.8791312,7.87568679 60.3127219,7.63400932 59.8979062,7.15019403 C59.4826312,6.66683907 59.2754531,6.00763498 59.2754531,5.1730421 C59.2754531,4.29011372 59.4807937,3.60052732 59.8928531,3.1042829 C60.3044531,2.60757814 60.8722406,2.35945594 61.5957562,2.35945594 C62.339025,2.35945594 62.9137031,2.58870428 63.32025,3.04581997 C63.7267969,3.50385633 63.9307594,4.14971061 63.9307594,4.9843035 C63.9307594,5.09110193 63.9298406,5.17028007 63.9280031,5.22137759 C63.926625,5.27293546 63.92295,5.3231123 63.9165187,5.3714478 L60.1873125,5.3714478 C60.1969594,5.91602771 60.3315562,6.33723703 60.5920219,6.63553608 C60.8529469,6.9333748 61.2149344,7.08252433 61.677525,7.08252433 C62.0317031,7.08252433 62.3234062,6.99183774 62.5535531,6.80954387 C62.7832406,6.62725 62.9320781,6.36854002 63.0000656,6.03387425 Z M60.1827187,4.64595503 L63.0193594,4.64595503 C63.0161437,4.16260008 62.89395,3.78926592 62.6518594,3.52687323 C62.4106875,3.26448054 62.0684531,3.1332842 61.6246969,3.1332842 C61.1970187,3.1332842 60.8598375,3.26217885 60.6140719,3.51950782 C60.3678469,3.77775747 60.2240625,4.15293298 60.1827187,4.64595503 Z M64.5725062,6.02374682 L65.4067312,6.02374682 C65.4393469,6.37544509 65.5652156,6.64106014 65.7857156,6.82151266 C66.0062156,7.00196517 66.3185906,7.09219143 66.7242187,7.09219143 C67.0972312,7.09219143 67.3916906,7.01899768 67.6066781,6.87214984 C67.822125,6.72576234 67.9300781,6.52505495 67.9300781,6.27048801 C67.9300781,6.0803684 67.8758719,5.93444123 67.7683781,5.83316686 C67.660425,5.73143215 67.45095,5.64350759 67.138575,5.56939316 L66.1692937,5.31850892 C65.6226375,5.18593156 65.2418156,5.01100311 65.0282062,4.79372355 C64.8141375,4.57598365 64.7075625,4.26617614 64.7075625,3.86292001 C64.7075625,3.40534399 64.8802875,3.04213726 65.2261969,2.7728395 C65.5716469,2.50400208 66.0457219,2.36912303 66.6465844,2.36912303 C67.2607687,2.36912303 67.7500031,2.51274851 68.1133687,2.79953911 C68.4767344,3.08679006 68.6586469,3.47117233 68.6586469,3.95498762 L68.6586469,3.97386148 L67.8143156,3.97386148 C67.7950219,3.70042068 67.6833937,3.48820483 67.4789719,3.33813463 C67.27455,3.18852476 66.9970875,3.11348966 66.6465844,3.11348966 C66.2965406,3.11348966 66.0301031,3.17517496 65.8481906,3.29762488 C65.6667375,3.4200748 65.5762406,3.59914631 65.5762406,3.83391871 C65.5762406,4.0019421 65.6332031,4.13267811 65.7471281,4.22796808 C65.8610531,4.32325806 66.0742031,4.40565857 66.3861187,4.47701097 L67.2253969,4.67541667 C67.8239625,4.81674045 68.2355625,4.99811364 68.4606562,5.2190759 C68.6862094,5.44003817 68.7982969,5.75490939 68.7982969,6.16414992 C68.7982969,6.70274544 68.6094937,7.12027205 68.2309687,7.41857111 C67.8538219,7.71640983 67.3255406,7.86601969 66.6465844,7.86601969 C65.9841656,7.86601969 65.4751781,7.70812374 65.1196219,7.3918715 C64.764525,7.0760796 64.5821531,6.62034493 64.5725062,6.02374682 Z M69.4735781,6.02374682 L70.3082625,6.02374682 C70.3404188,6.37544509 70.4667469,6.64106014 70.6872469,6.82151266 C70.9072875,7.00196517 71.2196625,7.09219143 71.6252906,7.09219143 C71.9983031,7.09219143 72.2927625,7.01899768 72.50775,6.87214984 C72.7236563,6.72576234 72.83115,6.52505495 72.83115,6.27048801 C72.83115,6.0803684 72.7769438,5.93444123 72.66945,5.83316686 C72.5619563,5.73143215 72.3520219,5.64350759 72.0401063,5.56939316 L71.0703656,5.31850892 C70.5237094,5.18593156 70.1433469,5.01100311 69.9292781,4.79372355 C69.7152094,4.57598365 69.6086344,4.26617614 69.6086344,3.86292001 C69.6086344,3.40534399 69.7813594,3.04213726 70.1272688,2.7728395 C70.4731781,2.50400208 70.9467938,2.36912303 71.5481156,2.36912303 C72.1623,2.36912303 72.651075,2.51274851 73.0144406,2.79953911 C73.3778063,3.08679006 73.5597188,3.47117233 73.5597188,3.95498762 L73.5597188,3.97386148 L72.7153875,3.97386148 C72.6960938,3.70042068 72.584925,3.48820483 72.3805031,3.33813463 C72.1756219,3.18852476 71.8986188,3.11348966 71.5481156,3.11348966 C71.1976125,3.11348966 70.9316344,3.17517496 70.7492625,3.29762488 C70.5682688,3.4200748 70.4773125,3.59914631 70.4773125,3.83391871 C70.4773125,4.0019421 70.534275,4.13267811 70.6482,4.22796808 C70.762125,4.32325806 70.975275,4.40565857 71.28765,4.47701097 L72.1264688,4.67541667 C72.7250344,4.81674045 73.1366344,4.99811364 73.3617281,5.2190759 C73.5872813,5.44003817 73.6998281,5.75490939 73.6998281,6.16414992 C73.6998281,6.70274544 73.5105656,7.12027205 73.1325,7.41857111 C72.7548938,7.71640983 72.2266125,7.86601969 71.5481156,7.86601969 C70.8856969,7.86601969 70.3767094,7.70812374 70.0211531,7.3918715 C69.6655969,7.0760796 69.4836844,6.62034493 69.4735781,6.02374682 Z M74.7269906,0.58531309 L75.5952094,0.58531309 L75.5952094,1.57596057 L74.7269906,1.57596057 L74.7269906,0.58531309 Z M74.7269906,2.52886034 L75.5952094,2.52886034 L75.5952094,7.70628239 L74.7269906,7.70628239 L74.7269906,2.52886034 Z M76.6563656,5.10997579 C76.6563656,4.24361958 76.87365,3.56830366 77.3063812,3.0849487 C77.7381937,2.60113341 78.3454875,2.35945594 79.1268844,2.35945594 C79.9114969,2.35945594 80.5215469,2.60021274 80.9551969,3.08264701 C81.3893062,3.56416061 81.6065906,4.24039721 81.6065906,5.10997579 C81.6065906,5.98047504 81.3906844,6.65717197 80.9579531,7.14052693 C80.5252219,7.62434222 79.9179281,7.86601969 79.1365312,7.86601969 C78.3519187,7.86601969 77.7423281,7.62526289 77.3082187,7.14282862 C76.87365,6.66131502 76.6563656,5.98369741 76.6563656,5.10997579 Z M77.5443375,5.10997579 C77.5443375,5.75168703 77.68215,6.24240739 77.9568562,6.58213687 C78.2320219,6.92186635 78.6252469,7.09219143 79.1365312,7.09219143 C79.6450594,7.09219143 80.0336906,6.92186635 80.3042625,6.58213687 C80.574375,6.24240739 80.7089719,5.75168703 80.7089719,5.10997579 C80.7089719,4.47194725 80.574375,3.98306824 80.3042625,3.64287842 C80.0336906,3.30314894 79.6450594,3.13282386 79.1365312,3.13282386 C78.6224906,3.13282386 78.2278875,3.30176792 77.9545594,3.64057673 C77.6812312,3.9789252 77.5443375,4.46872488 77.5443375,5.10997579 Z M86.1020344,7.70628239 L86.1020344,4.52028274 C86.1020344,4.01114886 86.0244,3.65945059 85.8682125,3.46426726 C85.7124844,3.26908392 85.4446688,3.17149226 85.065225,3.17149226 C84.5796656,3.17149226 84.2025188,3.30959367 83.9342438,3.58487583 C83.66505,3.86061832 83.5309125,4.25144532 83.5309125,4.75735684 L83.5309125,7.70628239 L82.6626938,7.70628239 L82.6626938,2.52886034 L83.492325,2.52886034 L83.492325,3.28289406 C83.6916938,2.98321399 83.9282719,2.76087072 84.2016,2.61586423 C84.4749281,2.47039741 84.7918969,2.39812433 85.1520469,2.39812433 C85.5406781,2.39812433 85.8691313,2.4570476 86.1355688,2.57489414 C86.402925,2.69228035 86.6091844,2.86858982 86.7534281,3.1042829 C86.8342781,3.22995519 86.8917,3.37726336 86.9266125,3.54620743 C86.9629031,3.71561183 86.9803594,3.98398892 86.9803594,4.35133868 L86.9803594,7.70628239 L86.1020344,7.70628239 Z M91.4767219,7.01485464 C91.2066094,7.29842288 90.9199594,7.51155939 90.6153937,7.65288318 C90.3112875,7.7946673 89.9892656,7.86601969 89.6484094,7.86601969 C89.1205875,7.86601969 88.7094469,7.72791828 88.41315,7.45263612 C88.1173125,7.17689363 87.9693937,6.79573373 87.9693937,6.30915641 C87.9693937,5.83869092 88.1150156,5.4694998 88.4058,5.2020434 C88.6970437,4.93458699 89.1398812,4.76196022 89.7352312,4.68508377 C89.8863656,4.66897193 90.0903281,4.64595503 90.3475781,4.61695373 C90.7881187,4.57230094 91.0586906,4.52856883 91.1579156,4.48667807 C91.2576,4.44800967 91.32375,4.39737248 91.3559062,4.33476651 C91.3880625,4.2717002 91.4041406,4.13544013 91.4041406,3.92552598 C91.4041406,3.66129194 91.3081312,3.46334658 91.1147344,3.33122956 C90.9217969,3.19911254 90.6300937,3.1332842 90.2414625,3.1332842 C89.83905,3.1332842 89.5363219,3.21384336 89.3323594,3.37496167 C89.1283969,3.53607999 89.0259562,3.7745351 89.0259562,4.090327 L88.2055125,4.090327 L88.2055125,4.05165861 C88.2055125,3.52917492 88.3892625,3.11671203 88.7558437,2.81426993 C89.1219656,2.51090715 89.6272781,2.35945594 90.2699437,2.35945594 C90.9617625,2.35945594 91.47075,2.48927127 91.7973656,2.74844159 C92.1239812,3.00807225 92.2866,3.41316973 92.2866,3.96465472 L92.2866,6.5558976 C92.2866,6.77824088 92.3109469,6.92140601 92.3591812,6.98585334 C92.4074156,7.05030067 92.4942375,7.08298467 92.6196469,7.08298467 C92.6453719,7.08298467 92.6770687,7.08022264 92.7138187,7.07561926 C92.7510281,7.07055554 92.7951281,7.06319013 92.8465781,7.05352303 L92.8465781,7.72561659 C92.7404625,7.75461789 92.6481281,7.77441242 92.5691156,7.78592087 C92.4905625,7.79742932 92.415225,7.80295338 92.3454,7.80295338 C92.055075,7.80295338 91.83825,7.74034741 91.6935469,7.61421478 C91.5493031,7.48854249 91.4767219,7.29842288 91.4767219,7.04385594 L91.4767219,7.01485464 Z M91.3944937,5.07176773 C91.1629687,5.19744002 90.7656094,5.29549202 90.2033344,5.36684442 C90.0035062,5.39216301 89.8542094,5.41333856 89.754525,5.42945039 C89.4389344,5.48100825 89.2124625,5.57445688 89.0741906,5.70979627 C88.9359187,5.84513565 88.8665531,6.0417 88.8665531,6.29948931 C88.8665531,6.55727862 88.9474031,6.75568432 89.107725,6.89424607 C89.2685062,7.03280782 89.4986531,7.10185853 89.7977062,7.10185853 C90.2639719,7.10185853 90.6466312,6.98401199 90.9456844,6.74877925 C91.2451969,6.51400684 91.3944937,6.21248542 91.3944937,5.84513565 L91.3944937,5.07176773 Z M93.6569156,0.58531309 L94.5398344,0.58531309 L94.5398344,7.70582205 L93.6569156,7.70582205 L93.6569156,0.58531309 Z" id="Fill-34" fill="#553982"></path>
                            <path d="M41.6680688,16.0678627 L42.5022938,16.0678627 C42.53445,16.4191007 42.6607781,16.6847157 42.8812781,16.8656286 C43.1013188,17.0460811 43.4141531,17.1363074 43.8197813,17.1363074 C44.1927938,17.1363074 44.4867938,17.0631136 44.7017813,16.9162658 C44.9176875,16.7694179 45.0251813,16.5687105 45.0251813,16.3146039 C45.0251813,16.1244843 44.9714344,15.9785572 44.8634813,15.8768224 C44.7559875,15.7750877 44.5460531,15.6876235 44.2341375,15.6130487 L43.2648563,15.3621645 C42.7182,15.2300475 42.3373781,15.055119 42.1237688,14.8378395 C41.9097,14.6200996 41.803125,14.3098317 41.803125,13.9065756 C41.803125,13.4494599 41.97585,13.0862532 42.3217594,12.8169554 C42.6672094,12.5476577 43.140825,12.413239 43.7421469,12.413239 C44.3563313,12.413239 44.8455656,12.5568644 45.2089313,12.843655 C45.5718375,13.1304456 45.75375,13.5152882 45.75375,13.9991035 L45.75375,14.0179774 L44.9094188,14.0179774 C44.890125,13.7445366 44.7789563,13.5323208 44.5745344,13.3822506 C44.3701125,13.2321803 44.09265,13.1576056 43.7421469,13.1576056 C43.3916438,13.1576056 43.1256656,13.2188305 42.9432938,13.3412805 C42.7623,13.4637304 42.6718031,13.6428019 42.6718031,13.8780346 C42.6718031,14.0455977 42.7283063,14.176794 42.8426906,14.272084 C42.9561563,14.3669136 43.1697656,14.4497745 43.4816813,14.5211269 L44.3209594,14.7195326 C44.9190656,14.8608564 45.331125,15.0422296 45.5557594,15.2627315 C45.7813125,15.4836938 45.8938594,15.7990253 45.8938594,16.2078055 C45.8938594,16.746401 45.7045969,17.164388 45.3265313,17.462687 C44.948925,17.7605257 44.4206438,17.9101356 43.7421469,17.9101356 C43.0797281,17.9101356 42.5707406,17.7517793 42.2151844,17.4359874 C41.8600875,17.1201955 41.6777156,16.6640005 41.6680688,16.0678627 Z M47.9389969,16.4448796 C47.9389969,16.67689 47.9720719,16.8315636 48.0377625,16.9089004 C48.1039125,16.9862371 48.2251875,17.0249055 48.4020469,17.0249055 C48.4534969,17.0249055 48.5155125,17.0235245 48.5880937,17.0203022 C48.660675,17.0170798 48.7543875,17.0106351 48.87015,17.000968 L48.87015,17.7402709 C48.7254469,17.7660498 48.5959031,17.7858443 48.4819781,17.7987338 C48.3675937,17.8116233 48.2656125,17.818068 48.175575,17.818068 C47.7667312,17.818068 47.481,17.7388899 47.3165437,17.5809939 C47.1530062,17.423098 47.0707781,17.1427521 47.0707781,16.7399563 L47.0707781,13.2639437 L46.2985687,13.2639437 L46.2985687,12.5725159 L47.0707781,12.5725159 L47.0707781,11.1275148 L47.9389969,11.1275148 L47.9389969,12.5725159 L48.87015,12.5725159 L48.87015,13.2639437 L47.9389969,13.2639437 L47.9389969,16.4448796 Z M52.8887625,17.0589706 C52.61865,17.3425388 52.3315406,17.5556753 52.0274344,17.6969991 C51.7233281,17.8387832 51.4013062,17.9096753 51.06045,17.9096753 C50.5330875,17.9096753 50.1219469,17.7720342 49.82565,17.4962917 C49.5293531,17.2210096 49.3818937,16.8398496 49.3818937,16.352812 C49.3818937,15.8823465 49.5275156,15.5136157 49.8183,15.2461593 C50.1090844,14.9787029 50.5519219,14.8060761 51.1477312,14.7287393 C51.2984062,14.7126275 51.5023687,14.690071 51.7596187,14.6610697 C52.2006187,14.6164169 52.4702719,14.5726847 52.5699562,14.5303336 C52.6696406,14.4921256 52.7357906,14.4410281 52.7679469,14.3784221 C52.8001031,14.3153558 52.8161812,14.1795561 52.8161812,13.9696419 C52.8161812,13.7054079 52.7201719,13.5074625 52.5272344,13.3753455 C52.3338375,13.2432285 52.0421344,13.1774001 51.6535031,13.1774001 C51.25155,13.1774001 50.9488219,13.2574989 50.7448594,13.4190776 C50.5404375,13.5801959 50.4379969,13.818651 50.4379969,14.1339826 L49.6180125,14.1339826 L49.6180125,14.0957745 C49.6180125,13.5732908 49.8017625,13.1608279 50.1683437,12.8579255 C50.5344656,12.5550231 51.0397781,12.4035719 51.6824437,12.4035719 C52.3738031,12.4035719 52.8827906,12.5333872 53.2094062,12.7925575 C53.5360219,13.0521882 53.6986406,13.4572857 53.6986406,14.0083103 L53.6986406,16.6000135 C53.6986406,16.8218965 53.7229875,16.9655219 53.7712219,17.0299693 C53.8194562,17.0944166 53.9062781,17.1266403 54.0316875,17.1266403 C54.0578719,17.1266403 54.0891094,17.1243386 54.1258594,17.1192748 C54.1630687,17.1146715 54.2071687,17.1073061 54.2586187,17.097639 L54.2586187,17.7697325 C54.1525031,17.7987338 54.0601687,17.8185283 53.9811562,17.8300368 C53.9026031,17.8415452 53.8272656,17.846609 53.7574406,17.846609 C53.467575,17.846609 53.2502906,17.784003 53.1055875,17.6578704 C52.9613437,17.5321981 52.8887625,17.3425388 52.8887625,17.0879719 L52.8887625,17.0589706 Z M52.8065344,15.1154233 C52.5750094,15.2410956 52.17765,15.3396079 51.615375,15.4105 C51.4155469,15.4362789 51.2667094,15.4569941 51.167025,15.473106 C50.8514344,15.5251242 50.6245031,15.6181125 50.4866906,15.7534518 C50.3484187,15.8892516 50.2790531,16.0858159 50.2790531,16.3431449 C50.2790531,16.6013945 50.3594437,16.7993399 50.520225,16.9379017 C50.6805469,17.0764634 50.9111531,17.1455141 51.2102062,17.1455141 C51.6760125,17.1455141 52.0586719,17.0281279 52.357725,16.7928952 C52.6572375,16.5576624 52.8065344,16.256141 52.8065344,15.8892516 L52.8065344,15.1154233 Z M58.49865,17.7503983 L58.49865,14.5643987 C58.49865,14.0552648 58.4210156,13.7035665 58.2652875,13.5083832 C58.1091,13.3131998 57.8412844,13.2156082 57.4618406,13.2156082 C56.9762812,13.2156082 56.5991344,13.3532493 56.3308594,13.6289917 C56.0616656,13.9047342 55.9275281,14.2951009 55.9275281,14.8010124 L55.9275281,17.7503983 L55.0593094,17.7503983 L55.0593094,12.5725159 L55.8889406,12.5725159 L55.8889406,13.3265496 C56.0887687,13.0273299 56.3248875,12.8045263 56.5977562,12.6595198 C56.8715437,12.5145133 57.1885125,12.4422403 57.5486625,12.4422403 C57.9377531,12.4422403 58.2657469,12.5011635 58.5321844,12.6190101 C58.7995406,12.7363963 59.0058,12.9127057 59.1500437,13.1479385 C59.2304344,13.2736108 59.2883156,13.4213793 59.3232281,13.5903233 C59.3595187,13.7597278 59.376975,14.0276445 59.376975,14.3949943 L59.376975,17.7503983 L58.49865,17.7503983 Z M65.1954187,10.629429 L65.1954187,17.749938 L64.3552219,17.749938 L64.3552219,17.097639 C64.1338031,17.3683177 63.8829844,17.5713268 63.603225,17.7066662 C63.3230062,17.8424659 63.0143062,17.9096753 62.6766656,17.9096753 C61.9885219,17.9096753 61.4391094,17.6624737 61.0288875,17.1680707 C60.6195844,16.6727469 60.4142437,16.0098601 60.4142437,15.1784896 C60.4142437,14.3310073 60.6200437,13.656612 61.0321031,13.1553039 C61.4437031,12.6539958 61.9917375,12.4035719 62.6766656,12.4035719 C63.037275,12.4035719 63.3560812,12.4703209 63.6340031,12.6042792 C63.9128437,12.7377773 64.1526375,12.9384847 64.3552219,13.2059411 L64.3552219,10.629429 L65.1954187,10.629429 Z M64.3846219,15.1250904 C64.3846219,14.4838395 64.2550781,14.0004846 63.99645,13.6750256 C63.7373625,13.3495665 63.3537844,13.1870672 62.8457156,13.1870672 C62.3569406,13.1870672 61.978875,13.3647577 61.7119781,13.720599 C61.4450812,14.0769007 61.3114031,14.5823518 61.3114031,15.2364922 C61.3114031,15.8257249 61.4487562,16.290206 61.7243812,16.6285545 C61.9990875,16.9669029 62.3762344,17.1363074 62.8553625,17.1363074 C63.3409219,17.1363074 63.7176094,16.9622996 63.9840469,16.614284 C64.2509437,16.2658081 64.3846219,15.7695637 64.3846219,15.1250904 Z M69.7436906,17.0589706 C69.4735781,17.3425388 69.1864688,17.5556753 68.8823625,17.6969991 C68.5782563,17.8387832 68.2562344,17.9096753 67.9153781,17.9096753 C67.3875563,17.9096753 66.9764156,17.7720342 66.6805781,17.4962917 C66.3842813,17.2210096 66.2363625,16.8398496 66.2363625,16.352812 C66.2363625,15.8823465 66.3819844,15.5136157 66.6727688,15.2461593 C66.9644719,14.9787029 67.4073094,14.8060761 68.0022,14.7287393 C68.1533344,14.7126275 68.3572969,14.690071 68.6150063,14.6610697 C69.0555469,14.6164169 69.3252,14.5726847 69.4253438,14.5303336 C69.5250281,14.4921256 69.5911781,14.4410281 69.6233344,14.3784221 C69.6550313,14.3153558 69.6711094,14.1795561 69.6711094,13.9696419 C69.6711094,13.7054079 69.5751,13.5074625 69.3821625,13.3753455 C69.1887656,13.2432285 68.8975219,13.1774001 68.5088906,13.1774001 C68.1064781,13.1774001 67.8032906,13.2574989 67.5993281,13.4190776 C67.3953656,13.5801959 67.292925,13.818651 67.292925,14.1339826 L66.4729406,14.1339826 L66.4729406,14.0957745 C66.4729406,13.5732908 66.6562313,13.1608279 67.0228125,12.8579255 C67.3893938,12.5550231 67.8947063,12.4035719 68.5373719,12.4035719 C69.2287313,12.4035719 69.7377188,12.5333872 70.0643344,12.7925575 C70.39095,13.0521882 70.5540281,13.4572857 70.5540281,14.0083103 L70.5540281,16.6000135 C70.5540281,16.8218965 70.5779156,16.9655219 70.6266094,17.0299693 C70.6743844,17.0944166 70.7616656,17.1266403 70.887075,17.1266403 C70.9128,17.1266403 70.9444969,17.1243386 70.9807875,17.1192748 C71.0179969,17.1146715 71.0625563,17.1073061 71.1135469,17.097639 L71.1135469,17.7697325 C71.0074313,17.7987338 70.9150969,17.8185283 70.8360844,17.8300368 C70.7575313,17.8415452 70.6826531,17.846609 70.6123688,17.846609 C70.3225031,17.846609 70.1056781,17.784003 69.960975,17.6578704 C69.8162719,17.5321981 69.7436906,17.3425388 69.7436906,17.0879719 L69.7436906,17.0589706 Z M69.6614625,15.1154233 C69.4299375,15.2410956 69.0330375,15.3396079 68.4703031,15.4105 C68.2709344,15.4362789 68.1211781,15.4569941 68.0214938,15.473106 C67.7063625,15.5251242 67.4798906,15.6181125 67.3416188,15.7534518 C67.2028875,15.8892516 67.1335219,16.0858159 67.1335219,16.3431449 C67.1335219,16.6013945 67.2143719,16.7993399 67.3746938,16.9379017 C67.5359344,17.0764634 67.7660812,17.1455141 68.064675,17.1455141 C68.5309406,17.1455141 68.9140594,17.0281279 69.2126531,16.7928952 C69.5121656,16.5576624 69.6614625,16.256141 69.6614625,15.8892516 L69.6614625,15.1154233 Z M71.9151563,17.7503983 L71.9151563,12.5725159 L72.753975,12.5725159 L72.753975,13.5010178 C72.8922469,13.1530022 73.0805906,12.8929112 73.3167094,12.7202844 C73.5528281,12.548118 73.8426938,12.4615744 74.187225,12.4615744 C74.2515375,12.4615744 74.2979344,12.4624951 74.326875,12.4638761 C74.3558156,12.4657175 74.3852156,12.4698605 74.4136969,12.4763053 L74.4136969,13.3946797 C74.3916469,13.3914573 74.3654625,13.3891556 74.3365219,13.3873143 C74.3075813,13.3859333 74.2648594,13.3850126 74.2060594,13.3850126 C73.7434688,13.3850126 73.3902094,13.5116055 73.1472,13.7643311 C72.90465,14.0175171 72.783375,14.3853272 72.783375,14.8686821 L72.783375,17.7503983 L71.9151563,17.7503983 Z M79.7112094,10.629429 L79.7112094,17.749938 L78.8710125,17.749938 L78.8710125,17.097639 C78.6491344,17.3683177 78.398775,17.5713268 78.1190156,17.7066662 C77.8387969,17.8424659 77.5300969,17.9096753 77.1924563,17.9096753 C76.5043125,17.9096753 75.9549,17.6624737 75.5446781,17.1680707 C75.135375,16.6727469 74.9300344,16.0098601 74.9300344,15.1784896 C74.9300344,14.3310073 75.135375,13.656612 75.5478938,13.1553039 C75.9594938,12.6539958 76.5075281,12.4035719 77.1924563,12.4035719 C77.5530656,12.4035719 77.8718719,12.4703209 78.1497938,12.6042792 C78.4286344,12.7377773 78.6684281,12.9384847 78.8710125,13.2059411 L78.8710125,10.629429 L79.7112094,10.629429 Z M78.9004125,15.1250904 C78.9004125,14.4838395 78.7708688,14.0004846 78.5122406,13.6750256 C78.2531531,13.3495665 77.869575,13.1870672 77.3615063,13.1870672 C76.8727313,13.1870672 76.4946656,13.3647577 76.2277688,13.720599 C75.9604125,14.0769007 75.8271938,14.5823518 75.8271938,15.2364922 C75.8271938,15.8257249 75.9645469,16.290206 76.2401719,16.6285545 C76.5148781,16.9669029 76.892025,17.1363074 77.3711531,17.1363074 C77.8567125,17.1363074 78.2334,16.9622996 78.4998375,16.614284 C78.7667344,16.2658081 78.9004125,15.7695637 78.9004125,15.1250904 Z M80.714025,16.0678627 L81.54825,16.0678627 C81.5804062,16.4191007 81.7067344,16.6847157 81.9272344,16.8656286 C82.147275,17.0460811 82.4601094,17.1363074 82.8657375,17.1363074 C83.23875,17.1363074 83.53275,17.0631136 83.7477375,16.9162658 C83.9636437,16.7694179 84.0711375,16.5687105 84.0711375,16.3146039 C84.0711375,16.1244843 84.0169312,15.9785572 83.9094375,15.8768224 C83.8019437,15.7750877 83.5920094,15.6876235 83.2800937,15.6130487 L82.3108125,15.3621645 C81.7641562,15.2300475 81.3833344,15.055119 81.169725,14.8378395 C80.9556562,14.6200996 80.8490812,14.3098317 80.8490812,13.9065756 C80.8490812,13.4494599 81.0213469,13.0862532 81.3677156,12.8169554 C81.7131656,12.5476577 82.1867812,12.413239 82.7881031,12.413239 C83.4022875,12.413239 83.8915219,12.5568644 84.2548875,12.843655 C84.6177937,13.1304456 84.7997062,13.5152882 84.7997062,13.9991035 L84.7997062,14.0179774 L83.955375,14.0179774 C83.9360812,13.7445366 83.8249125,13.5323208 83.6204906,13.3822506 C83.4160687,13.2321803 83.1386062,13.1576056 82.7881031,13.1576056 C82.4376,13.1576056 82.1716219,13.2188305 81.98925,13.3412805 C81.8082562,13.4637304 81.7173,13.6428019 81.7173,13.8780346 C81.7173,14.0455977 81.7742625,14.176794 81.8886469,14.272084 C82.0021125,14.3669136 82.2157219,14.4497745 82.5276375,14.5211269 L83.3669156,14.7195326 C83.9650219,14.8608564 84.3766219,15.0422296 84.6017156,15.2627315 C84.8272687,15.4836938 84.9398156,15.7990253 84.9398156,16.2078055 C84.9398156,16.746401 84.7505531,17.164388 84.3724875,17.462687 C83.9948812,17.7605257 83.4666,17.9101356 82.7881031,17.9101356 C82.1256844,17.9101356 81.6166969,17.7517793 81.2611406,17.4359874 C80.9060437,17.1201955 80.7236719,16.6640005 80.714025,16.0678627 Z" id="Fill-46" fill="#553982"></path>
                            <path d="M45.213525,27.1026261 C44.9434125,27.385734 44.6563031,27.5988706 44.3521969,27.7406547 C44.04855,27.8819785 43.7260687,27.9533309 43.3852125,27.9533309 C42.85785,27.9533309 42.44625,27.8152294 42.1504125,27.5399473 C41.854575,27.2646651 41.7061969,26.8835052 41.7061969,26.3964676 C41.7061969,25.9260021 41.8518187,25.556811 42.1426031,25.2898149 C42.4343062,25.0218982 42.8771437,24.8497317 43.4720344,24.7723949 C43.6231687,24.7558228 43.8271312,24.7337265 44.0848406,24.7047252 C44.5253812,24.6596121 44.7950344,24.6163403 44.8951781,24.5739892 C44.9948625,24.5353208 45.0610125,24.4846836 45.0931687,24.4220777 C45.1248656,24.3590114 45.1409437,24.2227513 45.1409437,24.0128371 C45.1409437,23.7490634 45.0449344,23.5511181 44.8519969,23.4190011 C44.6586,23.286884 44.3673562,23.2210557 43.978725,23.2210557 C43.5763125,23.2210557 43.273125,23.3011545 43.0691625,23.4627332 C42.8652,23.6233912 42.7627594,23.8618463 42.7627594,24.1776382 L41.942775,24.1776382 L41.942775,24.1394301 C41.942775,23.6169464 42.1260656,23.2044835 42.4926469,22.9015811 C42.8592281,22.5986787 43.3645406,22.4472274 44.0072062,22.4472274 C44.6985656,22.4472274 45.2075531,22.5770428 45.5341687,22.8362131 C45.8607844,23.0958438 46.0238625,23.5009412 46.0238625,24.0519659 L46.0238625,26.6436691 C46.0238625,26.865552 46.04775,27.0091775 46.0964437,27.0731645 C46.1442187,27.1380722 46.2315,27.1698355 46.3569094,27.1698355 C46.3826344,27.1698355 46.4138719,27.1679941 46.4506219,27.1629304 C46.4878312,27.158327 46.5323906,27.1505013 46.5833812,27.1412945 L46.5833812,27.8133881 C46.4772656,27.841929 46.3849312,27.8621839 46.3059187,27.8736924 C46.2269062,27.8847405 46.1524875,27.8902645 46.0822031,27.8902645 C45.7923375,27.8902645 45.5755125,27.8276586 45.4308094,27.7019863 C45.2861062,27.576314 45.213525,27.385734 45.213525,27.1316274 L45.213525,27.1026261 L45.213525,27.1026261 Z M45.1312969,25.1595392 C44.8997719,25.2852115 44.5028719,25.3832635 43.9401375,25.4536952 C43.7407687,25.4799345 43.5910125,25.5006497 43.4913281,25.5167616 C43.1761969,25.5683194 42.949725,25.661768 42.8109937,25.7971074 C42.6727219,25.9324468 42.6033562,26.1290112 42.6033562,26.3868005 C42.6033562,26.6450501 42.6842062,26.8425351 42.8445281,26.9815572 C43.0057687,27.120119 43.2359156,27.1891697 43.5345094,27.1891697 C44.000775,27.1891697 44.3838937,27.0717835 44.6824875,26.8360904 C44.982,26.6008577 45.1312969,26.3002569 45.1312969,25.9324468 L45.1312969,25.1595392 Z M48.2426438,22.6166318 L48.2426438,25.792504 C48.2426438,26.3016379 48.322575,26.6551776 48.4819781,26.8535833 C48.6409219,27.051989 48.9101156,27.1505013 49.2900188,27.1505013 C49.7916562,27.1505013 50.1706406,27.0031931 50.4288094,26.7085768 C50.6856,26.4135001 50.814225,25.9794013 50.814225,25.4058201 L50.814225,22.6166318 L51.6824437,22.6166318 L51.6824437,27.7940539 L50.8523531,27.7940539 L50.8523531,27.020686 C50.6727375,27.320366 50.439375,27.5459317 50.1531844,27.6973829 C49.8674531,27.8483738 49.5311906,27.9243296 49.1448562,27.9243296 C48.7847062,27.9243296 48.4709531,27.8631046 48.2045156,27.7406547 C47.9376188,27.6182048 47.7336562,27.444197 47.5921687,27.2186313 C47.5113188,27.092959 47.4529781,26.9451905 47.4180656,26.7757861 C47.3826937,26.6073024 47.3652375,26.3389253 47.3652375,25.9715756 L47.3652375,22.6166318 L48.2426438,22.6166318 Z M54.0225,26.4885352 C54.0225,26.7200852 54.055575,26.8756795 54.1212656,26.9520956 C54.1874156,27.0298927 54.3082313,27.0681008 54.4850906,27.0681008 C54.5365406,27.0681008 54.5985563,27.0671801 54.6711375,27.0639577 C54.7437188,27.0607354 54.8374313,27.0542906 54.9531938,27.0441632 L54.9531938,27.7843868 C54.8084906,27.8101657 54.6789469,27.8290396 54.5650219,27.841929 C54.4506375,27.8548185 54.3491156,27.8612632 54.2586188,27.8612632 C53.8502344,27.8612632 53.5640438,27.7825454 53.3995875,27.6241892 C53.23605,27.4667535 53.1538219,27.1864077 53.1538219,26.7831515 L53.1538219,23.3080596 L52.3820719,23.3080596 L52.3820719,22.6166318 L53.1538219,22.6166318 L53.1538219,21.17071 L54.0225,21.17071 L54.0225,22.6166318 L54.9531938,22.6166318 L54.9531938,23.3080596 L54.0225,23.3080596 L54.0225,26.4885352 Z M59.2175719,27.7940539 L59.2175719,24.6080542 C59.2175719,24.0952377 59.1394781,23.7426187 58.9842094,23.5492767 C58.8275625,23.3559347 58.5597469,23.2592638 58.1803031,23.2592638 C57.7108219,23.2592638 57.3378094,23.3923015 57.0608063,23.6579165 C56.7847219,23.9239919 56.6459906,24.2825952 56.6459906,24.7337265 L56.6459906,27.7940539 L55.7777719,27.7940539 L55.7777719,20.6730846 L56.6459906,20.6730846 L56.6459906,23.346728 C56.8040156,23.0663821 57.0208406,22.8523249 57.2973844,22.7059374 C57.5743875,22.5590896 57.8968688,22.4858958 58.2675844,22.4858958 C58.6562156,22.4858958 58.9842094,22.5448191 59.2511063,22.6626656 C59.5184625,22.7800518 59.7242625,22.9563613 59.8685063,23.1920544 C59.9493563,23.3177267 60.0067781,23.4650349 60.04215,23.6339789 C60.0779813,23.8033833 60.0958969,24.0713001 60.0958969,24.4386498 L60.0958969,27.7940539 L59.2175719,27.7940539 Z M61.1327062,25.1977473 C61.1327062,24.3304704 61.3495312,23.6556148 61.7822625,23.1727202 C62.214075,22.6889049 62.8213687,22.4472274 63.6027656,22.4472274 C64.3873781,22.4472274 64.9974281,22.6879842 65.4310781,23.1699582 C65.8651875,23.6519321 66.0824719,24.327248 66.0824719,25.1977473 C66.0824719,26.0682465 65.8665656,26.7449435 65.4338344,27.2282984 C65.0011031,27.7116534 64.3938094,27.9533309 63.6124125,27.9533309 C62.8278,27.9533309 62.2182094,27.7130344 61.7841,27.2301398 C61.3499906,26.7486262 61.1327062,26.0714689 61.1327062,25.1977473 Z M62.0202187,25.1977473 C62.0202187,25.8394585 62.1580312,26.3297186 62.4327375,26.669448 C62.7079031,27.0096379 63.1011281,27.1799629 63.6124125,27.1799629 C64.1209406,27.1799629 64.5095719,27.0096379 64.7801437,26.669448 C65.0502562,26.3297186 65.1848531,25.8394585 65.1848531,25.1977473 C65.1848531,24.5592584 65.0502562,24.0708397 64.7801437,23.7301896 C64.5095719,23.3909204 64.1209406,23.2205954 63.6124125,23.2205954 C63.0983719,23.2205954 62.7037687,23.3895394 62.4304406,23.7283482 C62.1571125,24.0662364 62.0202187,24.556036 62.0202187,25.1977473 Z M67.1390344,27.7940539 L67.1390344,22.6166318 L67.9783125,22.6166318 L67.9783125,23.5446733 C68.1165844,23.1961974 68.3044687,22.9365668 68.5410469,22.76394 C68.7771656,22.5913132 69.0670312,22.50523 69.4115625,22.50523 C69.4754156,22.50523 69.5222719,22.5061507 69.5507531,22.5075317 C69.5801531,22.5093731 69.6095531,22.5135161 69.6380344,22.5199608 L69.6380344,23.4383353 C69.6159844,23.4351129 69.5898,23.4328112 69.5604,23.4309699 C69.5319187,23.4295888 69.4887375,23.4286682 69.4303969,23.4286682 C68.9673469,23.4286682 68.6140875,23.5552611 68.3715375,23.8075264 C68.1289875,24.0607123 68.0072531,24.4289827 68.0072531,24.9123377 L68.0072531,27.7940539 L67.1390344,27.7940539 Z M70.4194313,20.6730846 L71.28765,20.6730846 L71.28765,21.6637321 L70.4194313,21.6637321 L70.4194313,20.6730846 Z M70.4194313,22.6161715 L71.28765,22.6161715 L71.28765,27.7935936 L70.4194313,27.7935936 L70.4194313,22.6161715 Z M73.6323,26.4885352 C73.6323,26.7200852 73.665375,26.8756795 73.7310656,26.9520956 C73.7972156,27.0298927 73.9180313,27.0681008 74.09535,27.0681008 C74.1463406,27.0681008 74.2083563,27.0671801 74.2809375,27.0639577 C74.3535188,27.0607354 74.4476906,27.0542906 74.5634531,27.0441632 L74.5634531,27.7843868 C74.41875,27.8101657 74.2892063,27.8290396 74.1752813,27.841929 C74.0604375,27.8548185 73.9589156,27.8612632 73.8684188,27.8612632 C73.4600344,27.8612632 73.1738438,27.7825454 73.0098469,27.6241892 C72.84585,27.4667535 72.7636219,27.1864077 72.7636219,26.7831515 L72.7636219,23.3080596 L71.9918719,23.3080596 L71.9918719,22.6166318 L72.7636219,22.6166318 L72.7636219,21.17071 L73.6323,21.17071 L73.6323,22.6166318 L74.5634531,22.6166318 L74.5634531,23.3080596 L73.6323,23.3080596 L73.6323,26.4885352 Z M78.6587812,22.6166318 L79.6280625,22.6166318 L77.4529219,28.5964231 C77.2466625,29.1603372 77.039025,29.5295283 76.8304687,29.7035361 C76.6214531,29.8770836 76.3191844,29.9645478 75.9236625,29.9645478 C75.8368406,29.9645478 75.7504781,29.9567221 75.6654937,29.9424516 C75.58005,29.9281811 75.4941469,29.9074659 75.407325,29.8821473 L75.407325,29.0503164 C75.4941469,29.0765557 75.5791312,29.0958899 75.6627375,29.108319 C75.7468031,29.1212085 75.8304094,29.1276532 75.9135562,29.1276532 C76.0812281,29.1276532 76.2162844,29.0940485 76.3191844,29.0268392 C76.4220844,28.9587092 76.5006375,28.8509901 76.5553031,28.7027612 L76.7822344,28.0882099 L74.8239187,22.6166318 L75.7932,22.6166318 L77.2259906,26.8024857 L78.6587812,22.6166318 Z" id="Fill-55" fill="#553982"></path>
                            <path d="M31.4152781,8.2895307 C31.4152781,12.5987552 27.9286219,15.0086249 23.6284125,15.0086249 C19.3272844,15.0086249 15.8406281,12.5987552 15.8406281,8.2895307 C15.8406281,3.9789252 19.3272844,0.485419733 23.6284125,0.485419733 C27.9286219,0.485419733 31.4152781,3.9789252 31.4152781,8.2895307 Z M36.2736281,11.7577176 C35.1940969,12.584945 25.27665,20.1874279 25.27665,20.1874279 C24.4961719,20.9695423 23.2301344,20.9695423 22.4496562,20.1874279 C22.4496562,20.1874279 12.1022344,12.1632754 10.9831969,11.2872521 C9.48058125,10.0273068 8.140125,11.5432 8.140125,11.5432 C7.35964687,12.3262351 7.35964687,13.5935457 8.140125,14.3770411 L21.9792562,28.2438042 C22.7597344,29.0268392 24.0257719,29.0268392 24.80625,28.2438042 L38.6449219,14.3770411 C39.4258594,13.5935457 39.4258594,12.3262351 38.6449219,11.5432 C38.6449219,11.5432 37.3517812,10.9304901 36.2736281,11.7577176 Z" id="Fill-64" fill="#553982"></path>
                            <path d="M14.6871375,43.5343928 C14.417025,43.8184214 14.1299156,44.0310976 13.8258094,44.1728817 C13.5217031,44.3146658 13.1996812,44.3855579 12.858825,44.3855579 C12.3310031,44.3855579 11.9198625,44.2474565 11.6235656,43.9721743 C11.3277281,43.6964318 11.1798094,43.3152719 11.1798094,42.8286946 C11.1798094,42.3582291 11.3254312,41.9894983 11.6162156,41.7215816 C11.9074594,41.4541252 12.3502969,41.2814984 12.9456469,41.2041616 C13.0967812,41.1885101 13.3007437,41.1654932 13.5579937,41.1364919 C13.9985344,41.0913788 14.2686469,41.048107 14.3683312,41.0062163 C14.4680156,40.9675479 14.5341656,40.9169107 14.5663219,40.8538444 C14.5984781,40.7912384 14.6145562,40.6549783 14.6145562,40.4455245 C14.6145562,40.1812905 14.5185469,39.9828848 14.32515,39.8512281 C14.1322125,39.7191111 13.8405094,39.6528224 13.4518781,39.6528224 C13.0494656,39.6528224 12.7467375,39.7329212 12.542775,39.8944999 C12.3388125,40.0556182 12.2363719,40.2940733 12.2363719,40.6094049 L11.4159281,40.6094049 L11.4159281,40.5711968 C11.4159281,40.0487131 11.5996781,39.6367106 11.9662594,39.3333478 C12.3323812,39.0309057 12.8376937,38.8789941 13.4808187,38.8789941 C14.1721781,38.8789941 14.6811656,39.0088095 15.0077812,39.2679798 C15.3343969,39.5276105 15.4970156,39.9327079 15.4970156,40.4837326 L15.4970156,43.0754358 C15.4970156,43.2973187 15.5213625,43.4409442 15.5695969,43.5053915 C15.6178312,43.5702992 15.7046531,43.6020625 15.8300625,43.6020625 C15.8562469,43.6020625 15.8874844,43.5997608 15.9242344,43.5946971 C15.9614437,43.5900937 16.0055437,43.5831887 16.0569937,43.5735216 L16.0569937,44.2451548 C15.9508781,44.2741561 15.8585437,44.2939506 15.7795312,44.3054591 C15.7009781,44.3169675 15.6256406,44.3220312 15.5558156,44.3220312 C15.2654906,44.3220312 15.0486656,44.2598856 14.9039625,44.1332926 C14.7597187,44.0076204 14.6871375,43.8184214 14.6871375,43.5633941 L14.6871375,43.5343928 L14.6871375,43.5343928 Z M14.6049094,41.5908456 C14.3733844,41.7165179 13.976025,41.8150302 13.41375,41.8859223 C13.2139219,41.9117012 13.064625,41.9324164 12.9649406,41.9485283 C12.64935,42.0005465 12.4228781,42.0935347 12.2846062,42.2293345 C12.1463344,42.3646739 12.0769687,42.5612382 12.0769687,42.8190275 C12.0769687,43.0768168 12.1578187,43.2752225 12.3181406,43.4133239 C12.4789219,43.5518857 12.7090687,43.6213967 13.0081219,43.6213967 C13.4739281,43.6213967 13.8570469,43.5040105 14.1561,43.2687778 C14.4556125,43.033545 14.6049094,42.7315633 14.6049094,42.3646739 L14.6049094,41.5908456 Z M20.2873781,40.7691422 C20.2616531,40.4151422 20.1339469,40.1417014 19.9042594,39.9497404 C19.6736531,39.7582398 19.3599,39.6620292 18.9607031,39.6620292 C18.4912219,39.6620292 18.1292344,39.8314336 17.8729031,40.1702424 C17.6174906,40.5081305 17.489325,40.9914855 17.489325,41.6198469 C17.489325,42.251891 17.6124375,42.7384684 17.8586625,43.0800392 C18.1044281,43.42161 18.4526344,43.5928558 18.9032813,43.5928558 C19.3079906,43.5928558 19.6323094,43.4878987 19.8748594,43.2784449 C20.1178688,43.0685307 20.2680844,42.7637869 20.3259656,42.3646739 L21.1560563,42.3646739 C21.1105781,42.9999404 20.8873219,43.4948038 20.4853688,43.8506451 C20.0829563,44.2074071 19.5427313,44.3855579 18.8646938,44.3855579 C18.1567969,44.3855579 17.6014125,44.1420391 17.1976219,43.6554618 C16.7942906,43.1688844 16.5917063,42.5018546 16.5917063,41.6543722 C16.5917063,40.7870954 16.8030188,40.1080967 17.2242656,39.6159954 C17.6455125,39.1248147 18.2247844,38.8789941 18.9607031,38.8789941 C19.6107188,38.8789941 20.1307313,39.0488589 20.5216594,39.3890487 C20.9121281,39.7287782 21.120225,40.1891162 21.1464094,40.7691422 L20.2873781,40.7691422 Z M25.4737219,40.7691422 C25.4479969,40.4151422 25.3198312,40.1417014 25.0901437,39.9497404 C24.8599969,39.7582398 24.5457844,39.6620292 24.1470469,39.6620292 C23.6771062,39.6620292 23.3151187,39.8314336 23.0592469,40.1702424 C22.803375,40.5081305 22.6756687,40.9914855 22.6756687,41.6198469 C22.6756687,42.251891 22.7987812,42.7384684 23.0445469,43.0800392 C23.2903125,43.42161 23.6389781,43.5928558 24.0891656,43.5928558 C24.4943344,43.5928558 24.8181937,43.4878987 25.0612031,43.2784449 C25.3037531,43.0685307 25.4544281,42.7637869 25.51185,42.3646739 L26.3424,42.3646739 C26.2964625,42.9999404 26.0732062,43.4948038 25.6717125,43.8506451 C25.2693,44.2074071 24.7286156,44.3855579 24.0505781,44.3855579 C23.3431406,44.3855579 22.7877562,44.1420391 22.3835062,43.6554618 C21.9806344,43.1688844 21.77805,42.5018546 21.77805,41.6543722 C21.77805,40.7870954 21.9889031,40.1080967 22.41015,39.6159954 C22.8318562,39.1248147 23.4106687,38.8789941 24.1470469,38.8789941 C24.7966031,38.8789941 25.3166156,39.0488589 25.7080031,39.3890487 C26.0980125,39.7287782 26.3061094,40.1891162 26.3322937,40.7691422 L25.4737219,40.7691422 Z M27.2299125,44.2258206 L27.2299125,39.0483985 L28.0691906,39.0483985 L28.0691906,39.9764401 C28.2074625,39.6284245 28.3953469,39.3683335 28.6314656,39.1957067 C28.8675844,39.0235403 29.1579094,38.9369967 29.5019812,38.9369967 C29.5662937,38.9369967 29.61315,38.9379174 29.6416312,38.9392984 C29.6705719,38.9411398 29.6999719,38.9452828 29.7284531,38.9517276 L29.7284531,39.870102 C29.7064031,39.8668796 29.6802187,39.8645779 29.6512781,39.8627366 C29.6227969,39.8613555 29.5796156,39.8604349 29.5208156,39.8604349 C29.058225,39.8604349 28.7049656,39.9870278 28.4619562,40.2402138 C28.2194062,40.4933997 28.0981312,40.8612098 28.0981312,41.3445647 L28.0981312,44.2258206 L27.2299125,44.2258206 Z M33.9886969,42.5534125 L34.8472687,42.5534125 C34.7535562,43.1237713 34.5059531,43.5735216 34.1044594,43.9017426 C33.7020469,44.230424 33.1953562,44.3947647 32.5848469,44.3947647 C31.8677625,44.3947647 31.3018125,44.1530872 30.8860781,43.6697322 C30.4712625,43.1863773 30.2645437,42.5271732 30.2645437,41.6930406 C30.2645437,40.8096519 30.4698844,40.1196052 30.8819437,39.6233608 C31.2935437,39.1271164 31.8613312,38.8789941 32.5848469,38.8789941 C33.3276562,38.8789941 33.9023344,39.1077822 34.3093406,39.5653582 C34.7158875,40.0233945 34.91985,40.6692488 34.91985,41.5038417 C34.91985,41.6106401 34.9184719,41.6898183 34.9170937,41.7409158 C34.9152562,41.7924737 34.9115812,41.8421902 34.90515,41.890986 L31.1759437,41.890986 C31.18605,42.4360263 31.3206469,42.8567752 31.5811125,43.154614 C31.8420375,43.452913 32.2035656,43.6020625 32.6666156,43.6020625 C33.0203344,43.6020625 33.3120375,43.5113759 33.5421844,43.3290821 C33.7723312,43.1467882 33.9207094,42.8885386 33.9886969,42.5534125 Z M31.17135,41.1654932 L34.0079906,41.1654932 C34.004775,40.6821383 33.8825812,40.3088041 33.6404906,40.0464114 C33.3997781,39.7840187 33.0570844,39.6528224 32.6133281,39.6528224 C32.18565,39.6528224 31.8489281,39.7817171 31.6027031,40.039046 C31.3569375,40.2972957 31.2126937,40.6724712 31.17135,41.1654932 Z M40.428675,37.1053116 L40.428675,44.2253603 L39.5884781,44.2253603 L39.5884781,43.5735216 C39.3666,43.84374 39.1162406,44.0467491 38.8364813,44.1820885 C38.5562625,44.3178882 38.2475625,44.3855579 37.9099219,44.3855579 C37.2217781,44.3855579 36.6723656,44.137896 36.2621438,43.643493 C35.8528406,43.1481692 35.6475,42.4857428 35.6475,41.6539119 C35.6475,40.8064296 35.8528406,40.1320343 36.2653594,39.6307262 C36.6769594,39.1298784 37.2249938,38.8789941 37.9099219,38.8789941 C38.2705313,38.8789941 38.5893375,38.9457432 38.8672594,39.0797015 C39.1456406,39.2136599 39.3858938,39.4143673 39.5884781,39.6813634 L39.5884781,37.1053116 L40.428675,37.1053116 Z M39.6178781,41.6005127 C39.6178781,40.9597221 39.4883344,40.4759068 39.2297063,40.1504478 C38.9706188,39.8249888 38.5870406,39.6624895 38.0789719,39.6624895 C37.5901969,39.6624895 37.2121313,39.84018 36.9452344,40.1960213 C36.6778781,40.552323 36.5446594,41.0577741 36.5446594,41.7119145 C36.5446594,42.3016075 36.6820125,42.7656283 36.9576375,43.1039768 C37.2318844,43.4423252 37.6094906,43.6117296 38.0886188,43.6117296 C38.5741781,43.6117296 38.9508656,43.4377219 39.2173031,43.0897063 C39.4842,42.7412304 39.6178781,42.2454463 39.6178781,41.6005127 Z M41.7842906,37.1053116 L42.6525094,37.1053116 L42.6525094,38.0959591 L41.7842906,38.0959591 L41.7842906,37.1053116 Z M41.7842906,39.0483985 L42.6525094,39.0483985 L42.6525094,44.2253603 L41.7842906,44.2253603 L41.7842906,39.0483985 Z M44.9967,42.9207622 C44.9967,43.1527726 45.029775,43.3074462 45.0954656,43.3843226 C45.1616156,43.4621198 45.2824312,43.5007882 45.45975,43.5007882 C45.5107406,43.5007882 45.5727562,43.4994072 45.6453375,43.4961848 C45.7179187,43.4929624 45.8120906,43.4865177 45.9278531,43.4768506 L45.9278531,44.2161535 C45.78315,44.2414721 45.6536062,44.2612666 45.5392219,44.2741561 C45.4248375,44.2870456 45.3233156,44.2934903 45.2328187,44.2934903 C44.8244344,44.2934903 44.5382437,44.2143121 44.3742469,44.0564162 C44.21025,43.8985202 44.1280219,43.6186347 44.1280219,43.2153786 L44.1280219,39.7398263 L43.3562719,39.7398263 L43.3562719,39.0483985 L44.1280219,39.0483985 L44.1280219,37.6029371 L44.9967,37.6029371 L44.9967,39.0483985 L45.9278531,39.0483985 L45.9278531,39.7398263 L44.9967,39.7398263 L44.9967,42.9207622 Z M50.2312781,42.5534125 L51.08985,42.5534125 C50.9961375,43.1237713 50.7485344,43.5735216 50.3470406,43.9017426 C49.9446281,44.230424 49.4379375,44.3947647 48.8274281,44.3947647 C48.1103437,44.3947647 47.5443937,44.1530872 47.1286594,43.6697322 C46.7138437,43.1863773 46.507125,42.5271732 46.507125,41.6930406 C46.507125,40.8096519 46.7124656,40.1196052 47.124525,39.6233608 C47.536125,39.1271164 48.1039125,38.8789941 48.8274281,38.8789941 C49.5702375,38.8789941 50.1449156,39.1077822 50.5519219,39.5653582 C50.9584687,40.0233945 51.1624312,40.6692488 51.1624312,41.5038417 C51.1624312,41.6106401 51.1610531,41.6898183 51.159675,41.7409158 C51.1578375,41.7924737 51.1541625,41.8421902 51.1477312,41.890986 L47.4189844,41.890986 C47.4286312,42.4360263 47.5632281,42.8567752 47.8236937,43.154614 C48.0846187,43.452913 48.4461469,43.6020625 48.9091969,43.6020625 C49.263375,43.6020625 49.5546187,43.5113759 49.7847656,43.3290821 C50.0149125,43.1467882 50.16375,42.8885386 50.2312781,42.5534125 Z M47.4139312,41.1654932 L50.2505719,41.1654932 C50.2473562,40.6821383 50.1251625,40.3088041 49.8835312,40.0464114 C49.6423594,39.7840187 49.2996656,39.6528224 48.8559094,39.6528224 C48.4282312,39.6528224 48.0915094,39.7817171 47.8452844,40.039046 C47.5995187,40.2972957 47.455275,40.6724712 47.4139312,41.1654932 Z M56.6717156,37.1053116 L56.6717156,44.2253603 L55.8319781,44.2253603 L55.8319781,43.5735216 C55.6101,43.84374 55.3592812,44.0467491 55.0799812,44.1820885 C54.7997625,44.3178882 54.4906031,44.3855579 54.1529625,44.3855579 C53.4648187,44.3855579 52.9158656,44.137896 52.5056437,43.643493 C52.0958812,43.1481692 51.8905406,42.4857428 51.8905406,41.6539119 C51.8905406,40.8064296 52.0963406,40.1320343 52.5084,39.6307262 C52.92,39.1298784 53.4680344,38.8789941 54.1529625,38.8789941 C54.5135719,38.8789941 54.8323781,38.9457432 55.1103,39.0797015 C55.3891406,39.2136599 55.6289344,39.4143673 55.8319781,39.6813634 L55.8319781,37.1053116 L56.6717156,37.1053116 Z M55.8613781,41.6005127 C55.8613781,40.9597221 55.731375,40.4759068 55.4727469,40.1504478 C55.2136594,39.8249888 54.8300812,39.6624895 54.3220125,39.6624895 C53.8332375,39.6624895 53.4551719,39.84018 53.1887344,40.1960213 C52.9213781,40.552323 52.7877,41.0577741 52.7877,41.7119145 C52.7877,42.3016075 52.9255125,42.7656283 53.2006781,43.1039768 C53.4753844,43.4423252 53.8525312,43.6117296 54.3316594,43.6117296 C54.8172187,43.6117296 55.1939062,43.4377219 55.4603437,43.0897063 C55.7272406,42.7412304 55.8613781,42.2454463 55.8613781,41.6005127 Z M60.73305,44.2258206 L60.73305,39.0483985 L61.5723281,39.0483985 L61.5723281,39.9764401 C61.7106,39.6284245 61.8984844,39.3683335 62.1346031,39.1957067 C62.3711813,39.0235403 62.6610469,38.9369967 63.0051188,38.9369967 C63.0694313,38.9369967 63.1162875,38.9379174 63.1447688,38.9392984 C63.1737094,38.9411398 63.2031094,38.9452828 63.23205,38.9517276 L63.23205,39.870102 C63.2095406,39.8668796 63.1833563,39.8645779 63.1544156,39.8627366 C63.1259344,39.8613555 63.0827531,39.8604349 63.0244125,39.8604349 C62.5613625,39.8604349 62.2081031,39.9870278 61.9655531,40.2402138 C61.7225438,40.4933997 61.6012688,40.8612098 61.6012688,41.3445647 L61.6012688,44.2258206 L60.73305,44.2258206 Z M67.4918344,42.5534125 L68.3504062,42.5534125 C68.2566937,43.1237713 68.0090906,43.5735216 67.6075969,43.9017426 C67.2051844,44.230424 66.6989531,44.3947647 66.0879844,44.3947647 C65.3709,44.3947647 64.80495,44.1530872 64.3892156,43.6697322 C63.9744,43.1863773 63.7676812,42.5271732 63.7676812,41.6930406 C63.7676812,40.8096519 63.9730219,40.1196052 64.3850812,39.6233608 C64.7966812,39.1271164 65.3644687,38.8789941 66.0879844,38.8789941 C66.8307937,38.8789941 67.4054719,39.1077822 67.8124781,39.5653582 C68.219025,40.0233945 68.4229875,40.6692488 68.4229875,41.5038417 C68.4229875,41.6106401 68.4216094,41.6898183 68.4202312,41.7409158 C68.4183937,41.7924737 68.4147188,41.8421902 68.4082875,41.890986 L64.6795406,41.890986 C64.6891875,42.4360263 64.8237844,42.8567752 65.08425,43.154614 C65.345175,43.452913 65.7067031,43.6020625 66.1697531,43.6020625 C66.5239312,43.6020625 66.815175,43.5113759 67.0453219,43.3290821 C67.2754688,43.1467882 67.4243062,42.8885386 67.4918344,42.5534125 Z M64.6744875,41.1654932 L67.5111281,41.1654932 C67.5079125,40.6821383 67.3857187,40.3088041 67.1440875,40.0464114 C66.9029156,39.7840187 66.5602219,39.6528224 66.1164656,39.6528224 C65.6892469,39.6528224 65.3520656,39.7817171 65.1058406,40.039046 C64.860075,40.2972957 64.7158312,40.6724712 64.6744875,41.1654932 Z M73.1311219,43.5928558 C72.9285375,43.8603122 72.6915,44.0605592 72.41955,44.1940573 C72.1476,44.3280156 71.8379813,44.395225 71.4911531,44.395225 C70.7929031,44.395225 70.2315469,44.1411184 69.8070844,43.6338259 C69.3830813,43.126073 69.17085,42.4553605 69.17085,41.6198469 C69.17085,40.7953814 69.3835406,40.1320343 69.8098406,39.6307262 C70.2361406,39.129418 70.7993344,38.8789941 71.5008,38.8789941 C71.8411969,38.8789941 72.1416281,38.9443621 72.4007156,39.0746378 C72.6593437,39.2053738 72.9000562,39.413907 73.121475,39.7006976 L73.121475,39.0483985 L73.9704,39.0483985 L73.9704,44.1144188 C73.9704,44.9135656 73.7806781,45.4912899 73.4016938,45.8475915 C73.02225,46.2038932 72.4089844,46.3815837 71.5637344,46.3815837 C70.8783469,46.3815837 70.343175,46.2480857 69.9573,45.9806292 C69.5709656,45.7127125 69.3775688,45.3421404 69.3775688,44.8689129 L69.3775688,44.8302445 L70.2274125,44.8302445 L70.2274125,44.8491183 C70.2274125,45.1170351 70.3399594,45.3172821 70.5668906,45.4512405 C70.7938219,45.5851989 71.1355969,45.6519479 71.5922156,45.6519479 C72.1388719,45.6519479 72.5320969,45.5469908 72.7714313,45.337537 C73.011225,45.1280832 73.1311219,44.7828296 73.1311219,44.3031574 L73.1311219,43.5928558 Z M71.6018625,39.6620292 C71.1130875,39.6620292 70.7364,39.8332749 70.4727187,40.1748458 C70.2094969,40.5164166 70.0776562,41.0043749 70.0776562,41.6391811 C70.0776562,42.2615581 70.2127125,42.7458338 70.4823656,43.0924683 C70.7529375,43.4386425 71.1291656,43.61219 71.6115094,43.61219 C72.1388719,43.61219 72.5288812,43.4533733 72.7815375,43.1357401 C73.0337344,42.8181068 73.1605219,42.3310692 73.1605219,41.6732461 C73.1605219,41.0094386 73.0286812,40.5081305 72.7672969,40.1702424 C72.5045344,39.8314336 72.1168219,39.6620292 71.6018625,39.6620292 Z M75.2975344,37.1053116 L76.1657531,37.1053116 L76.1657531,38.0959591 L75.2975344,38.0959591 L75.2975344,37.1053116 Z M75.2975344,39.0483985 L76.1657531,39.0483985 L76.1657531,44.2253603 L75.2975344,44.2253603 L75.2975344,39.0483985 Z M77.1400875,42.543285 L77.9743125,42.543285 C78.0064687,42.8949833 78.1327969,43.1605983 78.3532969,43.3410509 C78.5733375,43.5215034 78.8861719,43.61219 79.2918,43.61219 C79.6648125,43.61219 79.9592719,43.5389962 80.1738,43.3916881 C80.3897062,43.2453006 80.4972,43.0445932 80.4972,42.7900262 C80.4972,42.5999066 80.4434531,42.4539794 80.3355,42.3527051 C80.2280062,42.25051 80.0185312,42.1630458 79.7061562,42.088471 L78.736875,41.8375868 C78.1902187,41.7054698 77.8093969,41.5305413 77.5957875,41.3132618 C77.3817187,41.0955219 77.2751437,40.785254 77.2751437,40.3819979 C77.2751437,39.9248822 77.4478687,39.5616755 77.7937781,39.2923777 C78.1392281,39.0235403 78.6128437,38.8886612 79.2141656,38.8886612 C79.82835,38.8886612 80.3175844,39.0327471 80.68095,39.3190773 C81.0443156,39.6058679 81.2257687,39.9911709 81.2257687,40.4745258 L81.2257687,40.4933997 L80.3814375,40.4933997 C80.3621437,40.2199589 80.250975,40.0082034 80.0465531,39.8576728 C79.8421312,39.708063 79.5646687,39.6334882 79.2141656,39.6334882 C78.8636625,39.6334882 78.5976844,39.6947132 78.4153125,39.8167028 C78.2343187,39.939613 78.1438219,40.1182242 78.1438219,40.3534569 C78.1438219,40.52102 78.200325,40.6522163 78.3147094,40.7475063 C78.4286344,40.8423359 78.6417844,40.9251968 78.9537,40.9965492 L79.7929781,41.1949549 C80.3910844,41.336739 80.8031437,41.5176518 81.0282375,41.7386141 C81.2533312,41.959116 81.3658781,42.2744476 81.3658781,42.6836881 C81.3658781,43.2222836 81.1766156,43.6402706 80.79855,43.9381093 C80.4209437,44.2364084 79.8931219,44.3855579 79.2141656,44.3855579 C78.5517469,44.3855579 78.0427594,44.2272016 77.6872031,43.9114097 C77.3321062,43.5956178 77.1497344,43.1398831 77.1400875,42.543285 Z M83.4110156,42.9207622 C83.4110156,43.1527726 83.4440906,43.3074462 83.5102406,43.3843226 C83.5759312,43.4621198 83.6972062,43.5007882 83.8740656,43.5007882 C83.9255156,43.5007882 83.9875313,43.4994072 84.0601125,43.4961848 C84.1326937,43.4929624 84.2264063,43.4865177 84.3421687,43.4768506 L84.3421687,44.2161535 C84.1974656,44.2414721 84.0679219,44.2612666 83.9539969,44.2741561 C83.8396125,44.2870456 83.7376313,44.2934903 83.6475938,44.2934903 C83.2392094,44.2934903 82.9530187,44.2143121 82.7885625,44.0564162 C82.625025,43.8985202 82.5427969,43.6186347 82.5427969,43.2153786 L82.5427969,39.7398263 L81.7710469,39.7398263 L81.7710469,39.0483985 L82.5427969,39.0483985 L82.5427969,37.6029371 L83.4110156,37.6029371 L83.4110156,39.0483985 L84.3421687,39.0483985 L84.3421687,39.7398263 L83.4110156,39.7398263 L83.4110156,42.9207622 Z M88.6460531,42.5534125 L89.5041656,42.5534125 C89.4109125,43.1237713 89.1633094,43.5735216 88.7618156,43.9017426 C88.3589437,44.230424 87.8527125,44.3947647 87.2417437,44.3947647 C86.5246594,44.3947647 85.9587094,44.1530872 85.5434344,43.6697322 C85.1286187,43.1863773 84.9214406,42.5271732 84.9214406,41.6930406 C84.9214406,40.8096519 85.1267812,40.1196052 85.5388406,39.6233608 C85.9509,39.1271164 86.5182281,38.8789941 87.2417437,38.8789941 C87.9850125,38.8789941 88.5596906,39.1077822 88.9662375,39.5653582 C89.3727844,40.0233945 89.5767469,40.6692488 89.5767469,41.5038417 C89.5767469,41.6106401 89.5758281,41.6898183 89.5739906,41.7409158 C89.5726125,41.7924737 89.5689375,41.8421902 89.5625062,41.890986 L85.8333,41.890986 C85.8429469,42.4360263 85.9775437,42.8567752 86.2380094,43.154614 C86.4989344,43.452913 86.8609219,43.6020625 87.3235125,43.6020625 C87.6776906,43.6020625 87.9693937,43.5113759 88.1995406,43.3290821 C88.4292281,43.1467882 88.5780656,42.8885386 88.6460531,42.5534125 Z M85.8287062,41.1654932 L88.6653469,41.1654932 C88.6621313,40.6821383 88.5399375,40.3088041 88.2978469,40.0464114 C88.056675,39.7840187 87.7144406,39.6528224 87.270225,39.6528224 C86.8430063,39.6528224 86.505825,39.7817171 86.2600594,40.039046 C86.0138344,40.2972957 85.87005,40.6724712 85.8287062,41.1654932 Z M90.570375,44.2258206 L90.570375,39.0483985 L91.4091937,39.0483985 L91.4091937,39.9764401 C91.5474656,39.6284245 91.73535,39.3683335 91.9719281,39.1957067 C92.2080469,39.0235403 92.4979125,38.9369967 92.8424437,38.9369967 C92.9062969,38.9369967 92.9531531,38.9379174 92.9820937,38.9392984 C93.0110344,38.9411398 93.0404344,38.9452828 93.0689156,38.9517276 L93.0689156,39.870102 C93.0468656,39.8668796 93.0206812,39.8645779 92.9912812,39.8627366 C92.9628,39.8613555 92.9196187,39.8604349 92.8612781,39.8604349 C92.3982281,39.8604349 92.0449687,39.9870278 91.8024187,40.2402138 C91.5598687,40.4933997 91.4381344,40.8612098 91.4381344,41.3445647 L91.4381344,44.2258206 L90.570375,44.2258206 Z" id="Fill-66" fill="#FFFFFF"></path>
                            <path d="M96.1814875,2.39741554 L96.4689542,2.39741554 L96.4689542,0.437415538 L97.1418875,0.437415538 L97.1418875,0.195682205 L95.5118208,0.195682205 L95.5118208,0.437415538 L96.1814875,0.437415538 L96.1814875,2.39741554 Z M99.2978875,2.39741554 L99.5755542,2.39741554 L99.4383542,0.195682205 L99.0757542,0.195682205 L98.6837542,1.26061554 C98.5857542,1.5382822 98.5073542,1.78001554 98.4518208,2.00214887 L98.4420208,2.00214887 C98.3864875,1.7734822 98.3113542,1.53174887 98.2198875,1.26061554 L97.8442208,0.195682205 L97.4816208,0.195682205 L97.3280875,2.39741554 L97.5992208,2.39741554 L97.6580208,1.45334887 C97.6776208,1.12341554 97.6939542,0.754282205 97.7004875,0.479882205 L97.7070208,0.479882205 C97.7690875,0.741215538 97.8572875,1.02541554 97.9618208,1.33574887 L98.3178875,2.38434887 L98.5334875,2.38434887 L98.9222208,1.31614887 C99.0332875,1.01234887 99.1247542,0.737948871 99.1998875,0.479882205 L99.2096875,0.479882205 C99.2064208,0.754282205 99.2260208,1.12341554 99.2423542,1.4304822 L99.2978875,2.39741554 Z" id="TM" fill="#553982"></path>
                        </g>
                        <g id="nhs-logo">
                            <path d="M65.4596711,14.3315789 L58.9464474,5.02664474 L58.9464474,12.8878289 L60.2575658,12.8878289 L60.2575658,14.1994079 L55.8365132,14.1994079 L55.8365132,12.8878289 L57.1480921,12.8878289 L57.1480921,2.39888158 L55.8365132,2.39888158 L55.8365132,1.08730263 L59.0173684,1.08730263 L65.5379605,10.4511842 L65.5379605,2.39888158 L64.2268421,2.39888158 L64.2268421,1.08730263 L68.6469737,1.08730263 L68.6469737,2.39888158 L67.3358553,2.39888158 L67.3358553,14.3315789 L65.4596711,14.3315789 Z M72.8557237,10.3982237 L71.8715789,12.8878289 L73.1877632,12.8878289 L73.1877632,14.1994079 L69.6357237,14.1994079 L69.6357237,12.8878289 L70.4103289,12.8878289 L75.1394737,0.91875 L77.1869737,0.91875 L81.9124342,12.8878289 L82.6847368,12.8878289 L82.6847368,14.1994079 L77.7861184,14.1994079 L77.7861184,12.8878289 L79.1009211,12.8878289 L78.1121711,10.3982237 L72.8557237,10.3982237 Z M73.3954605,9.03368421 L77.5710526,9.03368421 L75.4779605,3.76203947 L73.3954605,9.03368421 Z M87.3581579,2.50526316 L84.0271711,2.50526316 L84.0271711,3.92230263 L82.6096711,3.92230263 L82.6096711,1.08730263 L94.8435526,1.08730263 L94.8435526,3.92230263 L93.4265132,3.92230263 L93.4265132,2.50526316 L90.0950658,2.50526316 L90.0950658,12.8878289 L91.4066447,12.8878289 L91.4066447,14.1994079 L86.0475,14.1994079 L86.0475,12.8878289 L87.3581579,12.8878289 L87.3581579,2.50526316 Z M99.9429605,2.39888158 L99.9429605,12.8878289 L101.254539,12.8878289 L101.254539,14.1994079 L95.8940132,14.1994079 L95.8940132,12.8878289 L97.2055921,12.8878289 L97.2055921,2.39888158 L95.8940132,2.39888158 L95.8940132,1.08730263 L101.254539,1.08730263 L101.254539,2.39888158 L99.9429605,2.39888158 Z M109.240526,14.5263816 C107.203618,14.5263816 105.595921,13.9120395 104.421118,12.6838158 C103.245855,11.4555921 102.658684,9.77513158 102.658684,7.64335526 C102.658684,5.51157895 103.245855,3.83111842 104.421118,2.60197368 C105.595921,1.37375 107.203618,0.759407895 109.240526,0.759407895 C111.278816,0.759407895 112.886513,1.37375 114.065461,2.60197368 C115.242105,3.83111842 115.831579,5.51157895 115.831579,7.64335526 C115.831579,9.77513158 115.242105,11.4555921 114.065461,12.6838158 C112.886513,13.9120395 111.278816,14.5263816 109.240526,14.5263816 Z M109.240526,13.2152632 C110.354079,13.2152632 111.247039,12.705 111.918487,11.6867763 C112.590395,10.6685526 112.925658,9.32013158 112.925658,7.64335526 C112.925658,5.95921053 112.590395,4.61078947 111.918487,3.59440789 C111.247039,2.57848684 110.354079,2.07052632 109.240526,2.07052632 C108.1325,2.07052632 107.243224,2.57848684 106.571316,3.59440789 C105.900329,4.61078947 105.564605,5.95921053 105.564605,7.64335526 C105.564605,9.32565789 105.900329,10.6759211 106.571316,11.6913816 C107.243224,12.7068421 108.1325,13.2152632 109.240526,13.2152632 Z M126.850592,14.3315789 L120.337829,5.02664474 L120.337829,12.8878289 L121.648947,12.8878289 L121.648947,14.1994079 L117.227895,14.1994079 L117.227895,12.8878289 L118.539013,12.8878289 L118.539013,2.39888158 L117.227895,2.39888158 L117.227895,1.08730263 L120.40875,1.08730263 L126.928882,10.4511842 L126.928882,2.39888158 L125.617763,2.39888158 L125.617763,1.08730263 L130.038355,1.08730263 L130.038355,2.39888158 L128.726776,2.39888158 L128.726776,14.3315789 L126.850592,14.3315789 Z M134.246184,10.3982237 L133.2625,12.8878289 L134.578224,12.8878289 L134.578224,14.1994079 L131.026184,14.1994079 L131.026184,12.8878289 L131.80125,12.8878289 L136.530395,0.91875 L138.578355,0.91875 L143.302895,12.8878289 L144.075658,12.8878289 L144.075658,14.1994079 L139.176579,14.1994079 L139.176579,12.8878289 L140.491842,12.8878289 L139.503092,10.3982237 L134.246184,10.3982237 Z M134.786842,9.03368421 L138.962434,9.03368421 L136.868882,3.76203947 L134.786842,9.03368421 Z M154.888355,14.1994079 L144.912895,14.1994079 L144.912895,12.8878289 L146.224013,12.8878289 L146.224013,2.39888158 L144.912895,2.39888158 L144.912895,1.08730263 L150.2725,1.08730263 L150.2725,2.39888158 L148.960921,2.39888158 L148.960921,12.7814474 L153.470855,12.7814474 L153.470855,11.3547368 L154.888355,11.3547368 L154.888355,14.1994079 Z" id="Fill-1" fill="#0A0A0F"></path>
                            <path d="M4.17835526,25.2124342 L4.17835526,30.0765132 L5.48993421,30.0765132 L5.48993421,31.3876316 L0.129407895,31.3876316 L0.129407895,30.0765132 L1.44052632,30.0765132 L1.44052632,19.5871053 L0.129407895,19.5871053 L0.129407895,18.2759868 L5.48993421,18.2759868 L5.48993421,19.5871053 L4.17835526,19.5871053 L4.17835526,23.9013158 L9.46796053,23.9013158 L9.46796053,19.5871053 L8.15684211,19.5871053 L8.15684211,18.2759868 L13.5159868,18.2759868 L13.5159868,19.5871053 L12.2048684,19.5871053 L12.2048684,30.0765132 L13.5159868,30.0765132 L13.5159868,31.3876316 L8.15684211,31.3876316 L8.15684211,30.0765132 L9.46796053,30.0765132 L9.46796053,25.2124342 L4.17835526,25.2124342 Z M18.9244079,25.6992105 L15.2263816,19.5871053 L14.4513158,19.5871053 L14.4513158,18.2759868 L19.3586842,18.2759868 L19.3586842,19.5871053 L18.2690789,19.5871053 L21.0557237,24.1398684 L23.8050658,19.5871053 L22.7251316,19.5871053 L22.7251316,18.2759868 L26.1270395,18.2759868 L26.1270395,19.5871053 L25.3611842,19.5871053 L21.6617763,25.6992105 L21.6617763,30.0765132 L22.9733553,30.0765132 L22.9733553,31.3876316 L17.61375,31.3876316 L17.61375,30.0765132 L18.9244079,30.0765132 L18.9244079,25.6992105 Z M31.0933553,26.0013158 L31.0933553,30.0765132 L32.5196053,30.0765132 L32.5196053,31.3876316 L27.16,31.3876316 L27.16,30.0765132 L28.4711184,30.0765132 L28.4711184,19.5871053 L27.16,19.5871053 L27.16,18.2759868 L32.8557895,18.2759868 C34.2557895,18.2759868 35.3403289,18.5799342 36.1126316,19.1878289 C36.8826316,19.7961842 37.2680921,20.6504605 37.2680921,21.7488158 C37.2680921,23.1419079 36.8006579,24.1992763 35.8680921,24.9195395 C34.9346053,25.6411842 33.5673026,26.0013158 31.7666447,26.0013158 L31.0933553,26.0013158 Z M31.0933553,24.6901974 L31.5271711,24.6901974 C32.5481579,24.6901974 33.3149342,24.4456579 33.8256579,23.9588816 C34.3368421,23.4725658 34.5924342,22.7407895 34.5924342,21.7653947 C34.5924342,21.0400658 34.3741447,20.4957237 33.9371053,20.1319079 C33.4996053,19.7685526 32.8410526,19.5871053 31.9605263,19.5871053 L31.0933553,19.5871053 L31.0933553,24.6901974 Z M48.0471711,31.5202632 L41.5344079,22.2153289 L41.5344079,30.0765132 L42.8455263,30.0765132 L42.8455263,31.3876316 L38.4244737,31.3876316 L38.4244737,30.0765132 L39.7355921,30.0765132 L39.7355921,19.5871053 L38.4244737,19.5871053 L38.4244737,18.2759868 L41.6048684,18.2759868 L48.1254605,27.6398684 L48.1254605,19.5871053 L46.8143421,19.5871053 L46.8143421,18.2759868 L51.2344737,18.2759868 L51.2344737,19.5871053 L49.9233553,19.5871053 L49.9233553,31.5202632 L48.0471711,31.5202632 Z M59.2301316,31.7150658 C57.1923026,31.7150658 55.5859868,31.1002632 54.4107237,29.8720395 C53.2359211,28.6442763 52.6482895,26.9638158 52.6482895,24.8320395 C52.6482895,22.7002632 53.2359211,21.0198026 54.4107237,19.7906579 C55.5859868,18.5624342 57.1923026,17.9476316 59.2301316,17.9476316 C61.2675,17.9476316 62.8756579,18.5624342 64.0541447,19.7906579 C65.2321711,21.0198026 65.8211842,22.7002632 65.8211842,24.8320395 C65.8211842,26.9638158 65.2321711,28.6442763 64.0541447,29.8720395 C62.8756579,31.1002632 61.2675,31.7150658 59.2301316,31.7150658 Z M59.2301316,30.4039474 C60.3436842,30.4039474 61.2371053,29.8936842 61.9085526,28.875 C62.58,27.8572368 62.9152632,26.5088158 62.9152632,24.8320395 C62.9152632,23.1478947 62.58,21.7990132 61.9085526,20.7826316 C61.2371053,19.7671711 60.3436842,19.2592105 59.2301316,19.2592105 C58.1225658,19.2592105 57.2328289,19.7671711 56.5613816,20.7826316 C55.8894737,21.7990132 55.5542105,23.1478947 55.5542105,24.8320395 C55.5542105,26.5138816 55.8894737,27.8641447 56.5613816,28.8800658 C57.2328289,29.8955263 58.1225658,30.4039474 59.2301316,30.4039474 Z M71.4165789,19.6934868 L68.0855921,19.6934868 L68.0855921,21.1109868 L66.6680921,21.1109868 L66.6680921,18.2759868 L78.9024342,18.2759868 L78.9024342,21.1109868 L77.4844737,21.1109868 L77.4844737,19.6934868 L74.1539474,19.6934868 L74.1539474,30.0765132 L75.4646053,30.0765132 L75.4646053,31.3876316 L70.1059211,31.3876316 L70.1059211,30.0765132 L71.4165789,30.0765132 L71.4165789,19.6934868 Z M84,25.2124342 L84,30.0765132 L85.3111184,30.0765132 L85.3111184,31.3876316 L79.9524342,31.3876316 L79.9524342,30.0765132 L81.2630921,30.0765132 L81.2630921,19.5871053 L79.9524342,19.5871053 L79.9524342,18.2759868 L85.3111184,18.2759868 L85.3111184,19.5871053 L84,19.5871053 L84,23.9013158 L89.2896053,23.9013158 L89.2896053,19.5871053 L87.9784868,19.5871053 L87.9784868,18.2759868 L93.3385526,18.2759868 L93.3385526,19.5871053 L92.0274342,19.5871053 L92.0274342,30.0765132 L93.3385526,30.0765132 L93.3385526,31.3876316 L87.9784868,31.3876316 L87.9784868,30.0765132 L89.2896053,30.0765132 L89.2896053,25.2124342 L84,25.2124342 Z M104.514605,31.3876316 L94.5828947,31.3876316 L94.5828947,30.0765132 L95.8940132,30.0765132 L95.8940132,19.5871053 L94.5828947,19.5871053 L94.5828947,18.2759868 L104.098289,18.2759868 L104.098289,20.8986842 L102.680789,20.8986842 L102.680789,19.5871053 L98.6318421,19.5871053 L98.6318421,23.9542763 L101.369671,23.9542763 L101.369671,23.0769737 L102.680789,23.0769737 L102.680789,26.1426974 L101.369671,26.1426974 L101.369671,25.2653947 L98.6318421,25.2653947 L98.6318421,29.9701316 L103.096645,29.9701316 L103.096645,28.5429605 L104.514605,28.5429605 L104.514605,31.3876316 Z M109.568882,25.7885526 L109.568882,30.0765132 L110.667237,30.0765132 L110.667237,31.3876316 L105.635066,31.3876316 L105.635066,30.0765132 L106.946184,30.0765132 L106.946184,19.5871053 L105.635066,19.5871053 L105.635066,18.2759868 L111.287566,18.2759868 C112.698158,18.2759868 113.785461,18.5605921 114.547632,19.1302632 C115.309342,19.7008553 115.690197,20.5113816 115.690197,21.5623026 C115.690197,22.4538816 115.479276,23.2100658 115.055592,23.8303947 C114.632368,24.4502632 113.994539,24.9324342 113.142105,25.2736842 L116.602961,30.0765132 L117.480263,30.0765132 L117.480263,31.3876316 L114.113355,31.3876316 L110.578816,25.7885526 L109.568882,25.7885526 Z M109.568882,24.5299342 L110.029408,24.5299342 C111.027368,24.5299342 111.775263,24.2946053 112.27125,23.8267105 C112.766776,23.3565132 113.015461,22.6519079 113.015461,21.7133553 C113.015461,21.0046053 112.800395,20.4731579 112.372566,20.1190132 C111.944737,19.7644079 111.301382,19.5871053 110.445263,19.5871053 L109.568882,19.5871053 L109.568882,24.5299342 Z M121.440329,27.5864474 L120.457105,30.0765132 L121.771447,30.0765132 L121.771447,31.3876316 L118.220329,31.3876316 L118.220329,30.0765132 L118.994474,30.0765132 L123.724539,18.1074342 L125.7725,18.1074342 L130.497039,30.0765132 L131.268882,30.0765132 L131.268882,31.3876316 L126.370263,31.3876316 L126.370263,30.0765132 L127.685987,30.0765132 L126.697697,27.5864474 L121.440329,27.5864474 Z M121.980066,26.2223684 L126.155658,26.2223684 L124.062105,20.9507237 L121.980066,26.2223684 Z M136.039934,26.0013158 L136.039934,30.0765132 L137.466184,30.0765132 L137.466184,31.3876316 L132.106579,31.3876316 L132.106579,30.0765132 L133.417237,30.0765132 L133.417237,19.5871053 L132.106579,19.5871053 L132.106579,18.2759868 L137.803289,18.2759868 C139.202829,18.2759868 140.288289,18.5799342 141.058289,19.1878289 C141.829211,19.7961842 142.215132,20.6504605 142.215132,21.7488158 C142.215132,23.1419079 141.748618,24.1992763 140.815132,24.9195395 C139.881645,25.6411842 138.514342,26.0013158 136.713224,26.0013158 L136.039934,26.0013158 Z M136.039934,24.6901974 L136.474211,24.6901974 C137.496118,24.6901974 138.262895,24.4456579 138.774079,23.9588816 C139.284342,23.4725658 139.539934,22.7407895 139.539934,21.7653947 C139.539934,21.0400658 139.320724,20.4957237 138.884145,20.1319079 C138.446645,19.7685526 137.788553,19.5871053 136.908947,19.5871053 L136.039934,19.5871053 L136.039934,24.6901974 Z M147.534211,25.6992105 L143.835724,19.5871053 L143.060658,19.5871053 L143.060658,18.2759868 L147.968947,18.2759868 L147.968947,19.5871053 L146.879342,19.5871053 L149.665987,24.1398684 L152.414408,19.5871053 L151.335395,19.5871053 L151.335395,18.2759868 L154.737303,18.2759868 L154.737303,19.5871053 L153.970987,19.5871053 L150.2725,25.6992105 L150.2725,30.0765132 L151.583618,30.0765132 L151.583618,31.3876316 L146.223092,31.3876316 L146.223092,30.0765132 L147.534211,30.0765132 L147.534211,25.6992105 Z" id="Fill-9" fill="#006290"></path>
                            <path d="M74.9686184,48.3805921 L74.9686184,45.4746711 L76.5007895,45.4746711 L76.5007895,46.8396711 C76.9378289,47.1044737 77.3504605,47.3061842 77.7373026,47.4425 C78.1232237,47.5783553 78.4851974,47.6455921 78.8227632,47.6455921 C79.4776316,47.6455921 80.0063158,47.4664474 80.4078947,47.1104605 C80.8090132,46.7521711 81.0107237,46.2838158 81.0107237,45.7058553 C81.0107237,45.1559868 80.8836184,44.7101974 80.6303289,44.3675658 C80.3692105,44.0309211 79.8764474,43.6620395 79.1501974,43.2609211 L78.2728947,42.7815132 C77.0865789,42.1266447 76.2415132,41.4915789 75.74,40.8772368 C75.2371053,40.2693421 74.9861184,39.5753289 74.9861184,38.7961184 C74.9861184,37.7203289 75.3761842,36.8411842 76.1558553,36.1605263 C76.9355263,35.4775658 77.9385526,35.1363158 79.1676974,35.1363158 C79.8110526,35.1363158 80.4507237,35.1809868 81.08625,35.2694079 C81.7208553,35.3582895 82.3513158,35.4946053 82.9776316,35.6774342 L82.9776316,38.3351316 L81.445,38.3351316 L81.445,37.0760526 C81.0719737,36.8467105 80.7123026,36.6730921 80.3632237,36.5575 C80.0146053,36.44375 79.6747368,36.3857237 79.345,36.3857237 C78.8434868,36.3857237 78.4161184,36.5634868 78.0651974,36.9176316 C77.7128947,37.2722368 77.5383553,37.7028289 77.5383553,38.2103289 C77.5383553,38.6243421 77.665,38.9784868 77.91875,39.2732237 C78.1720395,39.5753289 78.6509868,39.9257895 79.3542105,40.3278289 L80.2407237,40.8417763 C81.5159211,41.5749342 82.3955263,42.2357895 82.8795395,42.8261842 C83.3644737,43.4230263 83.6067105,44.1317763 83.6067105,44.9524342 C83.6067105,46.1516447 83.16,47.1104605 82.2684211,47.8265789 C81.3759211,48.5445395 80.1900658,48.90375 78.7071711,48.90375 C78.1577632,48.90375 77.5710526,48.8595395 76.9484211,48.7701974 C76.3253289,48.6826974 75.6653947,48.5519079 74.9686184,48.3805921 Z M91.6465789,48.90375 C89.60875,48.90375 88.0019737,48.2894079 86.8267105,47.0607237 C85.6509868,45.8329605 85.0633553,44.1520395 85.0633553,42.0207237 C85.0633553,39.8884868 85.6509868,38.2084868 86.8267105,36.9793421 C88.0019737,35.7511184 89.60875,35.1363158 91.6465789,35.1363158 C93.6839474,35.1363158 95.2916447,35.7511184 96.4701316,36.9793421 C97.6481579,38.2084868 98.2371711,39.8884868 98.2371711,42.0207237 C98.2371711,44.1520395 97.6481579,45.8329605 96.4701316,47.0607237 C95.2916447,48.2894079 93.6839474,48.90375 91.6465789,48.90375 Z M91.6465789,47.5921711 C92.7601316,47.5921711 93.6521711,47.0823684 94.3236184,46.0636842 C94.9950658,45.0454605 95.3317105,43.6970395 95.3317105,42.0207237 C95.3317105,40.3361184 94.9950658,38.9876974 94.3236184,37.9717763 C93.6521711,36.9558553 92.7601316,36.4478947 91.6465789,36.4478947 C90.5385526,36.4478947 89.6488158,36.9558553 88.9773684,37.9717763 C88.305,38.9876974 87.9692763,40.3361184 87.9692763,42.0207237 C87.9692763,43.7025658 88.305,45.0528289 88.9773684,46.06875 C89.6488158,47.0846711 90.5385526,47.5921711 91.6465789,47.5921711 Z M111.087697,48.0531579 C109.759079,48.6200658 108.317632,48.90375 106.764737,48.90375 C104.573092,48.90375 102.865461,48.2963158 101.64,47.0823684 C100.414079,45.8702632 99.8011184,44.1764474 99.8011184,42.0018421 C99.8011184,39.8175658 100.400263,38.1260526 101.595329,36.9309868 C102.791316,35.735 104.484671,35.1363158 106.675855,35.1363158 C107.349605,35.1363158 108.043158,35.18375 108.757434,35.2781579 C109.471711,35.3734868 110.210395,35.5153289 110.973026,35.7036842 L110.973026,38.4493421 L109.555526,38.4493421 L109.414145,37.1386842 C108.965592,36.9084211 108.515197,36.7348026 108.063421,36.6210526 C107.613026,36.5054605 107.160789,36.4478947 106.705789,36.4478947 C105.461908,36.4478947 104.484671,36.9411184 103.773618,37.9266447 C103.062105,38.9130921 102.707039,40.2721053 102.707039,42.0018421 C102.707039,43.6804605 103.117368,45.0086184 103.937105,45.9895395 C104.756842,46.9695395 105.866711,47.4590789 107.265329,47.4590789 C108.574605,47.4590789 109.848421,47.1380921 111.087697,46.4938158 L111.087697,48.0531579 Z M116.674342,36.77625 L116.674342,47.2656579 L117.985,47.2656579 L117.985,48.5763158 L112.625395,48.5763158 L112.625395,47.2656579 L113.936974,47.2656579 L113.936974,36.77625 L112.625395,36.77625 L112.625395,35.4646711 L117.985,35.4646711 L117.985,36.77625 L116.674342,36.77625 Z M129.151842,48.5763158 L119.220592,48.5763158 L119.220592,47.2656579 L120.531711,47.2656579 L120.531711,36.77625 L119.220592,36.77625 L119.220592,35.4646711 L128.735987,35.4646711 L128.735987,38.0869079 L127.318487,38.0869079 L127.318487,36.77625 L123.27,36.77625 L123.27,41.1425 L126.007829,41.1425 L126.007829,40.2651974 L127.318487,40.2651974 L127.318487,43.3313816 L126.007829,43.3313816 L126.007829,42.4540789 L123.27,42.4540789 L123.27,47.1588158 L127.734803,47.1588158 L127.734803,45.7316447 L129.151842,45.7316447 L129.151842,48.5763158 Z M134.835197,36.8821711 L131.504211,36.8821711 L131.504211,38.2996711 L130.086711,38.2996711 L130.086711,35.4646711 L142.321513,35.4646711 L142.321513,38.2996711 L140.904013,38.2996711 L140.904013,36.8821711 L137.572566,36.8821711 L137.572566,47.2656579 L138.884145,47.2656579 L138.884145,48.5763158 L133.523618,48.5763158 L133.523618,47.2656579 L134.835197,47.2656579 L134.835197,36.8821711 Z M147.534211,42.8878947 L143.835724,36.77625 L143.060658,36.77625 L143.060658,35.4646711 L147.968947,35.4646711 L147.968947,36.77625 L146.879342,36.77625 L149.665987,41.3285526 L152.414408,36.77625 L151.335395,36.77625 L151.335395,35.4646711 L154.737303,35.4646711 L154.737303,36.77625 L153.970987,36.77625 L150.2725,42.8878947 L150.2725,47.2656579 L151.583618,47.2656579 L151.583618,48.5763158 L146.223092,48.5763158 L146.223092,47.2656579 L147.534211,47.2656579 L147.534211,42.8878947 Z" id="Fill-21" fill="#0A0A0F"></path>
                            <path d="M48.1871711,12.9048684 L48.1871711,14.1878947 L48.7338158,14.1878947 L48.7338158,14.7331579 L47.6423684,14.7331579 L47.6423684,10.0224342 L48.7338158,10.0224342 L48.7338158,10.5676974 L48.1871711,10.5676974 L48.1871711,11.8507237 L52.1859211,11.8507237 L52.1859211,11.3455263 L52.6915789,11.3455263 L52.6915789,13.4100658 L52.1859211,13.4100658 L52.1859211,12.9048684 L48.1871711,12.9048684 Z M50.3129605,8.05828947 L52.1859211,8.05828947 L52.1859211,7.55355263 L52.6915789,7.55355263 L52.6915789,9.61763158 L52.1859211,9.61763158 L52.1859211,9.11289474 L48.1457237,9.11289474 L48.1457237,9.61763158 L47.6423684,9.61763158 L47.6423684,7.55355263 L48.1457237,7.55355263 L48.1457237,8.05828947 L49.8077632,8.05828947 L49.8077632,6.02138158 L48.1457237,6.02138158 L48.1457237,6.52703947 L47.6423684,6.52703947 L47.6423684,4.46342105 L48.1457237,4.46342105 L48.1457237,4.96769737 L52.1859211,4.96769737 L52.1859211,4.46342105 L52.6915789,4.46342105 L52.6915789,6.52703947 L52.1859211,6.52703947 L52.1859211,6.02138158 L50.3129605,6.02138158 L50.3129605,8.05828947 Z M52.6915789,0.158881579 L52.6915789,3.98309211 L52.1859211,3.98309211 L52.1859211,3.47881579 L48.1457237,3.47881579 L48.1457237,3.98309211 L47.6423684,3.98309211 L47.6423684,0.319144737 L48.6513816,0.319144737 L48.6513816,0.865789474 L48.1457237,0.865789474 L48.1457237,2.42421053 L49.8280263,2.42421053 L49.8280263,1.37006579 L49.4904605,1.37006579 L49.4904605,0.865789474 L50.6717105,0.865789474 L50.6717105,1.37006579 L50.3336842,1.37006579 L50.3336842,2.42421053 L52.1449342,2.42421053 L52.1449342,0.705065789 L51.5964474,0.705065789 L51.5964474,0.158881579 L52.6915789,0.158881579 Z" id="Fill-28" fill="#006290"></path>
                            <path d="M159.260132,41.5017105 L159.260132,48.8830263 C172.691382,48.8830263 183.580526,37.9952632 183.580526,24.5658553 C183.580526,11.1336842 172.691382,0.247302632 159.260132,0.247302632 L159.260132,7.63046053 C168.62125,8.18309211 176.064737,15.5570395 176.064737,24.5658553 C176.064737,33.5751316 168.62125,40.9490789 159.260132,41.5017105 Z" id="Fill-31" fill="#006290"></path>
                            <path d="M168.424605,24.5658553 C168.424605,19.7551974 164.406053,15.7836184 159.260132,15.2742763 L159.260132,33.8578947 C164.406053,33.3490132 168.424605,29.3769737 168.424605,24.5658553" id="Fill-32" fill="#0A0A0F"></path>
                        </g>
                    </g>
                </g>
            </g>
        </g>
    </g>
</svg>